<svg xmlns:xlink="http://www.w3.org/1999/xlink" xmlns="http://www.w3.org/2000/svg" fill="none" height="75" viewBox="2500 0 2816.43505859375 75" data-width-without-text="64" class="tape" width="2816.43505859375" ><defs><pattern id="83-pattern" x="0" y="0" width="344" height="75" patternUnits="userSpaceOnUse" class="tape__pattern"><g class="tape__circles" fill="#FF3636"><path d="m267.104 37.4999c0 20.7132 15.979 37.5045 35.689 37.5045 19.711 0 35.689-16.7913 35.689-37.5045s-15.978-37.50453936-35.689-37.5045402c-19.71-.00000085-35.689 16.7913402-35.689 37.5045402z" fill="#FF3636"></path><path d="m200.094 37.4999c0 20.7132 13.978 37.5045 31.22 37.5045 17.243 0 31.221-16.7913 31.221-37.5045s-13.978-37.50453927-31.221-37.50454001c-17.242-.00000074-31.22 16.79134001-31.22 37.50454001z" fill="#FF3636"></path><path d="m142.46 37.4999c0 20.7132 11.978 37.5045 26.753 37.5045 14.774 0 26.752-16.7913 26.752-37.5045s-11.978-37.50453919-26.752-37.50453982c-14.775-.00000063-26.753 16.79133982-26.753 37.50453982z" fill="#FF3636"></path><path d="m93.2645 37.4999c0 20.7132 9.9765 37.5045 22.2835 37.5045s22.284-16.7913 22.284-37.5045-9.977-37.5045391-22.284-37.50453963-22.2835 16.79133963-22.2835 37.50453963z" fill="#FF3636"></path><path d="m53.3851 37.4999c0 20.7132 7.9893 37.5045 17.8446 37.5045 9.8552 0 17.8445-16.7913 17.8445-37.5045s-7.9893-37.50453901-17.8445-37.50453944c-9.8553-.00000042-17.8446 16.79133944-17.8446 37.50453944z" fill="#FF3636"></path><path d="m22.0075 37.4999c0 20.7132 5.9887 37.5045 13.3761 37.5045 7.3875 0 13.3762-16.7913 13.3762-37.5045s-5.9887-37.50453893-13.3762-37.50453925c-7.3874-.00000031-13.3761 16.79133925-13.3761 37.50453925z" fill="#FF3636"></path><path d="m.0010798 37.4999c-.00000093 20.7132 3.9880602 37.5045 8.9076402 37.5045s8.90768-16.7913 8.90768-37.5045-3.9881-37.50453884-8.90768-37.50453905c-4.91957-.00000022-8.90763928 16.79133905-8.9076402 37.50453905z" fill="#FF3636"></path></g><animate attributeName="x" from="5000" to="0" dur="50s" repeatCount="indefinite"></animate></pattern><pattern id="83-pattern" x="0" y="0" width="344" height="75" patternUnits="userSpaceOnUse" class="tape__pattern"><g class="tape__circles" fill="#FF3636"><path d="m267.104 37.4999c0 20.7132 15.979 37.5045 35.689 37.5045 19.711 0 35.689-16.7913 35.689-37.5045s-15.978-37.50453936-35.689-37.5045402c-19.71-.00000085-35.689 16.7913402-35.689 37.5045402z" fill="#FF3636"></path><path d="m200.094 37.4999c0 20.7132 13.978 37.5045 31.22 37.5045 17.243 0 31.221-16.7913 31.221-37.5045s-13.978-37.50453927-31.221-37.50454001c-17.242-.00000074-31.22 16.79134001-31.22 37.50454001z" fill="#FF3636"></path><path d="m142.46 37.4999c0 20.7132 11.978 37.5045 26.753 37.5045 14.774 0 26.752-16.7913 26.752-37.5045s-11.978-37.50453919-26.752-37.50453982c-14.775-.00000063-26.753 16.79133982-26.753 37.50453982z" fill="#FF3636"></path><path d="m93.2645 37.4999c0 20.7132 9.9765 37.5045 22.2835 37.5045s22.284-16.7913 22.284-37.5045-9.977-37.5045391-22.284-37.50453963-22.2835 16.79133963-22.2835 37.50453963z" fill="#FF3636"></path><path d="m53.3851 37.4999c0 20.7132 7.9893 37.5045 17.8446 37.5045 9.8552 0 17.8445-16.7913 17.8445-37.5045s-7.9893-37.50453901-17.8445-37.50453944c-9.8553-.00000042-17.8446 16.79133944-17.8446 37.50453944z" fill="#FF3636"></path><path d="m22.0075 37.4999c0 20.7132 5.9887 37.5045 13.3761 37.5045 7.3875 0 13.3762-16.7913 13.3762-37.5045s-5.9887-37.50453893-13.3762-37.50453925c-7.3874-.00000031-13.3761 16.79133925-13.3761 37.50453925z" fill="#FF3636"></path><path d="m.0010798 37.4999c-.00000093 20.7132 3.9880602 37.5045 8.9076402 37.5045s8.90768-16.7913 8.90768-37.5045-3.9881-37.50453884-8.90768-37.50453905c-4.91957-.00000022-8.90763928 16.79133905-8.9076402 37.50453905z" fill="#FF3636"></path></g><animate attributeName="x" from="5000" to="0" dur="50s" repeatCount="indefinite"></animate></pattern></defs><pattern id="83-pattern" x="0" y="0" width="344" height="75" patternUnits="userSpaceOnUse" class="tape__pattern"><g class="tape__circles" fill="#FF3636"><path d="m267.104 37.4999c0 20.7132 15.979 37.5045 35.689 37.5045 19.711 0 35.689-16.7913 35.689-37.5045s-15.978-37.50453936-35.689-37.5045402c-19.71-.00000085-35.689 16.7913402-35.689 37.5045402z" fill="#FF3636"></path><path d="m200.094 37.4999c0 20.7132 13.978 37.5045 31.22 37.5045 17.243 0 31.221-16.7913 31.221-37.5045s-13.978-37.50453927-31.221-37.50454001c-17.242-.00000074-31.22 16.79134001-31.22 37.50454001z" fill="#FF3636"></path><path d="m142.46 37.4999c0 20.7132 11.978 37.5045 26.753 37.5045 14.774 0 26.752-16.7913 26.752-37.5045s-11.978-37.50453919-26.752-37.50453982c-14.775-.00000063-26.753 16.79133982-26.753 37.50453982z" fill="#FF3636"></path><path d="m93.2645 37.4999c0 20.7132 9.9765 37.5045 22.2835 37.5045s22.284-16.7913 22.284-37.5045-9.977-37.5045391-22.284-37.50453963-22.2835 16.79133963-22.2835 37.50453963z" fill="#FF3636"></path><path d="m53.3851 37.4999c0 20.7132 7.9893 37.5045 17.8446 37.5045 9.8552 0 17.8445-16.7913 17.8445-37.5045s-7.9893-37.50453901-17.8445-37.50453944c-9.8553-.00000042-17.8446 16.79133944-17.8446 37.50453944z" fill="#FF3636"></path><path d="m22.0075 37.4999c0 20.7132 5.9887 37.5045 13.3761 37.5045 7.3875 0 13.3762-16.7913 13.3762-37.5045s-5.9887-37.50453893-13.3762-37.50453925c-7.3874-.00000031-13.3761 16.79133925-13.3761 37.50453925z" fill="#FF3636"></path><path d="m.0010798 37.4999c-.00000093 20.7132 3.9880602 37.5045 8.9076402 37.5045s8.90768-16.7913 8.90768-37.5045-3.9881-37.50453884-8.90768-37.50453905c-4.91957-.00000022-8.90763928 16.79133905-8.9076402 37.50453905z" fill="#FF3636"></path></g><animate attributeName="x" from="5000" to="0" dur="50s" repeatCount="indefinite"></animate></pattern><pattern id="83-content" x="0" y="12" width="100%" height="75" patternUnits="userSpaceOnUse" class="tape__content"><g fill="#000"><text x="58" y="33" class="tape__text">Rock Werchter verwelkomt Casa Bacardi en The Towers by Jupiler • Party alert op The Hive • Duurzaamheid is een werkwoord in Werchter • North West Walls brengt de beste street art naar het Festivalpark • Vrijdagtickets uitverkocht! • Mumford &amp; Sons op Rock Werchter</text><path d="m17.0457 19.7676h-.7381v5.1251h.5336c1.3988 0 2.0371-.7918 2.0371-2.6775 0-1.7083-.561-2.4476-1.8326-2.4476z"></path><path d="m25.5975 12.2227c-14.1377 0-25.5975 5.8219-25.5975 13s11.4598 13 25.5975 13 25.5974-5.8219 25.5974-13-11.4622-13-25.5974-13zm-3.5631 16.3667v4.6905h-3.1567v-5.7869h-2.5707v5.7869h-3.1567v-16.112h3.4609c3.4858 0 5.473 1.6309 5.473 4.8179 0 1.6559-.4588 2.9821-1.7828 3.8488.9151.3321 1.7305 1.1988 1.7305 2.7523zm16.0102 4.6905h-6.5427c-.1272-4.5381-.2544-9.0763-.3566-13.5644h-.8901c-.1272 4.4607-.2793 9.0263-.4065 13.5644h-6.5153v-16.112h2.9522c-.0249 4.5381-.0773 9.0763-.1022 13.5645h1.349c.1271-4.4882.2792-9.0264.4064-13.5645h5.498c.1271 4.5381.3067 9.0763.4064 13.5645h1.3489c-.0249-4.4633-.0523-9.0264-.1022-13.5645h2.9522v16.112z"></path></g><animate attributeName="x" from="5000" to="0" dur="50s" repeatCount="indefinite"></animate></pattern><rect width="100000" height="75" fill="url(&quot;#83-pattern&quot;)" class="tape__rect-pattern"></rect><rect width="100000" height="75" fill="url(#83-content)" class="tape__rect-content"></rect></svg>