<svg xmlns:xlink="http://www.w3.org/1999/xlink" viewBox="2500 0 709.01 30.67" xmlns="http://www.w3.org/2000/svg" class="ribbon__svg" width="709.01"  height="30.67" ><defs><pattern class="ribbon__svg__pattern" id="ribbon-green-pattern" x="0" y="0" width="238" height="75" patternUnits="userSpaceOnUse">
    <path d="m0 0h2631v75h-2631z" fill="#A78EFF"></path>
    <g class="tape__circles" fill="#FD800C">
        <path d="m1.28 21.11v-11.5c-.82 1.78-1.28 3.71-1.28 5.75s.45 3.97 1.28 5.75z" fill="#5FCF5E"></path>
        <path d="m14.98 21.66v-12.62c-1.35 1.67-2.23 3.9-2.23 6.3s.9 4.64 2.23 6.3z" fill="#5FCF5E"></path>
        <path d="m28.67 22.23v-13.74c-1.87 1.57-3.2 4.08-3.2 6.87s1.34 5.3 3.2 6.87z" fill="#5FCF5E"></path>
        <path d="m38.2 15.36c0 3.17 1.77 5.97 4.15 7.44v-14.88c-2.39 1.46-4.15 4.27-4.15 7.44z" fill="#5FCF5E"></path>
        <path d="m50.94 15.36c0 3.54 2.2 6.64 5.1 7.99v-16c-2.9 1.35-5.1 4.45-5.1 7.99z" fill="#5FCF5E"></path>
        <path d="m63.67 15.36c0 3.92 2.64 7.31 6.07 8.56v-17.12c-3.44 1.25-6.07 4.64-6.07 8.56z" fill="#5FCF5E"></path>
        <path d="m76.4 15.36c0 4.29 3.07 7.98 7.02 9.13v-18.26c-3.95 1.15-7.02 4.82-7.02 9.13z" fill="#5FCF5E"></path>
        <path d="m89.14 15.36c0 4.67 3.5 8.65 7.97 9.68v-19.38c-4.47 1.05-7.97 5.01-7.97 9.68z" fill="#5FCF5E"></path>
        <path d="m101.87 15.36c0 5.05 3.94 9.3 8.94 10.25v-20.5c-5.01.95-8.94 5.2-8.94 10.25z" fill="#5FCF5E"></path>
        <path d="m114.6 15.36c0 5.43 4.37 9.97 9.89 10.82v-21.64c-5.52.83-9.89 5.37-9.89 10.82z" fill="#5FCF5E"></path>
        <path d="m127.32 15.36c0 5.81 4.8 10.64 10.84 11.37v-22.74c-6.04.73-10.84 5.56-10.84 11.37z" fill="#5FCF5E"></path>
        <path d="m140.07 15.36c0 6.19 5.24 11.31 11.81 11.94v-23.88c-6.55.63-11.81 5.75-11.81 11.94z" fill="#5FCF5E"></path>
        <path d="m220.3 5.79v-5.18c-5.69.06-10.71 2.62-13.7 6.48v-5.93c-5.9.15-11.03 3.12-13.69 7.44v-6.87c-6.27.25-11.58 3.86-13.7 8.87v-8.3c-7.42.41-13.39 5.84-13.69 12.56v-12.01c-7.09.52-12.76 5.93-12.76 12.49s5.67 11.98 12.76 12.49v-11.98c.28 6.71 6.27 12.16 13.69 12.56v-8.3c2.12 4.99 7.42 8.62 13.7 8.87v-6.87c2.65 4.32 7.79 7.29 13.7 7.44v-5.93c2.99 3.86 7.99 6.42 13.7 6.48v-5.18c3.22 3.51 8.14 5.75 13.7 5.75v-30.63c-5.54 0-10.48 2.24-13.7 5.75z" fill="#5FCF5E"></path>
    </g>
    <animate attributeName="x" from="5000" to="0" dur="120s" repeatCount="indefinite"></animate>
</pattern><pattern class="ribbon__svg__pattern" id="ribbon-green-pattern" x="0" y="0" width="238" height="75" patternUnits="userSpaceOnUse">
    <path d="m0 0h2631v75h-2631z" fill="#A78EFF"></path>
    <g class="tape__circles" fill="#FD800C">
        <path d="m1.28 21.11v-11.5c-.82 1.78-1.28 3.71-1.28 5.75s.45 3.97 1.28 5.75z" fill="#5FCF5E"></path>
        <path d="m14.98 21.66v-12.62c-1.35 1.67-2.23 3.9-2.23 6.3s.9 4.64 2.23 6.3z" fill="#5FCF5E"></path>
        <path d="m28.67 22.23v-13.74c-1.87 1.57-3.2 4.08-3.2 6.87s1.34 5.3 3.2 6.87z" fill="#5FCF5E"></path>
        <path d="m38.2 15.36c0 3.17 1.77 5.97 4.15 7.44v-14.88c-2.39 1.46-4.15 4.27-4.15 7.44z" fill="#5FCF5E"></path>
        <path d="m50.94 15.36c0 3.54 2.2 6.64 5.1 7.99v-16c-2.9 1.35-5.1 4.45-5.1 7.99z" fill="#5FCF5E"></path>
        <path d="m63.67 15.36c0 3.92 2.64 7.31 6.07 8.56v-17.12c-3.44 1.25-6.07 4.64-6.07 8.56z" fill="#5FCF5E"></path>
        <path d="m76.4 15.36c0 4.29 3.07 7.98 7.02 9.13v-18.26c-3.95 1.15-7.02 4.82-7.02 9.13z" fill="#5FCF5E"></path>
        <path d="m89.14 15.36c0 4.67 3.5 8.65 7.97 9.68v-19.38c-4.47 1.05-7.97 5.01-7.97 9.68z" fill="#5FCF5E"></path>
        <path d="m101.87 15.36c0 5.05 3.94 9.3 8.94 10.25v-20.5c-5.01.95-8.94 5.2-8.94 10.25z" fill="#5FCF5E"></path>
        <path d="m114.6 15.36c0 5.43 4.37 9.97 9.89 10.82v-21.64c-5.52.83-9.89 5.37-9.89 10.82z" fill="#5FCF5E"></path>
        <path d="m127.32 15.36c0 5.81 4.8 10.64 10.84 11.37v-22.74c-6.04.73-10.84 5.56-10.84 11.37z" fill="#5FCF5E"></path>
        <path d="m140.07 15.36c0 6.19 5.24 11.31 11.81 11.94v-23.88c-6.55.63-11.81 5.75-11.81 11.94z" fill="#5FCF5E"></path>
        <path d="m220.3 5.79v-5.18c-5.69.06-10.71 2.62-13.7 6.48v-5.93c-5.9.15-11.03 3.12-13.69 7.44v-6.87c-6.27.25-11.58 3.86-13.7 8.87v-8.3c-7.42.41-13.39 5.84-13.69 12.56v-12.01c-7.09.52-12.76 5.93-12.76 12.49s5.67 11.98 12.76 12.49v-11.98c.28 6.71 6.27 12.16 13.69 12.56v-8.3c2.12 4.99 7.42 8.62 13.7 8.87v-6.87c2.65 4.32 7.79 7.29 13.7 7.44v-5.93c2.99 3.86 7.99 6.42 13.7 6.48v-5.18c3.22 3.51 8.14 5.75 13.7 5.75v-30.63c-5.54 0-10.48 2.24-13.7 5.75z" fill="#5FCF5E"></path>
    </g>
    <animate attributeName="x" from="5000" to="0" dur="120s" repeatCount="indefinite"></animate>
</pattern></defs>
<pattern class="ribbon__svg__pattern" id="ribbon-green-pattern" x="0" y="0" width="238" height="75" patternUnits="userSpaceOnUse">
    <path d="m0 0h2631v75h-2631z" fill="#A78EFF"></path>
    <g class="tape__circles" fill="#FD800C">
        <path d="m1.28 21.11v-11.5c-.82 1.78-1.28 3.71-1.28 5.75s.45 3.97 1.28 5.75z" fill="#5FCF5E"></path>
        <path d="m14.98 21.66v-12.62c-1.35 1.67-2.23 3.9-2.23 6.3s.9 4.64 2.23 6.3z" fill="#5FCF5E"></path>
        <path d="m28.67 22.23v-13.74c-1.87 1.57-3.2 4.08-3.2 6.87s1.34 5.3 3.2 6.87z" fill="#5FCF5E"></path>
        <path d="m38.2 15.36c0 3.17 1.77 5.97 4.15 7.44v-14.88c-2.39 1.46-4.15 4.27-4.15 7.44z" fill="#5FCF5E"></path>
        <path d="m50.94 15.36c0 3.54 2.2 6.64 5.1 7.99v-16c-2.9 1.35-5.1 4.45-5.1 7.99z" fill="#5FCF5E"></path>
        <path d="m63.67 15.36c0 3.92 2.64 7.31 6.07 8.56v-17.12c-3.44 1.25-6.07 4.64-6.07 8.56z" fill="#5FCF5E"></path>
        <path d="m76.4 15.36c0 4.29 3.07 7.98 7.02 9.13v-18.26c-3.95 1.15-7.02 4.82-7.02 9.13z" fill="#5FCF5E"></path>
        <path d="m89.14 15.36c0 4.67 3.5 8.65 7.97 9.68v-19.38c-4.47 1.05-7.97 5.01-7.97 9.68z" fill="#5FCF5E"></path>
        <path d="m101.87 15.36c0 5.05 3.94 9.3 8.94 10.25v-20.5c-5.01.95-8.94 5.2-8.94 10.25z" fill="#5FCF5E"></path>
        <path d="m114.6 15.36c0 5.43 4.37 9.97 9.89 10.82v-21.64c-5.52.83-9.89 5.37-9.89 10.82z" fill="#5FCF5E"></path>
        <path d="m127.32 15.36c0 5.81 4.8 10.64 10.84 11.37v-22.74c-6.04.73-10.84 5.56-10.84 11.37z" fill="#5FCF5E"></path>
        <path d="m140.07 15.36c0 6.19 5.24 11.31 11.81 11.94v-23.88c-6.55.63-11.81 5.75-11.81 11.94z" fill="#5FCF5E"></path>
        <path d="m220.3 5.79v-5.18c-5.69.06-10.71 2.62-13.7 6.48v-5.93c-5.9.15-11.03 3.12-13.69 7.44v-6.87c-6.27.25-11.58 3.86-13.7 8.87v-8.3c-7.42.41-13.39 5.84-13.69 12.56v-12.01c-7.09.52-12.76 5.93-12.76 12.49s5.67 11.98 12.76 12.49v-11.98c.28 6.71 6.27 12.16 13.69 12.56v-8.3c2.12 4.99 7.42 8.62 13.7 8.87v-6.87c2.65 4.32 7.79 7.29 13.7 7.44v-5.93c2.99 3.86 7.99 6.42 13.7 6.48v-5.18c3.22 3.51 8.14 5.75 13.7 5.75v-30.63c-5.54 0-10.48 2.24-13.7 5.75z" fill="#5FCF5E"></path>
    </g>
    <animate attributeName="x" from="5000" to="0" dur="120s" repeatCount="indefinite"></animate>
</pattern>
<rect class="ribbon__svg__rect" width="5000" height="75" fill="url(&quot;#ribbon-green-pattern&quot;)"></rect>
</svg>