<svg xmlns:xlink="http://www.w3.org/1999/xlink" xmlns="http://www.w3.org/2000/svg" role="img" class="svg-icon -bacardi" width="86"  height="20" ><defs><symbol id="bacardi" viewBox="0 0 86 20"><g><path d="m29.5059 11.528c-.4721-.2846-.3783-.4624-.0129-.7437.6758-.5207.8957-1.25148.8569-2.07607-.0776-1.66211-1.3323-2.92001-3.1043-3.01379-1.2353-.0679-2.4803-.00646-3.7188-.04527-.5465-.0194-.6887.19079-.6823.70494.0227 1.77853.0097 3.55381.0097 5.33229v5.3324c0 .2748-.1067.6661.3687.6499 1.7429-.0582 3.5117.2393 5.2256-.2651 1.2288-.3622 2.0566-1.1641 2.2797-2.4673.2296-1.3517.0873-2.6064-1.2223-3.4018zm-3.2272-3.4471c.8116.02263 1.2482.40421 1.2385 1.13178-.0065.72758-.4463 1.09942-1.2773 1.08002-.3643-.0086-.5465-.40418-.5465-1.18673.1488-.3266-.3654-1.05418.5853-1.02831zm.9701 6.9427c-.2037.1132-.4592.1455-.6985.1876-.595.1067-.9475-.068-.8505-.7567.0292-.2102.0033-.4301.0033-.6468 0-.0549-.0129-.1131 0-.1616.1196-.3752-.3298-.9734.4042-1.1092.7955-.1487 1.5392.2264 1.7042.8731.1616.6435.084 1.2482-.5659 1.6104z"></path><path d="m67.0171 12.9929c-.2037-.3105-.0517-.456.1746-.6629 1.2611-1.1706 1.6362-2.8974.9636-4.59508-.6273-1.58773-1.9175-2.2765-3.5441-2.37351-1.1026-.06468-2.2118.0097-3.3177-.04204-.65-.03234-.8052.19725-.8149.82782-.042 2.71952.1261 5.43261.1779 8.14561v.8084c0 2.3121 0 2.2927 2.3444 2.2604.5562-.0065.6758-.207.6564-.7082-.0356-.8343-.0194-1.6718 0-2.5061.0032-.2393-.1391-.5918.249-.6661.3816-.0712.4818.2296.5918.5271.3427.9345.6984 1.8658 1.0574 2.7939.1034.2683.1681.5658.582.5529.7535-.0226 1.5102-.0097 2.2668-.0065.3363 0 .4495-.1325.304-.4462-.6015-1.287-.8957-2.7034-1.6847-3.9063zm-1.6589-2.8036c-.1617.5562-.6144.789-1.1415.8957-.4656.0938-.8019.0226-.734-.5853.0356-.3201.0065-.64348.0065-.96685 0-.21666-.0259-.43331.0064-.6435.0485-.3169-.2134-.78579.2199-.9216.5012-.15845 1.038-.0291 1.4067.38804.4785.54326.4268 1.19323.2425 1.83351z"></path><path d="m74.884 5.40331c-.6856-.10348-1.4002-.01617-2.0987-.01617v-.05174c-.5918 0-1.19.03557-1.7785-.0097-.5853-.04527-.7212.19402-.7179.74052.0194 3.57321-.0162 7.14638.1617 10.71968.0194.4106.1164.5788.5432.5691 1.2385-.0259 2.4867.0582 3.7188-.0485 1.2482-.1067 2.3735-.498 3.1334-1.6783 1.4293-2.2215 1.4422-4.5854.789-6.99445-.5077-1.85936-1.8464-2.94264-3.751-3.23367zm.7437 8.07769c-.2814.8473-.9572 1.2644-1.7785 1.2806-.401.0097-.5853-.1003-.5724-.5433.0291-.941.0097-1.8852.0097-2.8295 0-.9701.0162-1.94016-.0065-2.91026-.0097-.41715.1294-.5659.5595-.55296.8213.02587 1.5133.43655 1.7882 1.27083.4656 1.41959.4689 2.86829 0 4.28789z"></path><path d="m48.7364 14.5911c-.1099-.0776-.2296-.1455-.3266-.2393-.4107-.3848-.705-.3589-1.1254.0841-.9668 1.0186-2.5416.7146-3.1592-.5433-.3687-.7502-.4366-1.5457-.4172-2.1827-.0097-1.4066.1585-2.18272.5691-2.82622.5918-.9216 1.9208-1.25143 2.6516-.49475.595.62086 1.009.3557 1.5199.06467.2555-.14552.4753-.36541.7437-.47858.5368-.22636.4172-.51739.1617-.87633-.6952-.97657-1.6395-1.55863-2.8262-1.69445-2.5999-.2975-4.414.45919-5.3809 3.02996-.7761 2.0663-.7534 4.1811.0195 6.2442 1.1188 2.9944 5.135 4.0195 7.6056 1.979 1.2029-.9927 1.1997-1.1964-.0388-2.0695z"></path><path d="m56.3323 9.19033c-.5044-1.06388-.8246-2.21507-1.2385-3.32422-.0808-.21665-.1261-.51092-.4365-.50769-.3072 0-.346.28133-.4301.50769-.5238 1.40018-.9927 2.81977-1.4519 4.24579-.7308 2.2765-1.6039 4.5078-2.4673 6.7358-.2328.6014-.0647.6952.4818.6661.5368-.0291 1.0768-.0065 1.6169-.0065.2425 0 .5368.0356.5691-.2975.1035-1.025.8343-.9345 1.5489-.9118.291.0097.5886.0452.8763-.0744.5239-.2167.8311-.0065.941.5206.1003.4818.3719.6726.8602.6047.2393-.0323.485-.0065.7276-.0065h.5659c.6769 0 .8979-.3266.6629-.9798-.8731-2.4188-1.7203-4.844-2.8263-7.1755zm-1.7073 4.93137c-.5336-.0097-.6565-.1455-.4689-.6532.2069-.5627.236-1.1868.5465-1.8012.3654.5659.3654 1.1706.5594 1.7106.236.6468-.0517.7567-.637.7438z"></path><path d="m36.4035 6.06923c-.1003-.26839-.0744-.73404-.5206-.71464-.4107.0194-.401.45272-.5045.73405-1.2094 3.30481-2.4156 6.60966-3.6056 9.92096-.1843.5173-.4818 1.0056-.5335 1.7041.5206-.2684.9959-.2231 1.4648-.2037.7405.0323 1.2482-.0065 1.6524-.9087.346-.7761 1.452-.2069 2.2087-.3201.3072-.0453.7017-.0776.7599.3783.1099.8343.6564.9055 1.3322.8505.4269-.0356.8634-.0291 1.2903 0 .54.0356.6273-.0906.4268-.6306-1.3452-3.5991-2.6419-7.21432-3.9742-10.81663zm-.6791 8.01957c-.2652.0452-.6597.097-.5368-.4107.1585-.65.3331-1.2935.5465-2.1148.4333.7987.5594 1.5165.6855 2.2086.1035.5788-.443.2748-.6952.3169z"></path><path d="m11.3359 2.65131c-6.29276-1.51013-11.2726186 3.45033-10.991289 8.31379-.019402 1.3387.158438 2.6128.856909 3.8093 1.74295 2.9943 4.15205 4.7114 7.78346 4.6209 4.42372-.1132 7.93872-3.1981 8.57892-7.6832.4398-3.09143-1.5618-7.94194-6.228-9.06079zm2.8391 2.00811c.1197-.11641.2199.03881.2652.17139.0453.0485.1391.13258.1326.14228-.1035.14228-.1617.0097-.2328-.04851-.0906-.07114-.3105-.11964-.165-.26516zm-.4721-.45918c.0162.01617.0356.03234.055.05174-.0194.03233-.0388.0679-.0582.10024-.0162-.01617-.0517-.0388-.0485-.05174.0097-.03557.0323-.0679.0517-.10024zm-.1423-.03881c-.3298.03881-.4818-.0679-.5788-.29103.2555-.11318.3816.06144.5788.29103zm-6.22478-1.20939c1.73648-.35894 3.42448-.03234 5.08658.45918.194.05821.5562.07438.54.44625-1.232-.3169-2.4414-.74375-3.73489-.78902-1.06711-.0388-2.09219.14875-3.08816.50769-.19725.07114-.37835.21342-.65644.08407.55619-.45918 1.21587-.57882 1.84967-.7114zm-2.08249.80195c.0194 0 .04203-.00647.05497 0 .01616.0097.03232.04204.02909.05174-.03557.07437-.0776.07437-.10994 0-.00646-.01293.01618-.03557.02588-.05497zm-.32337.14875c.05497-.0194.16169.01293.10348.12288-.06467.12935-.18434.16492-.32015.15845-.09054-.20372.08409-.23929.21343-.28456zm-.60148.38481c.10995-.10671.21021-.26193.37836-.09701-.02587.17462-.15847.18755-.29752.18108-.07437.15522-.15521.29427-.33953.13258.01294-.15845.1326-.18755.25548-.21665zm-.79223.65967c.09377-.249.26838-.39451.53031-.43332.13581.2296-.18754.30397-.18754.48829-.09378.00323-.18756.0097-.28133.01294-.04851.04527-.09702.09054-.15199.12934-.00324 0-.03557-.03233-.05497-.0485.0485-.04851.09701-.09701.14552-.14552zm-.64352.65967c.04204-.05498.08408-.10995.12288-.16492.0291.0291.05822.06144.09055.09054-.05174.04204-.10348.08408-.15199.12612.02587.15521-.16491.30396-.03233.46241-.15522 0-.31043 0-.46565-.00323.04527-.25546.17785-.43978.43978-.51416zm-.65643.79872c.0097-.13905.03558-.26193.20696-.27163.18432.18755.0097.25869-.12288.346-.01293.12935-.02588.26193-.19079.2878-.13905-.16492-.01617-.26517.10671-.36541zm-.1164.37187c.00323.17138-.05821.30073-.23929.33953-.0097 0-.06469-.0873-.05499-.11641.04851-.13905.09379-.2975.29428-.22312zm.48828 9.24512c.47212-.0906.51738.6176.95716.4656-.12288.2619.24577.3589.21343.7502-.49475-.3686-.87632-.7017-1.17059-1.2126zm1.60713 1.4648c.26193-.1423.42684.1811.6629.1391.11318.2037.27487.2684.49476.1519.16815.5627.73728.4819 1.13179.6597.39774.1779.84399.249 1.39371.401-1.0186.2069-2.8424-.5045-3.67992-1.3517zm1.14472.2716v.0033c-.12935-.152-.28132-.2393-.48827-.1552-.28457-.5401-.88281-.7276-1.28702-1.1351-.42684-.5497-.85046-1.0962-1.2773-1.6459 0 0 0-.0032.00647-.0097.00323-.0065.00647-.0129.00647-.0129-.0097.0032-.01293.0032-.02264.0064 0 .0033.00324.0097.00648.013-.28133.3233.24898.5432.12933.844-1.881996-1.4972-2.270036-6.29601-.60469-8.51431-.15845 1.0186-.80841 1.83349-.57559 2.82299.2684-1.42281.84399-2.70012 1.69445-3.85777.3169-.36864.78901-.60793.94746-1.11239.97334-.40421 1.79468-1.09298 2.8424-1.38078 1.44221-.3945 2.84562-.37834 4.29432-.05497 1.3775.3072 2.5676.86663 3.4633 1.98871.0776.09701.2296.18109.3848.10025-.0873.18108.0356.3169.1358.44948 1.924 2.55137 2.0986 5.27409.7955 8.13919-.0647.1423-.1391.2813-.097.443-.3622.1455-.4657.5012-.6371.7987-.3622.4333-.8925.7243-1.1123 1.2805-.8893.3266-1.604.996-2.5288 1.2612-2.05986.5885-4.09059.6823-6.07284-.2846zm8.10037-.2037c-.0873.1003-.1973.1488-.3234.0582-.2684.5239-.7405.6629-1.2773.6759-.6111.4785-1.3096.5594-2.02749.5659-.01617-.068-.03235-.1326-.04852-.2005.68551-.1326 1.36781-.2684 2.05341-.401.3848-.3169.8149-.5303 1.3032-.6403.0291-.1584.1422-.1908.2748-.1746.0226 0 .0615.1003.0485.1164zm.1649-.2781c.0453.0097.0906.0162.1358.0259-.042.0323-.0841.0679-.1261.1002-.0032-.042-.0065-.084-.0097-.1228zm.7341-.3848c-.1617.1746-.317.3654-.5789.3945-.1649-.2425.2038-.3007.1908-.4915.0938 0 .1876-.0065.2781-.0065.0356-.084.0744-.2037.1843-.1099.11.0938-.0323.1487-.0743.2134zm.7825-.8504c-.0356.1649-.1067.2975-.3007.3007-.0194 0-.0615-.0323-.0615-.0485.013-.1779.1035-.2846.2814-.3137-.0421-.1487.1422-.291.0484-.4398.1488.0582.2975-.1713.4463-.0355-.0388.2554-.194.4203-.4171.5335zm.4204-.5401c-.2232-.3201.2781-.5012.1746-.7987.3137-.1164.2781-.5529.6564-.6952-.1131.6305-.401 1.0994-.831 1.4939zm.8116-1.6136c.6726-2.228.6791-4.43981-.1972-6.629 1.232 1.5942 1.3258 5.0478.1972 6.629zm-.2069-6.90387c.0161.05498-.0065.16492-.1197.10671-.1261-.06467-.1681-.17785-.1584-.3169.2037-.09377.2393.07761.2781.21019zm-.4236-.55619c.1778.06467.2845.15522.1358.3363-.1779-.0388-.1844-.16815-.1617-.31366-.2781-.12612-.4398-.33631-.4721-.64027.3718.03557.4883.28133.498.6144zm-.5174-.6338c-.1132.01617-.1391-.05497-.1488-.14875.0388-.01617.0776-.03234.1197-.04527.0097.06467.0194.12935.0291.19402zm-.1488-.15198s0 0 0-.00324c-.0517-.00646-.1067-.0097-.1584-.01616-.0097-.08731-.0194-.17462-.0291-.26517.0647.01617.1455.01617.194.05498.0905.07114.097.15845-.0065.22959z"></path><path d="m83.5249 11.2269c0-1.80444-.0161-3.60883.0097-5.40999.0065-.49475-.1519-.6435-.6435-.65967-.6241-.0194-1.2191.15845-1.827.16492-.4365.00646-.553.17462-.5465.57883.0194.941.0065 1.88523.0065 2.82623 0 2.42198-.0065 4.84728 0 7.26928.0032 1.1447.0582 1.19 1.1544 1.19.4042 0 .8117-.0226 1.2126.0065.4851.0356.6532-.1326.6435-.637-.0291-1.7753-.0097-3.5539-.0097-5.3291z"></path><path d="m84.3364.333496c-.5594.692004-.9022.908664-2.3089 1.455154-1.5166.58853-1.8431 1.30317-1.3613 3.03966.6629-.83753 1.5942-1.1997 2.5384-1.5457 1.2579-.45918 1.7365-1.70091 1.1318-2.949114z"></path><path d="m85.09 15.9426c-.3689-.0162-.6149.2686-.5922.6181.0194.2945.233.5405.5922.5696.3301-.0874.5891-.2265.5761-.644-.0129-.3852-.288-.5308-.5761-.5437z"></path><path d="m10.4726 13.265c.1358.1487.1293.4527.4107.4397.1164-.0064.2813-.0937.3298-.1907.1002-.2102-.1003-.3299-.2231-.4689-.3622-.4075-.2717-.8537-.0615-1.2806.1844-.3718.4624-.6984.9119-.7049.553-.0065.5465.5691.8117.831.2037.1973.6985-.4559 1.1479-.1325.0227.0161.0453.0355.055.0582.2329.595.4689 1.1738.8634 1.7041.1746.2328-.0129.7341-.0485 1.3355.7631-1.0671 1.1318-2.0501 1.2062-3.0914.1261-1.7559.249-3.54084-1.3517-4.84401-.5045-.41068-1.0122-.40098-1.3776.12934-.2878.42038-.54.86339-.8181 1.29347-.1164.18109-.152.5756-.4527.40098-.2684-.15198.0744-.35247.139-.53032.2458-.65321.7599-1.14149 1.2773-1.91757-.9054.32983-1.4422.78901-1.9498 1.30964-.3622.37187-.6985.92483-1.3356.33953-.28452-.26193-.32011-.53032-.1843-.86986.08731-.22312.2037-.48828-.01938-.67584-.21342-.17785-.41391.02911-.56913.15522-.26193.21342-.47536.18109-.71788-.0194-.13582-.11641-.29426-.31043-.49151-.17785-.21342.14551.00645.3363.02262.50768.0194.19402.02911.39128-.19725.47212-.23606.08408-.21666.26193-.21989.45918-.00647.21666.46242.38158.12612.5853s-.58207-.08731-.81489-.32984c-.60147-.62086-1.2579-1.16735-2.01458-1.60713-.53679-.31044-.55942-.01941-.58206.3557-.90542-.22312-1.33228.29426-1.65242 1.04124-.6241 1.44869-.83428 2.95232-.58206 4.50452.13258.8246.35894 1.633.97334 2.2927-.32983-1.0445.85046-1.5069.88603-2.3994.00323-.0906.23929-.2652.28456-.2425.76315.4009 1.19-.2781 1.76236-.5013.35247-.139.68876.0776.89895.3848.28457.4107.32337.8473.0194 1.2806-.11641.1681-.33306.3169-.15844.5626.08084.1132.20371.2135.33953.1617.21342-.0808.3072-.2878.37188-.4947.0485-.1585-.18756-.4204.09377-.4754.32013-.0614.32337.2781.44625.4721.26839.4334.33306 1.2256.86662 1.1997.59823-.0258.70494-.7825.88926-1.3161.07438-.2134.10674-.5077.4333-.5012.3687.0032.1294.3492.2555.4883zm-4.20702-3.93866c-.62087-.82135-1.2385-1.64271-1.85936-2.46083.96363.54326 1.42281 1.49073 2.03397 2.32178-.05821.04527-.1164.09378-.17461.13905zm3.46651 1.33226c-.21342-.5756-.85047-.88278-.89897-1.57478-.0291-.40098.11642-.54003.44948-.56913.04204-.00323.40422.0388.12289.27163-.10025.08407-.25872.22312-.0647.28456 1.01541.3266.47214 1.00242.38806 1.58772z"></path><path d="m7.61776 4.77313c.97657-.21989 1.94667-.15522 2.91674.0485.4722.10025.8343.05821.8181-.66937-.2522.20372-.3977.70494-.6823.08084-.0873-.19078-.78897-.3363-.98622-.19402-.68231.49476-1.41637-.19725-2.09867.19402-.14228.08085-.37834.01617-.40098.28133-.0291.35571.22313.31044.43009.26193z"></path><path d="m13.2312 16.2985c-.1164-.1456-.194-.3008-.3169-.3848-.1811-.1229-.262.0582-.3751.1713-.5271.5271-1.2871.6209-1.9112.9766-.0097.0065-.2134-.1746-.3071.0485-.0744.1746-.1682.3622-.0453.5336.0905.1293.249.0258.3751.0097.9054-.1261 1.5683-.7729 2.3703-1.1156.084-.0356.1358-.1488.2134-.2393z"></path><path d="m6.25303 16.9088c-.6532-.3201-1.36784-.5465-1.76235-1.2417-.11641-.2037-.27809-.207-.45918-.0453-.19402.1714-.25545.401-.07437.5562.6435.5497 1.51659.7567 2.11158 1.384.01294.0162.05176.0065.11643.0162.08408-.1293.20048-.2652.27162-.4236.07761-.1811-.08732-.1876-.20696-.2458z"></path><path d="m1.83604 14.4195c.09378.1778.09701.5368.46889.3977-.73081-1.3323-1.0542-2.7842-1.22558-4.2781-.05174 1.3516.12289 2.6613.75669 3.8771z"></path><path d="m8.72095 17.262c-.31717.1618-.96444-.0874-.91913.5081.05502.7056.60844-.3689.90619.1748.11974.2168.23948-.1942.29126-.3722.07768-.2654-.08738-.4078-.28156-.3107z"></path><path d="m6.72238 4.98985c.18447.01942.2395-.09709.24921-.24273.01618-.20389-.02913-.38189-.2848-.38189-.16182 0-.35277 0-.30746.23949.0356.18448.12621.35277.33981.38513z"></path></g></symbol></defs>
    <use xlink:href="#bacardi" fill="#FFFFFF"></use>
</svg>