<svg xmlns:xlink="http://www.w3.org/1999/xlink" xmlns="http://www.w3.org/2000/svg" role="img" class="svg-icon -bolt" width="130"  height="36" ><defs><symbol id="bolt" viewBox="0 0 130 36"><clipPath id="a"><path d="m0 0h130v36h-130z"></path></clipPath><g clip-path="url(#a)"><path d="m72.2125 22.2004c0 4.49-3.06 6.8-9 6.8h-15.15v-24.47997h14.65c5.72 0 8.67 2.23 8.67 6.58997.078 1.1875-.2552 2.3656-.9436 3.3362-.6884.9707-1.69 1.6748-2.8364 1.9938 3.06.82 4.61 2.73 4.61 5.76zm-18.5-7.92h8.93c2.16 0 3.2-.8 3.2-2.42s-1-2.51997-3.13-2.51997h-9zm12.78 7.34c0-1.69-1.12-2.52-3.35-2.52h-9.47v5.08h9.54c2.16 0 3.24-.83 3.24-2.56zm10.04-1.73c0-5.72 4.18-9.54 10.44-9.54s10.44 3.82 10.44 9.54-4.18 9.54-10.44 9.54-10.44-3.82-10.44-9.54zm15.37 0c0-3.09-1.91-5.07-4.93-5.07s-4.93 2-4.93 5.07 1.91 5.08 4.93 5.08 4.93-1.98 4.93-5.08zm10.6895-16.44997h5.4v25.55997h-5.4zm26.53 24.86997c-1.649.7874-3.462 1.1713-5.289 1.12-4.68 0-6.94-1.87-6.94-5.72v-8.82h-4.401v-4.11h4.401v-6.25997h5.399v6.25997h6.371v4.11h-6.371v7.7c0 1.73.751 2.42 2.621 2.42 1.14.0002 2.264-.2706 3.28-.79z" fill="#fff"></path><path d="m18 18v8.7l3.98 3.65 4.02 3.65 3.98-3.65 4.02-3.65v-8.7zm0 0v-8.7l-3.98-3.65-4.02-3.65-3.98 3.65-4.02 3.65v8.7z" stroke="#fff" stroke-linecap="round" stroke-linejoin="round" stroke-width="4"></path></g></symbol></defs>
    <use xlink:href="#bolt" fill-opacity="0" fill="#000000"></use>
</svg>