<svg xmlns:xlink="http://www.w3.org/1999/xlink" xmlns="http://www.w3.org/2000/svg" role="img" class="svg-icon -bonsai" width="164.3799"  height="39.993" ><defs><symbol id="bonsai" viewBox="0 0 164.3799 39.993"><g><path d="m26.75371 17.77459c-.6211 1.7017-2.2013 4.2852-6.2106 5.9456.1437.5932.2156 1.2016.2139 1.8119 0 3.8994-2.7602 6.4761-6.314 6.4761-.8956.0157-1.7841-.1607-2.6055-.5173-.8215-.3566-1.5567-.885-2.15596-1.5496-1.03509-1.0678-2.13919-3.4447-2.69124-4.7743-1.72515 3.4791.81427 8.5084.81427 8.5084 1.17675 2.4629 2.93363 4.6046 5.12023 6.2418.5038.0482 1.0144.0758 1.5182.0758 2.5973.0001 5.1474-.6938 7.3856-2.0096 2.2381-1.3159 4.0827-3.2058 5.3424-5.4736 1.2596-2.2678 1.8884-4.8308 1.8211-7.4231s-.8283-5.1194-2.2039-7.319c0 0-.0345.0069-.0345.0069z"></path><path d="m26.89171 11.037c-1.7321 1.2194-4.0024 1.433-6.114 1.1987-2.1115-.2342-4.2231-.8818-6.3623-1.1918s-4.4233-.248-6.28649.8336v-10.91284h-8.12892v19.66934c0 3.6582 0 7.4267 1.38012 10.8232.78172 1.9118 1.97996 3.6258 3.50776 5.0176 1.52779 1.3919 3.34681 2.4267 5.32503 3.0293-2.99625-2.2575-5.07641-5.5182-5.85863-9.1836-.54186-2.2324-.32333-4.5813.62106-6.6759.48714-1.0343 1.25476-1.9117 2.21584-2.5327.96109-.621 2.07721-.9608 3.22183-.9809 2.0702.062 3.9058 1.3779 5.9759 1.7499 2.7603.4685 5.6517-.9851 7.4527-3.1553 1.8011-2.1702 2.6843-4.9604 3.1812-7.7368 0 0-.1311.0482-.1311.0482z"></path><path d="m31.92241 25.6492v-.0551c0-2.8356.8422-5.6075 2.4201-7.9652 1.5779-2.3576 3.8207-4.1952 6.4446-5.2804 2.624-1.0851 5.5114-1.369 8.297-.8158s5.3443 1.9186 7.3526 3.9237c2.0083 2.005 3.376 4.5596 3.9301 7.3407s.2697 5.6638-.8172 8.2835-2.9274 4.8588-5.289 6.4342c-2.3615 1.5754-5.1379 2.4162-7.9781 2.4162h-.1587c-3.7608-.0181-7.3625-1.5177-10.0219-4.1728-2.6594-2.655-4.1614-6.2509-4.1795-10.0056zm20.5914 0c0-3.8374-2.705-6.3796-6.2451-6.3796s-6.2519 2.5422-6.2519 6.3796 2.7119 6.3865 6.2519 6.3865 6.2451-2.5422 6.2451-6.3865z"></path><path d="m91.26751 22.5627v16.6173h-8.1289v-15.4185c0-3.362-2.1185-4.9259-4.7201-4.9259-2.981 0-5.0374 1.7292-5.0374 5.5735v14.7709h-8.1289v-27.0547h8.1151v2.5422c1.46291-2.0049 4.1404-3.3001 7.7494-3.3001 5.4929.0345 10.15079 3.8926 10.15079 11.1953h.00002z"></path><path d="m117.87641 31.0644c0 6.2005-5.424 8.8667-11.269 8.8667-5.424 0-9.5434-2.0668-11.655-6.4347l7.02499-4.0028c.285.979.899 1.8302 1.738 2.411s1.853.8558 2.871.7788c1.953 0 2.926-.5925 2.926-1.6741 0-2.9762-13.3317-1.3779-13.3317-10.7682 0-5.8973 4.9887-8.8735 10.61971-8.8735 2.12-.0668 4.21799.4348 6.078 1.4526 1.859 1.0178 3.411 2.5146 4.494 4.3345l-6.901 3.734c-.759-1.3779-1.842-2.3768-3.636-2.3768-1.38 0-2.277.5374-2.277 1.5088-.014 3.0933 13.318 1.0265 13.31799 11.0437z"></path><path d="m149.47441 12.1253v27.0548h-8.129v-2.5422c-1.79401 2.0668-4.444 3.2931-8.08099 3.2931-7.09401 0-12.95201-6.2349-12.95201-14.2817s5.858-14.2474 12.95201-14.2474c3.63699 0 6.28699 1.2401 8.08099 3.3001v-2.5422s8.129-.0345 8.129-.0345zm-8.129 13.524c0-4.0579-2.71201-6.6001-6.452-6.6001s-6.44501 2.5422-6.44501 6.6001 2.705 6.6 6.452 6.6 6.44501-2.5422 6.44501-6.6z"></path><path d="m154.62241 4.87082c0-.96307.28601-1.9045.821-2.70535.53601-.80086 1.298-1.42517 2.18901-1.79403.89099-.36886 1.871-.46573 2.81799-.27835.946.18738 1.815.65062 2.498 1.33112.68201.68051 1.14799 1.54775 1.33701 2.49214.189.9444.093 1.92355-.27501 2.8137-.368.89014-.993 1.65134-1.79399 2.18738-.80101.53604-1.744.82285-2.709.82422-1.293-.00543-2.53101-.52013-3.446-1.43222-.91501-.91208-1.43201-2.14783-1.43901-3.43861zm.80701 7.25458h8.136v27.0548h-8.136s0-27.0548 0-27.0548z"></path></g></symbol></defs>
    <use xlink:href="#bonsai" fill="#FFFFFF"></use>
</svg>