<svg xmlns:xlink="http://www.w3.org/1999/xlink" xmlns="http://www.w3.org/2000/svg" role="img" class="svg-icon -cocacola" width="78"  height="25" ><defs><symbol id="cocacola" viewBox="0 0 78 25"><g><path d="m76.5831.97218c-2.3905 1.96338-4.9648 3.48781-8.2124 3.34545-.2195-.00889-.3767.05339-.522.21057-.4033.43302-.8126.86307-1.2189 1.29311-.1365.14533-.3055.29065-.1928.51012.086.16906.261.18388.4449.18981.516.0178 1.035.06229 1.6074.09788-.9965 1.95151-6.3973 7.50058-7.7675 7.98108.0237-.1127.0238-.2165.0653-.2937 1.4236-2.5387 2.9866-4.99145 4.5881-7.4175 1.0677-1.61637 2.4587-2.95693 3.8882-4.25299.4212-.37963.8334-.78001 1.3554-1.02321.169-.08008.35-.25506.5457-.10381.2017.15423.083.3648.0148.54275-.1512.39149-.3232.77408-.4745 1.16261-.0593.14829-.2313.31141-.0682.46266.1453.13347.3381.02966.4864-.04152.7533-.36183.8601-1.11515.9757-1.80025.1898-1.129983-.4122-1.643077-1.5244-1.358357-.7503.192778-1.4147.575367-2.0553 1.002447-2.3489 1.563-4.1581 3.64501-5.8545 5.87531-2.1325 2.80266-4.0514 5.72706-5.6707 8.85006-.089.172-.1898.3618-.3381.4745-.2402.1839-.6169.3084-.8334.175-.2906-.1809.0089-.4834.1068-.7059.3618-.8215.6317-1.6638.6079-2.5743-.0326-1.1952-.6939-1.7617-1.8803-1.6016-.7503.1009-1.4147.433-2.0434.8364-1.9397 1.2516-3.3188 3.0162-4.4933 4.9559-.7207 1.1893-1.2871 2.4557-1.4176 3.8645-.0712.777-.0327 1.5659.6762 2.082.6851.4982 1.4176.2699 2.1205 0 .2284-.086.4419-.2225.6525-.347 1.6105-.958 2.7909-2.343 3.8348-3.8615.3352-.4894.6436-.9965.9728-1.4889.2729-.4033.7593-.3618 1.0766-.2669.3856.1127.0742.4923 0 .7474-.1097.3796-.2669.7444-.3796 1.1211-.2758.949-.5783 1.8981-.4271 2.9094.1602 1.0737.9758 1.6283 2.0227 1.391.8868-.2017 1.5037-.8185 2.1562-1.388.2106-.1839.3381-.4893.7118-.519.0118.1602.0148.3025.0326.4449.1364 1.1685 1.1151 1.6846 2.3163 1.213.7889-.3085 1.3939-.9016 2.0731-1.4117.4538 1.7112 1.1003 1.9752 2.6752 1.1596 1.3524-.6999 2.34-1.8092 3.2832-2.954.697-.8452 1.4147-1.6875 1.9218-2.6929-.602-.1987-.9283.0148-1.2397.4656-.7444 1.0766-1.5155 2.1413-2.6099 2.9095-.2135.1483-.4479.4419-.7118.2491-.2907-.2135-.0327-.5012.0889-.7237.353-.6495.7208-1.2931 1.0974-1.9307 1.2101-2.0405 2.429-4.0721 3.6391-6.1126.0949-.1631.3618-.3648.0178-.5427-.4271-.2225-2.2807.0682-2.6841.4241-.3618-.433-.8126-.7177-1.4028-.7-.6941.0238-1.2872.3144-1.8478.6911-2.4201 1.6312-4.0513 3.9534-5.552 6.3795-.5486.8868-1.1448 1.7291-1.9011 2.4527-.2432.2343-.5249.5487-.9016.353-.3944-.2077-.3262-.6288-.2699-.9966.2165-1.4087.8038-2.69 1.4058-3.9623.0682-.1453.2225-.261.3589-.3589.9995-.7207 1.9604-1.474 2.8798-2.3074 2.4024-2.1799 4.7483-4.39534 6.5219-7.1417.1779-.27285.3677-.50123.7207-.5902 1.8684-.4686 3.4462-1.46512 4.855-2.74043 1.0114-.91644 1.8952-1.94558 2.4468-3.214953-.2788.17795-.5101.397418-.7562.599094zm-22.5907 17.00312c-.7237 1.213-1.5393 2.3519-2.6752 3.2179-.3826.2906-.8186.5576-1.2812.2402-.4686-.3203-.3589-.8512-.2314-1.2931.4597-1.56 1.3347-2.8946 2.3757-4.2322.4537.6584.9579 1.1567 1.6163 1.4799.2788.1365.3619.3085.1987.5843zm.8452-1.4859c-.1572.3084-.344.2728-.602.1512-.7178-.347-1.2338-1.1952-1.1063-1.8417.1602-.8038 1.0173-1.6253 1.7676-1.6906.5368-.0474.7148.1899.7 1.1033-.0445.7148-.3678 1.5067-.7593 2.2808zm8.5446 4.0157c.5072-1.5986 1.4473-2.9599 2.4082-4.3034.6911-.9669 1.4741-1.8536 2.3994-2.607.2491-.2016.5101-.4003.8482-.4241.2313-.0148.4538.0208.4627.353-.0386.0741-.0801.1661-.1305.2491-1.4236 2.2778-2.6752 4.6652-4.3657 6.771-.1839.2283-.3974.4419-.6228.6287-.2492.2076-.5487.3945-.8779.1958-.3619-.2195-.2195-.5546-.1216-.8631z"></path><path d="m15.9082 6.46504c-.5101.1127-1.0025.27583-1.4473.55165-2.7701 1.69645-4.79872 4.04241-5.93464 7.07641-.34107.9106-.47454 1.9605-.23431 2.9807.25803 1.0825 1.10329 1.6223 2.16505 1.3435 1.3643-.3618 2.4557-1.2011 3.3514-2.2273 1.0647-1.2219 2.0553-2.521 2.8472-3.9505.2135-.3856.6465-.5427.9402-.3826.3351.1839-.0594.5042-.1661.7355-.5072 1.1033-1.0381 2.1977-1.0232 3.4463.0118.8423.8541 2.3341 1.8032 2.3519.9431.0178 1.8922-.08 2.7463-.6584.9165-.6198 1.7143-1.3821 2.607-2.082.1839.3974.0119.7029-.0089 1.0084-.0741 1.1448.7741 1.8744 1.8952 1.6253.5398-.1216 1.0202-.3678 1.4651-.6911.3322-.2402.6525-.5012.9935-.7681.4538 1.4651 1.041 1.7973 2.2333 1.2753.3589-.1572.7-.3707 1.0173-.605 1.7261-1.2842 3.0637-2.9333 4.336-4.6445.0979-.1335.2758-.2847.1631-.4508-.1245-.1839-.3648-.092-.5546-.086-.2906.0089-.3944.2669-.5457.4537-.7177.8809-1.4117 1.7884-2.3163 2.4913-.3084.2403-.6673.7622-1.0469.4301-.3381-.2937.1156-.7089.3084-1.0292 1.5007-2.5002 3.0044-4.9974 4.5318-7.47979.3292-.53385.2046-.61987-.3737-.66139-1.0736-.07711-2.1887.40929-3.2327-.24913-.1631-.1038-.4835.00001-.7178.05932-1.0706.25803-1.8922.94017-2.69 1.64604-1.5897 1.40283-2.773 3.14675-4.078 4.79275-.9995 1.2605-2.0405 2.4943-3.4285 3.3544-.5309.3292-1.1685.5842-1.7291.1186-.5131-.4271-.4804-1.0588-.2788-1.649.8839-2.6129 2.352-4.82836 4.4903-6.58413.3292-.26989.697-.47156 1.1448-.46563.2491.00296.436.09194.4805.36183.0474.29065-.1246.38555-.3767.43301-.7563.13939-1.1033.69994-1.3227 1.35835-.1127.33807-.1335.72667.2046.94607.3144.2076.6733.1187.9698-.1097.6852-.53386 1.1419-1.22193 1.3495-2.0672.3351-1.37911-.5368-2.38155-1.9426-2.2036-1.4503.18388-2.5892.99355-3.5175 2.04049-.8987 1.01431-1.8981 1.85961-3.0904 2.48241-.1335.0682-.2699.1275-.4063-.0237.2699-.76226.5813-1.51854.6465-2.34304.1127-1.44436-.8126-2.25107-2.2184-1.94262zm-.7593 6.50106c-.6702 1.0766-1.4829 2.0257-2.4853 2.8057-.2907.2254-.6466.3707-.9461.1216-.261-.2165-.5902-.4627-.5487-.7711.1661-.8571.4182-1.5511.7682-2.2066.2313-.433.4893-.8541.7592-1.2664.2699-.4122.4864-.9935.872-1.1567.4241-.1809.6198.5635 1.0439.7356.0682.0267.1276.0741.1928.1127 1.0054.5961.9965.5902.35 1.6282zm1.394-2.337c-.089.1868-.2224.2906-.4627.2877-.9757-.0089-1.7261-1.10334-1.3316-1.99309.2254-.50715.602-.90754 1.0973-1.1626.7771-.39743 1.299-.05932 1.302.97279-.0356.58426-.2995 1.24565-.605 1.8952zm10.1817 4.7572c.175-.8423.5309-1.5779.9372-2.2837.9995-1.7439 2.2629-3.2921 3.6064-4.77798.2521-.28175.5576-.48937.8868-.66138.2195-.1127.4953-.20465.6999-.02077.2521.22541.0178.45971-.1008.65249-.9639 1.57782-1.9396 3.15264-2.9154 4.72454-.4419.7118-.8719 1.4355-1.4414 2.0613-.2847.3144-.5872.608-.9817.7711-.4567.1868-.7355-.0297-.6881-.4627z"></path><path d="m48.2383 13.8205c-.0593-1.4562-.9016-2.088-2.3163-1.7736-3.1289.697-5.0389 4.4132-5.1843 7.3375.9165-.8275 1.7291-1.5482 2.7168-2.0109.3974-.1868.5694-.4597.6851-.8808.2877-1.0647.8156-2.0108 1.6342-2.7701.3618-.3351.8007-.5754 1.2782-.3529.4686.2194.347.7118.3381 1.124-.0029.172-.0296.347-.0712.5131-.5931 2.3638-1.9366 4.253-3.7428 5.8338-.5576.4864-1.1834.8927-1.913 1.1063-.9669.2847-1.7409.0207-2.34-.7919-.5962-.8067-.439-1.6965-.2699-2.5684.6406-3.3514 2.2896-6.2342 4.2648-8.9509 1.6935-2.32521 3.651-4.41908 5.8516-6.26975.9817-.8245 2.0879-1.50368 3.3543-1.84179.2225-.05931.5547-.23429.6674.03263.1186.28175-.2581.36776-.4449.49233-1.9456 1.30496-3.3099 3.08446-4.2263 5.21392-.4746 1.10032-.3826 2.03753.1809 2.48537.5546.44189 1.6045.36779 2.4972-.2699 2.343-1.67272 3.645-3.95641 3.8615-6.83622.0594-.77705.1899-.92832.9966-.81265 1.0884.15719 2.1087.53089 3.0518 1.09439 1.2931.77112 2.5714 1.57486 3.8556 2.36081.2283.13939.4745.35886.7296.0949.5279-.55165 1.0321-1.12701 1.5363-1.69942.1097-.12456.2135-.26099-.0505-.39741-1.4058-.71774-2.7789-1.49479-4.1996-2.17693-1.7617-.845261-3.6005-1.0291419-5.4779-.388523-.5605.192779-1.0587.287683-1.5867-.1216-.2876-.225403-.691-.231328-1.0677-.243191-1.6756-.059317-3.1497.599096-4.5584 1.370214-2.2719 1.23971-4.1551 2.95692-5.8902 4.88175-1.9485 2.15912-3.7102 4.43987-5.0597 7.01417-1.0232 1.9545-1.907 3.9772-1.8803 6.249.0267 2.3163 1.4473 3.909 3.7013 4.1047.9699.0831 1.9338-.1186 2.7701-.6525 1.7677-1.1299 3.3099-2.512 4.4547-4.2826 1.0262-1.5867 1.9367-3.2298 1.8596-5.2169zm5.8754-11.40065c.1631.11863.0385.36775.0177.55757-.3025 2.64848-1.5985 4.66228-3.8971 6.0058-.7236.42411-1.1803.1216-1.1299-.78001.0296-.1127.0474-.34403.1423-.53681 1.0084-2.03456 2.3104-3.83186 4.2768-5.05674.1749-.10974.3766-.347.5902-.19278z"></path><path d="m32.8218 23.6873c-3.2831-3.2209-7.2544-4.0839-11.6913-3.4848-2.5061.3381-4.858 1.2782-7.3315 1.7379-1.9901.3708-3.95048.9135-6.00283.8661-2.76712-.0653-4.57035-1.999-4.29156-4.7127.22243-2.174.87789-4.2501 1.9011-6.1779 1.45029-2.72852 3.38105-5.10415 5.59949-7.24251 1.1982-1.15667 2.5032-2.17395 4.1136-2.71076.4034-.13347.8156-.23134 1.2338-.08601.2758.0949.4478.28471.4626.60206.0178.3648-.252.35886-.4863.41818-.6851.16905-1.0915.63172-1.3465 1.26641-.1661.41818-.2225.84823.1394 1.16557.4004.34701.8541.17498 1.2397-.07118.5635-.36183.869-.9372 1.1329-1.5274.8334-1.87737-.2699-3.384007-2.3074-3.164535-1.0173.109735-2.0019.364793-2.9095.821535-5.34143 2.69297-9.31267 6.66421-11.385787 12.36454-.619858 1.7053-1.0143 3.4522-.8571107 5.291.3292067 3.8348 3.2446177 5.4067 6.3972977 5.2347 3.7191-.2046 7.2247-1.5986 10.8935-2.1354 2.6544-.3885 5.0834-.2135 6.9281 2.0286.2551.3115.3589.264.5932-.0177.7504-.8928 1.7558-1.2457 2.9006-1.2338.7681.0089 1.5215.1186 2.2748.2728 1.1626.2373 2.2184.7652 3.3603 1.2457-.0979-.3945-.3648-.5517-.5665-.7504z"></path><path d="m38 8.75766c.3648-.15126.9046.22837 1.2397-.29955.3173-.50123.6228-1.00838.9372-1.50961.1246-.19871.1868-.33514-.1364-.41225-1.1834-.27879-2.0435.05636-2.693 1.10033-.2017.32327-.6436.67917-.4567 1.01135.1512.26692.688.04448 1.1092.10973z"></path></g></symbol></defs>
    <use xlink:href="#cocacola" fill="#FFFFFF"></use>
</svg>