<svg xmlns:xlink="http://www.w3.org/1999/xlink" xmlns="http://www.w3.org/2000/svg" role="img" class="svg-icon -deloitte" width="66"  height="13" ><defs><symbol id="deloitte" viewBox="0 0 66 13"><g><path d="m9.51876 3.27379c-.9867-1.8239-2.64615-2.489162-4.5722-2.623712-1.24085-.084717-2.49416-.024913-3.73999-.027405-.807301 0-.877068.057303-.882051.882047-.009967 1.72174-.002492 3.44597-.002492 5.16771v5.22997c0 .3813.032392.7151.548166.7102 1.268257-.0175 2.536517.0099 3.802277-.0374 1.88619-.0698 3.4684-.765 4.53982-2.387.81971-1.24587 1.01411-2.66113.96921-4.10131-.0299-.96676-.18434-1.93105-.66274-2.8131zm-3.12455 5.38698c-.45348.90946-1.73669 1.48253-2.69847 1.18604-.27408-.08472-.25415-.29153-.25415-.49584-.00249-.93189 0-1.86128 0-2.79316 0-.90946.01246-1.8214-.00498-2.73086-.00748-.3887.11461-.54069.53321-.54817 1.71925-.02741 2.65114.76246 2.77572 2.46676.07226.98669.11711 1.98086-.34883 2.91523z"></path><path d="m60.9096 6.37701c-.1395-1.06394-.5955-1.96841-1.5249-2.58385-1.3007-.86212-2.7284-.75249-4.1387-.47342-.73.14451-1.3031.62541-1.779 1.25331-.5631.74003-.8322 1.56975-.9668 2.44432-.2741 1.77656.147 3.34383 1.6445 4.47253 1.5025 1.1312 3.2342 1.0889 4.941.7201 1.4227-.3065 1.3779-.4535.9942-1.8862-.1844-.68768-.5183-.64284-.9768-.45596-.7026.28906-1.4302.24166-2.1503.18936-.4734-.0349-.8471-.31643-1.1088-.7151-.2616-.40116-.1545-.62043.3314-.63289.7052-.01994 1.4128-.00497 2.1179-.00497v-.00499c.6852 0 1.3705-.01495 2.0557.00499.4335.01245.6079-.17194.6005-.58805-.0125-.58056.0373-1.16858-.0374-1.73918zm-2.9501-.02491c-.0922.23173-.3289.2093-.5358.21428-.2068.00249-.4136 0-.6179 0-.1246 0-.2492.01246-.3712 0-.2318-.02741-.5507.10715-.6603-.18438-.1147-.30647.1445-.55564.3289-.74999.4011-.42358 1.3106-.34884 1.6843.09966.1495.1794.2666.3887.1744.62291z"></path><path d="m17.4172 3.86401c-.9767-.36379-1.951-.36876-2.9402-.30398-1.2358.08223-2.1951.6877-2.8429 1.74666-.5208.85464-.7351 1.7915-.6578 2.70096-.1321 2.23755.8945 3.67515 2.1851 4.28065 1.7567.8223 3.5183.4186 5.2575-.0897.4036-.1196.5531-.4485.3239-.8895-.1097-.2118-.152-.4759-.1645-.7201-.0324-.5631-.3663-.68768-.8023-.5133-.5282.2093-1.0889.2318-1.6295.3613-.5681.1346-1.1113-.0124-1.5598-.4211-.2093-.18934-.3862-.4111-.2891-.70262.1047-.31395.4087-.23422.6429-.22923 1.3056.02242 2.6013-.2093 3.9094-.13455.4311.02492.6304-.20681.6503-.64534.0399-.85714-.0149-1.71177-.299-2.51409-.3064-.87457-.8172-1.56227-1.7815-1.92107zm-.887 2.95263c-.1022.25913-.3389.18437-.5357.19434-.1869.00997-.3713 0-.5582 0-.1868 0-.3712.00498-.5581 0-.2218-.00498-.4934.0623-.5955-.20929-.1047-.27657.0324-.51827.2242-.72508.5582-.60049 1.3655-.54567 1.8663.11462.147.19435.2517.38372.1595.62292z"></path><path d="m28.8718 3.40231c-1.5199-.06479-2.3172.33886-2.833.86958-1.5647 1.61211-1.7815 3.61293-1.1187 5.61373.9842 2.97258 4.2707 3.33388 6.3886 2.22508 1.6594-.8696 2.0456-2.43688 2.1104-4.19849.0798-2.23253-1.9584-4.78648-4.5473-4.50741zm1.1686 6.11703c-.1295.44352-.4684.74256-.9543.76746-.4485.0224-.7674-.1944-.9991-.59553-.309-.53571-.2891-1.11128-.3015-1.72423.0224-.54069-.02-1.11876.299-1.65198.2566-.42856.6005-.59801 1.0838-.55316.4784.04485.755.34885.8871.75748.3164.99418.2766 2.00828-.01 2.99996z"></path><path d="m44.2585 9.89326c-.2043.02741-.4136.03239-.6204.04485-.4834.02492-.7575-.19683-.7475-.69018.0174-.84717-.1919-1.67939-.1495-2.53154s.0374-.87706.882-.88205c1.0092-.00498 1.054-.04235 1.0441-1.05646-.01-1.22839.2217-1.54982-1.3431-1.42524-.4385.03488-.5905-.18687-.578-.59799.0149-.49584-.0249-.99668.0099-1.49252.0349-.490858-.1893-.640355-.6254-.57308-.735.114617-1.4725.231728-2.2051.36129-.299.05233-.3837.28654-.3837.55814-.0025.43604-.005.86958-.005 1.30563 0 .23421-.0747.44601-.3389.42358-.7126-.06727-.6951.39369-.6827.87707.01.37375 0 .7475.005 1.11876.005.27657.0947.5058.4261.49085.5332-.02492.5506.30648.6055.72009.1495 1.13371.0672 2.26992.142 3.40363.0324.50081.1794.98421.4211 1.41521.5631 1.0067 1.5324 1.1662 2.5689 1.1238.2691 0 .5506.0498.8073-.0075 1.642-.3663 1.6594-.2093 1.652-1.7865-.005-.92193 0-.91944-.8821-.79984z"></path><path d="m50.9933 9.98051c-.8372.20929-1.3381-.14702-1.3655-1.00166-.0224-.66278 0-1.32556-.0074-1.99084-.0175-1.45513.0797-1.25082 1.2034-1.22591.471.00997.7077-.15946.6728-.65032-.0125-.16445 0-.33139 0-.49833 0-1.18852 0-1.20846-1.1786-1.20098-.5008.00249-.7325-.15199-.7001-.67773.0299-.49584-.01-.99417.0099-1.4925.0175-.453486-.2018-.600503-.6104-.538211-.6753.10465-1.3505.216774-2.0258.326411-.3563.0573-.4709.30149-.4734.62541-.005.41361-.0074.82972-.005 1.24333 0 .28904-.0971.5083-.4161.49834-.5506-.01744-.6627.29652-.6428.75747.0149.35133.0124.70514 0 1.05647-.01.33388.1495.53072.4709.52573.4859-.00498.5905.26662.5905.67525 0 1.07391.0274 2.14532.1147 3.21923.1644 2.00823 1.1162 2.91773 3.137 2.83803.2691-.01.5357-.0548.8023-.0997.9285-.1561 1.3895-.706 1.3828-1.6495-.0049-.84216-.1395-.94431-.9567-.73999z"></path><path d="m23.4398.958595c-.0149-.386208-.1869-.495844-.5457-.485877-.6229.017441-1.2483.03737-1.8662-.004988-.5457-.037375-.6728.196843-.6653.6877.015.88703.0698 1.76909.1146 2.65363.0673 1.28072.0175 2.5689.0175 3.8546 0 1.38786.0099 2.77824-.005 4.16604-.005.4685.1395.6877.6453.6628.6205-.0324 1.2459-.0224 1.8688-.0025.3986.0125.5656-.147.5656-.5432-.005-3.66272.0274-7.32546-.1271-10.988205z"></path><path d="m36.8549 3.34278c-.5881-.03737-1.1462.152-1.7267.14203-.7675-.01495-.8024.04484-.8223.80231-.0424 1.63453.2567 3.2616.1271 4.6046 0 1.12628.0199 1.95598-.0075 2.78568-.0174.5058.1819.735.6827.7301.6229-.0075 1.2459-.0025 1.8688 0 .4609 0 .6478-.2019.6628-.6852.0697-2.59138-.157-5.17525-.1321-7.76658.005-.46843-.2243-.58303-.6528-.61044z"></path><path d="m63.3539 8.87174c-.9369-.06727-1.784.82474-1.7865 1.76656 0 .9942.7624 1.7616 1.7616 1.7641 1.0565.005 1.6445-.6079 1.6719-1.7043.0299-1.26075-.6553-1.7541-1.647-1.82636z"></path><path d="m35.3611 2.52777c.3762.00748.73-.10465 1.0988-.12708 1.0266-.06727 1.0266-.06228 1.0216-1.09632 0-.10216-.005-.2068-.0025-.308963.0125-.540691-.3164-.715109-.7649-.607967-.4535.107142-.8995.102152-1.353.102152-.9817.004983-1.0191.039869-1.0216.999158-.005 1.03155-.005 1.0166 1.0241 1.03902z"></path></g></symbol></defs>
    <use xlink:href="#deloitte" fill="#FFFFFF"></use>
</svg>