<svg xmlns:xlink="http://www.w3.org/1999/xlink" xmlns="http://www.w3.org/2000/svg" role="img" class="svg-icon -demorgen" width="80"  height="16" ><defs><symbol id="demorgen" viewBox="0 0 80 16"><g><path d="m35.7513 12.121c-.5842-.1204-.8101-.4607-.8071-1.066.0211-2.96001.0121-5.92007.0061-8.88013 0-.46674.0933-.84315.6353-.94553.2048-.03915.524-.06324.4577-.352316-.0602-.258967-.3764-.186696-.5932-.186696-1.2316-.006022-2.4632.033125-3.6918-.018067-.6414-.027101-.9244.201743-1.1292.797969-.5721 1.66522-1.2165 3.30334-1.879 5.07998-.1385-.30715-.2319-.48179-.2981-.66548-.542-1.50863-1.1021-3.00825-1.608-4.52893-.1717-.520944-.4336-.677519-.9757-.686553-1.355-.027101-2.692.268004-4.0471.171644-.1686-.012045-.4035-.042164-.4547.162599-.0692.27704.2018.3192.3824.3463.6384.10239.7709.50589.7589 1.08405-.0271 1.25267 0 2.50836-.0121 3.76104 0 .29209.0874.60225-.2138 1.01479-.3162-.92746-.4125-1.81578-1.0148-2.48428-.6353-.70463-1.4213-1.09007-2.3638-1.1804-.8823-.08432-1.7556-.08732-2.6047.2138-2.2705.80099-3.3967 3.03231-2.948 5.83579.3162 1.96632 1.8368 3.23112 3.9718 3.30942 2.3066.0813 4.1013-.789 4.4326-2.2464-.6896.2951-1.3521.4938-2.0507.554-1.3069.1145-2.2102-.2951-2.6619-1.25567-.2259-.4818-.2741-1.00574-.3494-1.5297-.0843-.57515.1024-.72271.6716-.72572 1.602-.00904 3.21.12045 4.8089-.06926.3704-.04516.3132.24693.3162.45169.012.85219-.012 1.70738.0121 2.55956.021.6956-.0121 1.328-.8763 1.4966-.1416.0271-.2259.1415-.2229.268.0061.1716.1687.1506.2861.1506.8281.003 1.6592.003 2.4873 0 .1476 0 .3343.024.3614-.1747.0271-.1957-.1476-.2349-.2982-.262-.8311-.1505-.9636-.7287-.9575-1.4544.021-2.10789.006-4.21275.012-6.32063 0-.22584-.0783-.48481.1446-.71366.2619.16562.2981.43363.3733.65044.8432 2.41201 1.6653 4.83003 2.5114 7.23905.1205.3433.0994.8311.7047.816.545-.012.536-.4426.6564-.7678.9305-2.51444 1.8489-5.03184 2.7734-7.54623.0753-.20778.0933-.46372.3945-.60826v7.94369c0 .5812-.4788.6323-.8733.7678-.1446.0512-.3132.0814-.259.2831.0392.1506.1897.1415.3132.1415h5.7274c.1445 0 .3312.0061.3252-.2107-.006-.2018-.1957-.2018-.3373-.2289zm-18.2241-5.0107c-.9004.06323-.8914.06324-.8402-.86122.0271-.50288.0934-.99973.265-1.46647.1536-.41556.4457-.7468.9425-.7197.518.0271.7017.41857.798.85219.0482.21681.0542.44568.0843.66851.1225.94955-.2951 1.45843-1.2526 1.52669z"></path><path d="m57.8537 9.69417c-1.1051-.00301-2.2102.01206-3.3154-.00902-.3794-.00602-.8822.06323-.825-.57516.0602-.68054.5269-.34328.8491-.2951 1.4394.21079 2.8758.28908 4.1405-.58418.816-.5631 1.2978-1.28279 1.084-2.409-.1505-.78895-.6895-1.27677-1.1081-1.88806.4607-.23488.7257-.12345.8853.28909.1174.30112.3192.5089.6595.54202.5751.0542.9967-.13852 1.1111-.75281.1145-.60828-.3131-1.2045-.9003-1.3129-.7318-.13551-1.3099.19874-1.8429.6173-.2831.21982-.5119.27704-.8793.17466-1.7074-.47578-3.3756-.50589-4.8722.64441-.1867.14454-.2891.18367-.4607-.07229-.7047-1.04189-1.9212-1.14427-2.8637-.29509-.2229.19874-.3915.51191-.7559.52395-.1746-1.11115-.1806-1.14126-1.3008-1.01177-.9395.1084-1.9001.09334-2.8035.44565-.1325.0512-.3403.00001-.3824.17466-.0482.20477.1506.30715.2891.39146.3945.23488.7166.46373.7197 1.01479.015 1.93021.0542 3.86044-.0211 5.79062-.0181.4638-.1807.7619-.6444.8703-.1416.0331-.3252.0662-.3072.2619.0181.2048.2048.1837.3493.1837h4.7458c.1445 0 .3312.0241.3493-.1837.018-.2017-.1596-.2168-.3102-.2469-.4005-.0783-.7106-.2379-.7076-.7227.003-1.882 0-3.76102 0-5.64305 0-.28005.0783-.49083.3824-.56009.2861-.06324.4998.02107.6203.28907.3884.87928 1.0961 1.05092 1.9332.82809.3554-.09636.4427-.01807.4487.31919.0151.67753.3493 1.19849.8793 1.58694.3162.23186.268.37339.0211.63235-1.3461 1.4183-1.2497 2.5325.28 3.7008-.0602.1386-.1897.1355-.3101.1687-.9666.283-1.4454.7889-1.4334 1.5056.009.7167.5059 1.2075 1.4454 1.5116.6083.1958 1.2346.25 1.8549.2861 1.5749.0873 3.1137-.0843 4.4777-.9696 1.2226-.795 1.8038-2.3036 1.4184-3.5985-.3343-1.1262-1.2045-1.617-2.8968-1.62303zm-2.0145-5.94119c.4246-.01204.6534.28306.6836.65645.0542.69259.3975 1.34904.28 2.06572-.0361.42157-.0482.84918-.1114 1.26774-.0602.37942-.2801.65646-.7016.64441-.3825-.01204-.5933-.268-.6384-.62333-.0603-.46975-.0783-.94554-.1054-1.4183-.0331-.61731-.0753-1.23462-.0783-1.84892 0-.42458.2168-.73172.6745-.74377zm2.3849 11.00312c-1.1141.6685-2.3247.7618-3.5232.2981-.7076-.274-.9756-1.611-.5601-2.2464.1386-.2108.3283-.1987.524-.1987.4999-.003.9998 0 1.4996 0 .4758.003.9516-.0211 1.4243.012.4939.0331.9667.1897 1.0931.7378.1235.536.0602 1.087-.4607 1.3972z"></path><path d="m8.00248.936756c-2.29457-.219821-4.60118-.144524-6.89877.054219-.171637.015055-.400493-.021087-.433617.198735-.033124.21681.186692.28909.352307.31017.70163.09636.78593.58417.78292 1.15631-.00903 1.37915.00002 2.7583-.00299 4.13745 0 1.45443-.00603 2.90886 0 4.36326.00301.53-.13251.9365-.71067 1.0751-.177667.0421-.475773.0451-.406514.3252.060225.2529.340264.1475.523954.1475 1.80976.006 3.61652.0061 5.42628.0061 3.3455 0 4.83302-1.0209 6.01952-4.14052 1.4333-3.76105-.6776-7.26012-4.65242-7.639534zm.32823 9.738344c-.17766.6174-.59021 1.1022-1.23462 1.331-.77389.274-1.30086-.0662-1.3129-.8883-.01807-1.50563-.00603-3.00825-.00603-4.51387 0-1.47852.01506-2.96006-.01204-4.43858-.00903-.45771.1355-.60827.59321-.6173 1.07201-.02108 1.70438.30414 1.98744 1.34302.70162 2.58667.73173 5.19741-.01807 7.78403z"></path><path d="m73.6958 12.0937c.0575.0242.1151.0394.1696.0454.0515.0061.1121-.0091.1726-.0363-.0242-.0061-.0454-.0091-.0696-.0152-.0818-.0181-.1727-.0121-.2726.0061z"></path><path d="m79.0708 11.8257c-.3192-.1174-.6805-.1686-.6896-.6534-.018-.9938-.1957-1.97542-.1566-2.97817.0392-1.02382.0452-2.05669-.0361-3.07751-.1114-1.43335-.9003-2.0627-2.3397-2.06872-1.1714-.00603-2.0959.58117-3.1378 1.24666-.021-.3222-.0572-.51793-.0451-.71065.0271-.39146-.1325-.55709-.527-.51493-1.1714.12346-2.3428.23788-3.5141.35532-.1506.01506-.3343.02711-.3764.18971-.0422.16261.1174.25596.2439.34028.4005.268.81.54202.7799 1.10512-.1024 1.94828.2258 3.88451.1626 5.83279-.015.4637-.1777.7619-.6203.9094-.1536.0512-.4096.0301-.3734.277.0421.2951.3162.1807.4908.1837 1.3039.0091 2.6078-.006 3.9116.0121.2891.003.5933-.1295.8492-.1747-.4125-.1686-.8582-.7558-.8582-1.2135.006-1.71943-.2529-3.42982-.1566-5.15225.0241-.41857-.0963-.84316.5932-.85521 1.0088-.01505 1.316.11141 1.4304.804.012.07528.021.15056.021.22283v1.78868c-.1355.93951.2229 2.06875.1566 3.21605-.0241.4095-.4938 1.0449-.8491 1.2015 1.6592.3704 3.3274.0391 4.9866.1565.1234.0091.268.0061.3071-.1475.0512-.2048-.1144-.2349-.2589-.2891z"></path><path d="m44.8632 6.71874c-.3463-1.62005-1.4424-2.69506-3.0444-3.11965-1.9031-.50589-3.758-.40952-5.2998 1.00275-1.3641 1.25268-1.7525 3.59543-.9907 5.45036.7167 1.7435 2.3368 2.7071 4.547 2.7071 3.5473.1717 5.4624-2.87875 4.7879-6.04056zm-3.6617 4.35426c-.0933.5932-.3011 1.0991-1.072 1.1082-.7528.009-.9816-.4638-1.1412-1.054-.2741-1.0057-.1837-2.03558-.2078-3.05941.0211-1.02382-.0783-2.05368.2168-3.05642.1566-.53902.3192-1.069 1.0479-1.07201.7498-.00301 1.0118.50589 1.1172 1.09309.3643 2.0085.3613 4.02604.0421 6.04055z"></path><path d="m68.7363 10.3809c-.1355-.2048-.3132-.0572-.4637.015-.533.2439-1.1052.3252-1.6803.3764-1.4816.1325-2.1711-.1656-2.5837-1.11413-.2409-.55708-.3493-1.14126-.3643-1.75254-.0091-.35533.0903-.51793.4547-.47878 1.1262.11442 2.2343-.20778 3.3123-.15057.3223 0 .6023-.02711.8733.00601.5782.07227.7317-.14153.6715-.71667-.1957-1.84891-.9214-2.80648-2.686-3.20697-1.4665-.33425-2.9962-.32523-4.2248.61127-1.8971 1.4454-2.403 4.62529-1.2376 6.73318.3794.6835.9304 1.1955 1.6441 1.4845 2.0145.8221 3.8695.4005 5.5889-.8221.2017-.1415.3734-.3342.536-.5239.1084-.1265.283-.274.1626-.4577zm-5.2306-4.46269c-.018-.47277.0964-.9877.2891-1.47854.1687-.42458.4698-.72872.9696-.67451.4758.05119.6595.40652.7378.8311.0331.17165.0542.34629.0783.52094.2048 1.62909-.0452 1.87601-1.7194 1.71341-.259-.02409-.3775-.32822-.3554-.9124z"></path></g></symbol></defs>
    <use xlink:href="#demorgen" fill="#FFFFFF"></use>
</svg>