<svg xmlns:xlink="http://www.w3.org/1999/xlink" xmlns="http://www.w3.org/2000/svg" role="img" class="svg-icon -footer-logo" width="120"  height="61" ><defs><symbol id="footer-logo" viewBox="0 0 120 61"><g><path d="m39.9526 17.686h-1.7299v12.0131h1.2507c3.2788 0 4.775-1.8558 4.775-6.2758 0-4.0044-1.315-5.7373-4.2958-5.7373z"></path><path d="m60 0c-33.1385 0-60 13.6464-60 30.4718 0 16.8253 26.8615 30.4718 60 30.4718s60-13.6465 60-30.4718c0-16.8254-26.8673-30.4718-60-30.4718zm-8.3518 38.3634v10.9944h-7.3992v-13.5644h-6.0257v13.5644h-7.3992v-37.7662h8.1122c8.1707 0 12.8287 3.8228 12.8287 11.293 0 3.8814-1.0753 6.99-4.1788 9.0215 2.1449.7786 4.0561 2.8101 4.0561 6.4515zm37.5277 10.9944h-15.336c-.2981-10.6373-.5962-21.2746-.8358-31.7948h-2.0865c-.2981 10.4558-.6546 21.1575-.9527 31.7948h-15.2717v-37.7662h6.9199c-.0585 10.6373-.1812 21.2746-.2396 31.7948h3.1619c.298-10.5202.6545-21.1575.9526-31.7948h12.8872c.2981 10.6373.7189 21.2746.9527 31.7948h3.1619c-.0585-10.4617-.1228-21.1575-.2397-31.7948h6.92v37.7662z"></path></g></symbol></defs>
    <use xlink:href="#footer-logo" fill="#FFFFFF"></use>
</svg>