<svg xmlns:xlink="http://www.w3.org/1999/xlink" xmlns="http://www.w3.org/2000/svg" role="img" class="svg-icon -fuzetea" width="86"  height="20" ><defs><symbol id="fuzetea" viewBox="0 0 86 20"><g><path d="m22.0361 6.02973c-.8876.05005-1.7819.05339-2.6696 0-.6507-.04005-.7908.21023-.7808.81421.0334 2.05557.01 4.11446.0167 6.17336 0 .5873-.0401 1.1679-.1969 1.7352-.2836 1.0245-1.1012 1.5717-2.1357 1.4382-.9276-.1201-1.3714-.7007-1.3781-1.8553-.01-1.6685 0-3.337-.0033-5.00543-.0034-2.41261-1.5684-3.73738-3.9543-3.36365-.3604.05673-.5273.17019-.5139.58063.1001 3.02996.1735 6.05655.2569 9.08655.0134.5072.1101 1.0144.3771 1.4382 1.8086 2.8664 5.3591 3.0733 7.5649.4471.2335-.2769.3804-.4037.5773-.0033.614 1.2347 1.7218 1.5484 2.9799 1.6284.5172.0334.6673-.1401.6607-.6507-.0267-1.9754-.01-3.9476-.01-5.923 0-1.9188-.0267-3.83754.0166-5.75629.0134-.64069-.1868-.81755-.8042-.78418z"></path><path d="m81.8879 16.064c.0867-2.1624-.0434-4.3214-.1669-6.48038-.1168-2.06557-1.0377-3.28356-3.0933-3.81413-2.446-.63069-4.8586-.30033-7.2278.48719-.3905.13014-.4772.36373-.3571.77418.347 1.19462 1.1012 1.83198 2.3559 1.852.6106.01001 1.2246-.05005 1.832-.10344.4471-.04005.8876-.02002 1.3281.07007.9243.18687.9477.99108.971 1.63841.0234.6507-.644.317-.981.3671-1.7386.2703-3.4871.4839-4.9554 1.5717-1.3481.9978-1.6918 2.3759-1.3214 3.9376.3337 1.4215 1.3281 2.2191 2.7296 2.486 1.6685.317 3.2202.0734 4.5149-1.1245.277-.257.3904-.2336.6307.06 1.1078 1.3682 3.397 1.3882 4.8152-.0166-.911-.2803-1.1045-.891-1.0712-1.7052zm-4.2346-2.3926c-.0334.7241-.0968 1.3381-.4605 1.8553-.4171.5973-1.0011.8676-1.7352.7075-.5606-.1202-.9577-.4272-1.0411-1.0378-.1068-.7909.2202-1.3448.9143-1.6985.4738-.2436.9977-.3271 1.515-.4405.6173-.1368.9143.0567.8075.614z"></path><path d="m44.6176 6.22009c-2.7763-1.29808-7.3212-.72078-8.9063 3.5038-1.0244 2.72961-.3871 6.04321 1.545 7.80851 1.8587 1.6985 5.3725 2.1423 7.7751.981 1.3648-.6574 2.179-1.8787 2.0823-3.1334-.0167-.2135.0367-.4938-.2069-.5873-.2069-.0767-.3304.1635-.4772.2803-1.2881 1.0345-2.7764 1.2647-4.3347.9477-1.2814-.2569-2.0689-1.1012-2.3792-2.3959-.1135-.4739-.0401-.6507.4805-.6374 1.0845.0301 2.169.01 3.2535.01h2.2524c1.8687 0 1.8954 0 1.8153-1.892-.0867-2.13566-.8642-3.93094-2.9031-4.88531zm-1.6084 4.56491c-.4972-.0333-1.0011-.0066-1.5016-.0066s-1.0011-.01-1.5016 0c-.3404.01-.4272-.1469-.4005-.4639.0768-.93765.9677-1.73852 2.0055-1.77523 1.0745-.03671 1.782.53057 1.9588 1.52833.0868.4805.0167.7541-.5572.7141z"></path><path d="m60.9318 6.18243c-2.3426 1.48495-3.3303 3.6206-3.297 6.32357.0601 5.1956 5.5761 8.309 10.0877 5.6895 1.1913-.6908 1.9621-2.0189 1.7819-3.0734-.0734-.4271-.1468-.6974-.6474-.2669-1.248 1.0745-2.743 1.298-4.3147 1.0177-1.2647-.2269-2.0522-1.0411-2.4192-2.2624-.1569-.5206-.1002-.8276.5839-.7909 1.0545.0534 2.1123.0134 3.1701.0134 1.0845 0 2.1724-.0334 3.2536.0133.5606.0267.7174-.1969.7608-.7007.1435-1.7152-.1368-3.27024-1.2747-4.67177-1.6218-2.00217-5.5094-2.67289-7.6884-1.28806zm4.4381 4.43477c-.4705-.03-.9444-.0066-1.4182-.0066-.3904 0-.7775 0-1.1679 0-.9577-.0034-1.0312-.1135-.6741-.98443.3504-.85426 1.1412-1.31476 2.1457-1.24468.8976.06006 1.4115.54058 1.6684 1.47827.1469.53054.0601.79754-.5539.75744z"></path><path d="m34.1527 15.8099c-1.575.0634-3.1601-.0901-4.7318.1669-.2169.0333-.5406.1334-.6674-.1502-.1068-.2403.1535-.3904.2903-.5539 1.5017-1.7853 2.9466-3.624 4.5383-5.32581.9076-.97439 1.3014-1.97213 1.1813-3.28022-.0568-.60732-.1836-.87094-.8143-.79086-1.8787.24026-3.7674.1535-5.3391.17019-1.3982 0-2.486 0-3.5705 0-1.3148 0-1.6785.51722-1.2747 1.79861.2636.83758.8742 1.26805 1.9254 1.29141 1.1412.02335 2.2825-.00001 3.4237.01334.2302 0 .5673-.14015.6707.14683.0868.24693-.2035.42379-.3637.60732-1.5383 1.75859-3.0199 3.57389-4.6417 5.25239-.8976.9276-1.198 1.8987-1.1145 3.1334.04.614.1902.7808.8108.8008 2.6963.0835 5.3825-.2169 8.0755-.1902 2.2824.0234 2.2491 0 2.4159-2.2824.0534-.7108-.1902-.8343-.8142-.8109z"></path><path d="m8.29435 3.62688c1.04447-.12347 2.04225-1.67181 1.73185-2.656213-.09006-.290314-.33366-.27363-.52053-.330358-.91433-.276967-1.85201-.373739-2.80304-.260282-2.65622.31701-4.13448 1.838663-4.19455 4.304663-.02225.97439-.515 1.48272-1.47827 1.52499-.303664.01335-.593977-.03337-.660716.42379-.18687 1.26471.360393 2.23576 1.561696 2.57279.42046.1168.5873.28698.58397.73413-.01001 2.37921-.07675 4.76181.15683 7.13771 0 .5006.0267 1.0011-.00667 1.5017-.03337.4938.1268.654.6507.6807 1.06115.0534 2.08893-.2536 3.14341-.1902.40044.0267.43714-.2269.43381-.5373-.01002-.9643-.08677-1.9287-.13682-2.8898-.10345-1.9688-.01668-3.9442-.04004-5.91637-.00668-.47051.14015-.57396.60399-.62068 1.9688-.19354 1.94544-.2169 1.95211-2.26245 0-.7408-.21023-.94436-.94102-.7041-.37707.12681-.82422.04672-1.238.06341-.23693.00667-.32369-.11346-.37041-.34371-.27029-1.31476.26028-2.07558 1.5717-2.23576z"></path><path d="m53.9806 14.3243c.0534-1.3615.0101-2.7263.0101-4.0878 0-1.42156-.0001-1.40821 1.3814-1.44825.4372-.01335.871-.1168 1.3115-.16018.2469-.02336.3337-.15683.3537-.37707.0667-.69075.1401-1.3815.1969-2.07559.02-.26028.04-.4972-.3938-.38375-.7308.19355-1.4916.04338-2.2391.08343-.4071.02336-.624-.11679-.614-.56728.02-.91433-.2736-1.81197-.1635-2.72963.0601-.49721-.1168-.70743-.654-.65071-2.2024.22692-3.1802.98441-3.4171 3.29024-.05.48719-.1602.72412-.6774.66072-.1902-.02336-.3904.01334-.5839-.00668-.564-.0634-.8443.13348-.7642.74081.0334.24693.0434.50721 0 .74747-.1702.8943.2836 1.22466 1.0878 1.18796.7909-.03671.9477.34704.931 1.06449-.0433 1.97552-.0433 3.95092 0 5.92312.0434 1.9621 1.1747 3.2335 3.0233 3.5138 2.119.3203 4.2379-.7475 4.8219-2.4393.0868-.2536.1101-.5306.2002-.9711-.7341.2403-1.2947.5006-1.9187.4872-1.3214-.0267-1.9488-.4371-1.8954-1.8053z"></path><path d="m85.653 15.6159c.0668-.3941-.1135-.5544-.4909-.5811-.5377-.0368-.4642.3339-.4709.6612-.0067.3641.0434.6479.501.3073.6345.4442.4141-.1202.4608-.3908z"></path></g></symbol></defs>
    <use xlink:href="#fuzetea" fill="#FFFFFF"></use>
</svg>