<svg xmlns:xlink="http://www.w3.org/1999/xlink" xmlns="http://www.w3.org/2000/svg" role="img" class="svg-icon -humo" width="86"  height="22" ><defs><symbol id="humo" viewBox="0 0 86 22"><g><path d="m63.2609 1.48009c0-.564777-.1262-.764117-.7276-.75415-2.2159.036544-4.4351.023262-6.651.006651-.4884-.003322-.721.112956-.8506.644509-.7674 3.11292-1.5846 6.21254-2.382 9.3155-.0465.1827-.0166.4219-.2791.4385-.3289.02-.2757-.2591-.3322-.4651-.804-2.97337-1.6246-5.94343-2.4186-8.92014-.1594-.598-.3953-.887041-1.1162-.863786-2.0764.069767-4.1561.043199-6.2325.009977-.6179-.009967-.8438.116269-.8571.803969-.0931 6.16604.2724 12.32548.186 18.49148v.0831c-.0598.475.1495.6279.618.6146.9966-.0299 1.9966-.0532 2.9933.0066.7043.0432.8571-.1993.8704-.8771.0897-4.0929-.2425-8.1759-.1794-12.26558.0033-.28571-.1063-.59801.2093-.98006.1462.27242.2957.4485.3422.64783.5249 2.20596 1.083 4.39531 1.8239 6.55141.6844 1.9933 1.1395 4.0664 1.6544 6.1162.1196.4751.3289.6412.7941.6312.8571-.0199 1.7176-.0232 2.578 0 .4352.0133.6146-.1229.7143-.578.4452-1.9834 1.0232-3.9269 1.382-5.9402.4219-2.3687 1.1329-4.6843 1.7309-7.01982.0498-.18936.0664-.51162.3521-.47507.3057.03987.1894.35216.1894.54485.0133 1.52157.0299 3.04314 0 4.56474-.0465 2.7607.3024 5.5115.1661 8.2756-.0232.4585.123.6346.608.6279 1.4418-.0265 2.8837-.0299 4.3222 0 .5282.0133.6511-.1827.6511-.6744-.0066-1.5714-.1295-3.1395-.1528-4.7042-.0664-4.6213-.0332-9.24245-.0133-13.86366z"></path><path d="m17.6795 1.74941c.0233-.57475-.2093-.69767-.7242-.68771-1.5216.02658-3.0465.03323-4.5714 0-.6013-.01328-.7143.21595-.7375.77076-.0831 1.99001.2259 3.96007.196 5.94676-.01.57807-.186.78074-.7641.7608-1.13621-.03322-2.27241-.03654-3.40529 0-.60132.01994-.85715-.14618-.81064-.79069.14618-2.01326-.19932-4.01324-.14616-6.02651.01329-.51826-.17608-.65447-.6711-.66112-1.62788-.01661-3.25247.04652-4.87703.16612-.415278.0299-.531553.18271-.495008.5548.063122.62458.162788 1.24916.166111 1.87706.019933 2.71093.006651 5.42186.006651 8.13282 0 2.8205.016598 5.6444-.013302 8.465-.006645.6013.112971.8272.764128.804 1.495-.0499 2.99-.0399 4.48499 0 .60465.0166.81396-.1396.80067-.7808-.04319-2.1029.00662-4.2059-.02993-6.3055-.00997-.6379.20268-.814.81064-.7907 1.1063.0398 2.21592.0398 3.32227 0 .6312-.0233.8737.1462.8571.8305-.0465 2.1296 0 4.2591-.0299 6.3887-.0067.5182.1495.6677.6545.6578 1.4684-.0266 2.9368-.0565 4.4019.0099.804.0366.9834-.2658.9734-1.0033-.0332-2.8206-.0598-5.6444 0-8.465.0665-3.28567-.2957-6.55806-.1694-9.84374z"></path><path d="m85.3766 8.34685c-.4087-2.44183-1.3854-4.6345-3.4419-6.19594-1.6378-1.242515-3.4816-1.840505-5.5381-1.817249-2.6478.026577-5.0664.704309-7.0165 2.571399-2.2159 2.12289-2.9103 4.84712-2.9402 8.20924-.0797.4917.0465 1.372.2558 2.2258.4253 1.7442 1.0166 3.3987 2.3887 4.6977 1.5349 1.4551 3.3521 2.2591 5.3953 2.6245 3.9036.6977 7.9102-.9701 9.8205-4.6909 1.2391-2.412 1.5182-4.9933 1.0764-7.62455zm-6.289 2.37205c-.0897 1.4186-.0332 2.8604-.7674 4.1661-.5615 1-1.3455 1.5216-2.5482 1.4618-1.0896-.0565-1.7308-.6711-2.1661-1.5416-.5514-1.0996-.691-2.2923-.6943-3.5182 0-1.40861-.0133-2.80394.4219-4.16937.5349-1.68105 1.4551-2.55479 2.7408-2.51492 1.2226.03986 2.3123 1.16941 2.6611 2.75743.0632.29568.1961.58472.1994.8804.0133.82723.2359 1.64451.1528 2.47836z"></path><path d="m37.4903 6.48952c0-1.92357-.0432-3.3355.0166-4.74412.0299-.72092-.2192-.89368-.8903-.853813-.9103.056478-1.8272.00664-2.7442.016607-1.2558.009967-1.0764-.14285-1.1063 1.106306-.0963 3.89364.1329 7.78396.1695 11.6743.0099.98-.1196 1.9235-1.0831 2.4318-1.1395.6014-2.3289.6412-3.485.0133-.6246-.3388-.9634-.8737-.9667-1.6146-.0067-4.2258-.3024-8.44505-.2093-12.67424.0033-.19269-.0067-.3887 0-.58139.0133-.308962-.1794-.398658-.4253-.348825-1.6179.335545-3.2525.109625-4.877.132875-.6877.00997-.8671.18605-.8771.87707-.0498 3.87039.309 7.7308.1861 11.60121-.01.3056-.0299.6113.0033.9136.0897.7907.1495 1.5913.3222 2.3654.4519 2.0066 1.9934 2.98 3.7475 3.6146 2.2757.8272 4.6544.9734 7.0132.4485 2.186-.4851 4.0299-1.5349 4.8903-3.7807.3688-.9668.4386-1.9867.4685-3.0033.0764-2.7043-.3356-5.40192-.1628-7.59791z"></path></g></symbol></defs>
    <use xlink:href="#humo" fill="#FFFFFF"></use>
</svg>