<svg xmlns:xlink="http://www.w3.org/1999/xlink" xmlns="http://www.w3.org/2000/svg" role="img" class="svg-icon -instagram" width="25"  height="25" ><defs><symbol id="instagram" viewBox="0 0 23 23"><path d="m11.5046 5.88452c-3.10543 0-5.61031 2.50488-5.61031 5.61038 0 3.1054 2.50488 5.6103 5.61031 5.6103 3.1055 0 5.6104-2.5049 5.6104-5.6103 0-3.1055-2.5049-5.61038-5.6104-5.61038zm0 9.25778c-2.0068 0-3.64742-1.6357-3.64742-3.6474 0-2.01175 1.63574-3.64749 3.64742-3.64749 2.0118 0 3.6475 1.63574 3.6475 3.64749 0 2.0117-1.6406 3.6474-3.6475 3.6474zm7.1485-9.48727c0 .72754-.586 1.30859-1.3086 1.30859-.7276 0-1.3086-.58593-1.3086-1.30859s.5859-1.30859 1.3086-1.30859c.7226 0 1.3086.58593 1.3086 1.30859zm3.7158 1.32812c-.083-1.75293-.4834-3.30566-1.7676-4.58496-1.2793-1.27929-2.832-1.679684-4.5849-1.767575-1.8067-.102539-7.22172-.102539-9.02836 0-1.74805.083008-3.30078.483395-4.58496 1.762695s-1.679691 2.83203-1.767582 4.58496c-.102539 1.80664-.102539 7.22173 0 9.02833.083008 1.7529.483402 3.3057 1.767582 4.585 1.28418 1.2792 2.83203 1.6796 4.58496 1.7675 1.80664.1026 7.22166.1026 9.02836 0 1.7529-.083 3.3056-.4834 4.5849-1.7675 1.2793-1.2793 1.6797-2.8321 1.7676-4.585.1025-1.8066.1025-7.21681 0-9.02345zm-2.334 10.96195c-.3808.957-1.1182 1.6943-2.0801 2.08-1.4404.5713-4.8584.4395-6.4502.4395-1.59176 0-5.01461.127-6.45016-.4395-.95703-.3808-1.69433-1.1181-2.08007-2.08-.57129-1.4405-.43946-4.8584-.43946-6.4502 0-1.59182-.12695-5.01468.43946-6.45022.38085-.95703 1.11816-1.69434 2.08007-2.08008 1.44043-.57129 4.8584-.43945 6.45016-.43945 1.5918 0 5.0147-.12696 6.4502.43945.9571.38086 1.6944 1.11816 2.0801 2.08008.5713 1.44043.4395 4.8584.4395 6.45022 0 1.5918.1318 5.0146-.4395 6.4502z"></path></symbol></defs>
    <use xlink:href="#instagram" fill="#FFFFFF"></use>
</svg>