<svg xmlns:xlink="http://www.w3.org/1999/xlink" xmlns="http://www.w3.org/2000/svg" role="img" class="svg-icon -jupiler" width="88"  height="25" ><defs><symbol id="jupiler" viewBox="0 0 88 25"><g><path d="m44.0016 5.76487c-2.12.03297-4.3124-.34949-6.1818 1.10447-.4682.36266-.788.18793-.8473-.36926-.0627-.58686-.4319-.71543-.9133-.71873-.8803-.00659-1.7606.01978-2.6376-.00659-.8044-.02308-1.1077.30661-1.0945 1.13414.0395 2.74966.0165 5.496.0165 8.2457 0 2.8024-.0033 5.6081 0 8.4105 0 .9297.2637 1.088 1.0846.6627.6067-.3132 1.1705-.7517 1.8101-.9561 1.6682-.5275 2.1529-1.6617 1.8858-3.2706-.1286-.7682.2374-1.0221.9825-.9957.8704.033 1.7474.1154 2.5716-.3528 1.1441-.6462 2.3244-1.2198 3.4816-1.8462.4253-.2308.7056-.5605.7023-1.1111 0-3.0728.0165-6.14554-.1715-9.215-.0296-.46157-.2077-.72533-.6956-.71873zm-3.9795 5.08063c.0066.5209 0 1.0418 0 1.5627 0 .9331-.0033 1.8628 0 2.7958.0033.5045-.1945.732-.7385.7221-2.354-.0462-2.0968.2835-2.11-2.0178-.0066-1.3979.0132-2.7958-.0066-4.19039-.0099-.59016.2143-.85062.8209-.84073 2.3573.03956 2.0046-.30661 2.0342 1.97162z"></path><path d="m14.7184 1.72289c0-.70884-.3396-.992381-1.0089-.989084-1.1539.003297-2.3145.052745-3.4651-.016491-1.06163-.062642-2.00126.211012-2.89803.738525-.49454.29013-1.03524.50443-1.51001.82424-.77808.52751-1.77375.71873-2.42985 1.51329.30662.2209.61653.15497.90666.15826 1.45726.0066 2.9178 0 4.37505.00659 1.02536.0033 1.07481.05275 1.07481 1.07151 0 3.57389.01649 7.15107-.00989 10.72497-.00659.9528.41216 2.1595-.19122 2.7925-.61323.6462-1.8331.1484-2.78262.2242-.40553.033-.82754-.0593-1.21329.1484-1.60891.8671-3.22111 1.7342-4.899262 2.6375.316507.333.649502.3264.982492.3264h7.6753c.27695 0 .5506 0 .80446-.1384 1.3287-.7089 2.6606-1.4078 3.9827-2.1233.3759-.2044.6132-.4945.61-.9858-.0132-5.6377-.0132-11.27552 0-16.91331z"></path><path d="m72.8167 7.86773c0-.30992 0-.67258-.2935-.81435-1.3154-.63631-2.5452-1.52978-4.0882-1.54297-2.2287-.01978-4.4575-.00659-6.6862-.00659-1.1341 0-1.1671.05605-1.1935 1.22647-.0659 2.93758.1154 5.86861.155 8.80281.0098.7155.4714.9331.9429 1.1935.9627.5243 1.9518.9957 2.898 1.5463.755.4385 1.5232.7484 2.4101.6264 1.6649-.2308 3.3398-.1417 5.0146-.1714.155 0 .31-.066.5836-.1286-.6132-.5737-1.2363-.8605-1.8463-1.1638-1.4638-.7319-2.9442-1.4309-4.4047-2.1694-.3033-.155-.6792-.3495-.5836-.7979.0989-.4648.511-.3495.8144-.3363 1.8133.0858 3.6101-.2901 5.4202-.1714.5835.0363.8638-.1978.8572-.8111-.0165-1.7605-.0066-3.5211-.0033-5.27837zm-6.2544 3.14857c-.7297 0-1.0945-.389-1.0945-1.1671 0-1.13415.0098-1.14404 1.233-1.14074 1.1243 0 1.1408.01978 1.1375 1.15393 0 .77151-.4253 1.15611-1.276 1.15391z"></path><path d="m30.5135 15.9495c-.8638.1187-1.0715-.2769-1.0616-1.0748.0363-2.6903-.0033-5.38389.0264-8.07749.0099-.7616-.3198-1.04513-1.0287-1.03524-.9066.00989-1.8133 0-2.72 0-1.0055.00329-1.0945.08572-1.0945 1.07151-.0033 2.41666.0032 4.83662 0 7.25332-.0066 2.0639.2208 1.843-1.8529 1.8496-1.0649.0065-1.0715 0-1.0715-1.0979 0-2.6112-.0264-5.2191.0164-7.83029.0132-.79786-.2835-1.09129-1.0418-1.0748-.9067.01978-1.8133-.00989-2.72-.00659-1.0385 0-1.0814.04615-1.0847 1.05831-.0033 1.8397 0 3.68267 0 5.52237 0 1.9518-.0033 3.9003.0066 5.8521 0 .3429-.0593.8012.4682.8045 1.7671.0066 3.5673.2209 5.1894-.7715.4187-.2572.8836-.4352 1.3122-.6792.5176-.3.8341-.2901.7846.4253-.0461.6825.2836.9331.9463.8935.4154-.0264.8044-.0528 1.1869-.2605 1.322-.7154 2.6606-1.3946 3.9794-2.1166.2011-.1088.6495-.1121.5044-.5044-.1121-.3067-.4846-.2308-.7352-.1946z"></path><path d="m87.3265 5.82859c0-.27035-.0626-.50113-.4088-.48135-1.9386.10221-3.9695-.43849-5.7466.81105-.2011.14177-.422.26046-.6462.36267-.4154.19122-.7583.20111-.8044-.39234-.0429-.57037-.3495-.80775-.9298-.79127-1.0451.02638-2.0902.02638-3.1354 0-.6659-.01648-.9462.25057-.9363.92644.0231 1.56606.0066 3.13541.0066 4.70141.0099 2.3046-.0396 4.6092.1549 6.9105.0495.5736.2144.8638.8276.8539 1.1275-.0198 2.2551-.0165 3.3827 0 .6396.0099.8209-.3363.7616-.8935-.3001-2.8222-.0594-5.651-.1319-8.47646-.0099-.37256.1154-.67588.5308-.69237.6825-.02307 1.4473-.23408 2.0276.09232.5077.28683.1517 1.01546.2341 1.53971.0099.0527 0 .1088.0033.1648.0099.4748.2539.5935.6462.3858 1.2792-.6792 2.5453-1.38476 3.8311-2.05734.2275-.11869.3428-.23409.3395-.48795-.0066-.82424 0-1.64848-.0033-2.47602z"></path><path d="m58.5641 6.52649c0-1.75727-.0198-3.51784.0099-5.27512.0099-.59345-.2012-.876992-.7979-.870398-.9858.009891-1.9749.019784-2.9607.023081-1.1473.003297-1.1308.003297-1.1539 1.153937-.1187 5.46304.2308 10.92281.1682 16.38251 0 .0825.0033.1649 0 .2473-.0066.5077.211.7385.7517.722 1.0451-.0296 2.0902-.0527 3.1321.0066.8077.0462 1.0418-.2538 1.0286-1.0385-.0494-2.3837 0-4.7641-.1615-7.1478-.0924-1.39461-.0165-2.8024-.0165-4.20361z"></path><path d="m51.6277 6.24622c.0231-.56378-.2407-.77149-.8044-.74841-.9331.03627-1.8661 0-2.7991.01319-1.0847.01319-1.243.18134-1.2529 1.24296-.0198 2.40677.3297 4.80694.1649 6.74554 0 1.7903.0263 3.109-.0099 4.4245-.0198.7155.1549 1.0583.966.9957.9825-.0725 1.9781-.0593 2.9639 0 .7254.0429.9397-.2077.9562-.9232.0857-3.8904-.1814-7.7775-.1814-11.66456 0-.02638 0-.05605 0-.08243z"></path><path d="m47.5884 3.79672c.6759-.20441 1.3551-.1121 1.965-.14507 1.3935 0 2.0903-.68686 2.0903-2.06059 0-.19122 0-.38245 0-.57697-.0099-.458274-.1978-.705544-.7056-.679168-.5736.029672-1.1506-.016492-1.7276.01318-2.5287.128581-2.6474.286836-2.4496 2.772738.0462.58026.3099.83084.8341.67588z"></path></g></symbol></defs>
    <use xlink:href="#jupiler" fill="#FFFFFF"></use>
</svg>