<svg xmlns:xlink="http://www.w3.org/1999/xlink" xmlns="http://www.w3.org/2000/svg" role="img" class="svg-icon -kbc" width="80"  height="80" ><defs><symbol id="kbc" viewBox="0 0 80 80"><g><path d="m43.1 47.7c0-.9-.4-1.3-1.5-1.3h-3.1v2.5h3c1.1 0 1.6-.5 1.6-1.2z"></path><path d="m41.6 51.1h-3.2v2.5h3.2c1.2 0 1.6-.5 1.6-1.2 0-.8-.4-1.3-1.6-1.3z"></path><path d="m40 0c-22.09 0-40 17.91-40 40s17.91 40 40 40 40-17.91 40-40-17.91-40-40-40zm.3 16.3c4.9 0 8.9 4 8.9 8.9s-4 8.9-8.9 8.9-8.9-4-8.9-8.9 4-8.9 8.9-8.9zm-9.2 39.9h-7l-3.6-4.8h-.1v4.8h-6v-12.7h6v5.7h.1l3.6-5.7h7.3l-5.4 6.6zm13.4 0h-12.1v-12.7h12.3c3.2 0 4.2 1.3 4.2 3.2 0 2.2-1.9 3.2-3.9 3.3 2.1.1 4 .4 4.1 2.9 0 1.7-1.1 3.3-4.6 3.3zm21.1-7.9c-1.2-.7-2.4-1.2-4.1-1.2-2.3 0-4.5 1.1-4.5 2.7s2.3 2.7 4.5 2.7c1.7 0 2.9-.5 4.1-1.1v4.3c-1.4.4-3.3.7-5 .7-6.1 0-10.5-1.7-10.5-6.7 0-4.5 4.3-6.5 10.2-6.5 1.6 0 3.7.2 5.3.7zm0-8.2h-51.3v-3.9s7.2-1.5 16.9-2.5c1.6 1.2 4.1 2.4 7.1 2.4 3.8 0 6.8-1.9 8.5-3.7 10-.6 18.8-.5 18.8-.5z"></path></g></symbol></defs>
    <use xlink:href="#kbc" fill="#FFFFFF"></use>
</svg>