<?xml version="1.0" encoding="UTF-8"?>
<svg id="Layer_1" data-name="Layer 1" xmlns="http://www.w3.org/2000/svg" viewBox="0 0 1787 54">
  <defs>
    <style>
      .cls-1 {
        fill: #ff3636;
      }

      .cls-2 {
        fill: #ff989d;
      }
    </style>
  </defs>
  <rect class="cls-1" width="1787" height="54"/>
  <ellipse class="cls-2" cx="7" cy="27" rx="4" ry="27"/>
  <ellipse class="cls-2" cx="20" cy="27" rx="6" ry="27"/>
  <ellipse class="cls-2" cx="39" cy="27" rx="10" ry="27"/>
  <ellipse class="cls-2" cx="65" cy="27" rx="13" ry="27"/>
  <ellipse class="cls-2" cx="99" cy="27" rx="18" ry="27"/>
  <ellipse class="cls-2" cx="142.5" cy="27" rx="22.5" ry="27"/>
  <circle class="cls-2" cx="195" cy="27" r="27"/>
  <ellipse class="cls-2" cx="229" cy="27" rx="4" ry="27"/>
  <ellipse class="cls-2" cx="242" cy="27" rx="6" ry="27"/>
  <ellipse class="cls-2" cx="261" cy="27" rx="10" ry="27"/>
  <ellipse class="cls-2" cx="287" cy="27" rx="13" ry="27"/>
  <ellipse class="cls-2" cx="321" cy="27" rx="18" ry="27"/>
  <ellipse class="cls-2" cx="364.5" cy="27" rx="22.5" ry="27"/>
  <circle class="cls-2" cx="417" cy="27" r="27"/>
  <ellipse class="cls-2" cx="451" cy="27" rx="4" ry="27"/>
  <ellipse class="cls-2" cx="464" cy="27" rx="6" ry="27"/>
  <ellipse class="cls-2" cx="483" cy="27" rx="10" ry="27"/>
  <ellipse class="cls-2" cx="509" cy="27" rx="13" ry="27"/>
  <ellipse class="cls-2" cx="543" cy="27" rx="18" ry="27"/>
  <ellipse class="cls-2" cx="586.5" cy="27" rx="22.5" ry="27"/>
  <circle class="cls-2" cx="639" cy="27" r="27"/>
  <ellipse class="cls-2" cx="673" cy="27" rx="4" ry="27"/>
  <ellipse class="cls-2" cx="686" cy="27" rx="6" ry="27"/>
  <ellipse class="cls-2" cx="705" cy="27" rx="10" ry="27"/>
  <ellipse class="cls-2" cx="731" cy="27" rx="13" ry="27"/>
  <ellipse class="cls-2" cx="765" cy="27" rx="18" ry="27"/>
  <ellipse class="cls-2" cx="808.5" cy="27" rx="22.5" ry="27"/>
  <circle class="cls-2" cx="861" cy="27" r="27"/>
  <ellipse class="cls-2" cx="895" cy="27" rx="4" ry="27"/>
  <ellipse class="cls-2" cx="908" cy="27" rx="6" ry="27"/>
  <ellipse class="cls-2" cx="927" cy="27" rx="10" ry="27"/>
  <ellipse class="cls-2" cx="953" cy="27" rx="13" ry="27"/>
  <ellipse class="cls-2" cx="987" cy="27" rx="18" ry="27"/>
  <ellipse class="cls-2" cx="1030.5" cy="27" rx="22.5" ry="27"/>
  <circle class="cls-2" cx="1083" cy="27" r="27"/>
  <ellipse class="cls-2" cx="1118" cy="27" rx="4" ry="27"/>
  <ellipse class="cls-2" cx="1131" cy="27" rx="6" ry="27"/>
  <ellipse class="cls-2" cx="1150" cy="27" rx="10" ry="27"/>
  <ellipse class="cls-2" cx="1176" cy="27" rx="13" ry="27"/>
  <ellipse class="cls-2" cx="1210" cy="27" rx="18" ry="27"/>
  <ellipse class="cls-2" cx="1253.5" cy="27" rx="22.5" ry="27"/>
  <circle class="cls-2" cx="1306" cy="27" r="27"/>
  <ellipse class="cls-2" cx="1340" cy="27" rx="4" ry="27"/>
  <ellipse class="cls-2" cx="1353" cy="27" rx="6" ry="27"/>
  <ellipse class="cls-2" cx="1372" cy="27" rx="10" ry="27"/>
  <ellipse class="cls-2" cx="1398" cy="27" rx="13" ry="27"/>
  <ellipse class="cls-2" cx="1432" cy="27" rx="18" ry="27"/>
  <ellipse class="cls-2" cx="1475.5" cy="27" rx="22.5" ry="27"/>
  <circle class="cls-2" cx="1528" cy="27" r="27"/>
  <ellipse class="cls-2" cx="1563" cy="27" rx="4" ry="27"/>
  <ellipse class="cls-2" cx="1576" cy="27" rx="6" ry="27"/>
  <ellipse class="cls-2" cx="1595" cy="27" rx="10" ry="27"/>
  <ellipse class="cls-2" cx="1621" cy="27" rx="13" ry="27"/>
  <ellipse class="cls-2" cx="1655" cy="27" rx="18" ry="27"/>
  <ellipse class="cls-2" cx="1698.5" cy="27" rx="22.5" ry="27"/>
  <circle class="cls-2" cx="1751" cy="27" r="27"/>
  <circle class="cls-2" cx="639" cy="27" r="27"/>
</svg>