<?xml version="1.0" encoding="utf-8"?>
<!-- Generator: Adobe Illustrator 26.5.0, SVG Export Plug-In . SVG Version: 6.00 Build 0)  -->
<svg version="1.1" id="Layer_1" xmlns="http://www.w3.org/2000/svg" xmlns:xlink="http://www.w3.org/1999/xlink" x="0px" y="0px"
	 viewBox="0 0 1783 54" style="enable-background:new 0 0 1783 54;" xml:space="preserve">
<style type="text/css">
	.st0{fill:#FF989D;}
	.st1{fill:#FF3636;}
</style>
<g>
	<rect x="-3" class="st0" width="1787" height="54"/>
</g>
<ellipse class="st1" cx="4" cy="27" rx="4" ry="27"/>
<ellipse class="st1" cx="17" cy="27" rx="6" ry="27"/>
<ellipse class="st1" cx="36" cy="27" rx="10" ry="27"/>
<ellipse class="st1" cx="62" cy="27" rx="13" ry="27"/>
<ellipse class="st1" cx="96" cy="27" rx="18" ry="27"/>
<ellipse class="st1" cx="139.5" cy="27" rx="22.5" ry="27"/>
<circle class="st1" cx="192" cy="27" r="27"/>
<ellipse class="st1" cx="226" cy="27" rx="4" ry="27"/>
<ellipse class="st1" cx="239" cy="27" rx="6" ry="27"/>
<ellipse class="st1" cx="258" cy="27" rx="10" ry="27"/>
<ellipse class="st1" cx="284" cy="27" rx="13" ry="27"/>
<ellipse class="st1" cx="318" cy="27" rx="18" ry="27"/>
<ellipse class="st1" cx="361.5" cy="27" rx="22.5" ry="27"/>
<circle class="st1" cx="414" cy="27" r="27"/>
<ellipse class="st1" cx="448" cy="27" rx="4" ry="27"/>
<ellipse class="st1" cx="461" cy="27" rx="6" ry="27"/>
<ellipse class="st1" cx="480" cy="27" rx="10" ry="27"/>
<ellipse class="st1" cx="506" cy="27" rx="13" ry="27"/>
<ellipse class="st1" cx="540" cy="27" rx="18" ry="27"/>
<ellipse class="st1" cx="583.5" cy="27" rx="22.5" ry="27"/>
<circle class="st1" cx="636" cy="27" r="27"/>
<ellipse class="st1" cx="670" cy="27" rx="4" ry="27"/>
<ellipse class="st1" cx="683" cy="27" rx="6" ry="27"/>
<ellipse class="st1" cx="702" cy="27" rx="10" ry="27"/>
<ellipse class="st1" cx="728" cy="27" rx="13" ry="27"/>
<ellipse class="st1" cx="762" cy="27" rx="18" ry="27"/>
<ellipse class="st1" cx="805.5" cy="27" rx="22.5" ry="27"/>
<circle class="st1" cx="858" cy="27" r="27"/>
<ellipse class="st1" cx="892" cy="27" rx="4" ry="27"/>
<ellipse class="st1" cx="905" cy="27" rx="6" ry="27"/>
<ellipse class="st1" cx="924" cy="27" rx="10" ry="27"/>
<ellipse class="st1" cx="950" cy="27" rx="13" ry="27"/>
<ellipse class="st1" cx="984" cy="27" rx="18" ry="27"/>
<ellipse class="st1" cx="1027.5" cy="27" rx="22.5" ry="27"/>
<circle class="st1" cx="1080" cy="27" r="27"/>
<ellipse class="st1" cx="1115" cy="27" rx="4" ry="27"/>
<ellipse class="st1" cx="1128" cy="27" rx="6" ry="27"/>
<ellipse class="st1" cx="1147" cy="27" rx="10" ry="27"/>
<ellipse class="st1" cx="1173" cy="27" rx="13" ry="27"/>
<ellipse class="st1" cx="1207" cy="27" rx="18" ry="27"/>
<ellipse class="st1" cx="1250.5" cy="27" rx="22.5" ry="27"/>
<circle class="st1" cx="1303" cy="27" r="27"/>
<ellipse class="st1" cx="1337" cy="27" rx="4" ry="27"/>
<ellipse class="st1" cx="1350" cy="27" rx="6" ry="27"/>
<ellipse class="st1" cx="1369" cy="27" rx="10" ry="27"/>
<ellipse class="st1" cx="1395" cy="27" rx="13" ry="27"/>
<ellipse class="st1" cx="1429" cy="27" rx="18" ry="27"/>
<ellipse class="st1" cx="1472.5" cy="27" rx="22.5" ry="27"/>
<circle class="st1" cx="1525" cy="27" r="27"/>
<ellipse class="st1" cx="1560" cy="27" rx="4" ry="27"/>
<ellipse class="st1" cx="1573" cy="27" rx="6" ry="27"/>
<ellipse class="st1" cx="1592" cy="27" rx="10" ry="27"/>
<ellipse class="st1" cx="1618" cy="27" rx="13" ry="27"/>
<ellipse class="st1" cx="1652" cy="27" rx="18" ry="27"/>
<ellipse class="st1" cx="1695.5" cy="27" rx="22.5" ry="27"/>
<circle class="st1" cx="1748" cy="27" r="27"/>
<circle class="st1" cx="636" cy="27" r="27"/>
</svg>
