<svg xmlns:xlink="http://www.w3.org/1999/xlink" xmlns="http://www.w3.org/2000/svg" height="71" viewBox="2500 0 1440 71" class="ribbon__svg" width="1440" ><defs><pattern class="ribbon__svg__pattern" id="ribbon-pink-pattern" x="0" y="0" width="240" height="71" patternUnits="userSpaceOnUse">
        <path d="m0 0h2631v75h-2631z" fill="#00ADFF"></path>
        <g class="tape__circles" fill="#FD800C">
            <path d="M219.008 61.1943C219.008 56.974 223.701 53.8088 229.528 54.0928C235.355 54.3769 240.048 58.3131 240.048 62.8581C240.048 67.403 235.355 70.5682 229.528 69.9595C223.701 69.3508 219.008 65.4146 219.008 61.1943Z" fill="#FF87C0"></path>
            <path d="M202.152 59.8544C202.152 55.9994 206.65 53.1588 212.203 53.4428C217.757 53.7269 222.254 57.2979 222.254 61.4371C222.254 65.5762 217.757 68.4573 212.203 67.8486C206.65 67.2805 202.152 63.6689 202.152 59.8544Z" fill="#FF87C0"></path>
            <path d="M185.332 58.5553C185.332 55.0654 189.634 52.5089 194.953 52.793C200.271 53.077 204.573 56.3234 204.573 60.0567C204.573 63.7901 200.271 66.3872 194.953 65.8191C189.634 65.2509 185.332 62.0046 185.332 58.5553Z" fill="#FF87C0"></path>
            <path d="M168.48 57.2172C168.48 54.0926 172.587 51.7795 177.671 52.0636C182.755 52.3476 186.861 55.31 186.861 58.6375C186.861 62.0056 182.755 64.3187 177.671 63.7911C172.587 63.2636 168.48 60.3418 168.48 57.2172Z" fill="#FF87C0"></path>
            <path d="M151.621 55.9187C151.621 53.1187 155.532 51.0897 160.342 51.3332C165.153 51.6173 169.063 54.255 169.063 57.2579C169.063 60.2608 165.153 62.3303 160.342 61.8434C155.532 61.3564 151.621 58.6781 151.621 55.9187Z" fill="#FF87C0"></path>
            <path d="M134.77 54.5792C134.77 52.1038 138.485 50.2777 143.061 50.5618C147.636 50.8053 151.352 53.1995 151.352 55.8777C151.352 58.556 147.636 60.3415 143.061 59.8951C138.485 59.4488 134.77 57.0545 134.77 54.5792Z" fill="#FF87C0"></path>
            <path d="M117.953 53.2812C117.953 51.0899 121.473 49.5073 125.775 49.7507C130.116 49.9942 133.597 52.1044 133.597 54.4986C133.597 56.8522 130.077 58.4348 125.775 58.029C121.434 57.5826 117.953 55.4725 117.953 53.2812Z" fill="#FF87C0"></path>
            <path d="M101.094 51.9414C101.094 50.0342 104.379 48.6544 108.485 48.8979C112.553 49.1414 115.877 51.0081 115.877 53.0776C115.877 55.1472 112.592 56.5269 108.485 56.1211C104.418 55.7153 101.094 53.8487 101.094 51.9414Z" fill="#FF87C0"></path>
            <path d="M84.2422 50.6424C84.2422 48.9787 87.3318 47.8424 91.1644 48.0453C94.997 48.2888 98.0866 49.912 98.0866 51.6975C98.0866 53.483 94.997 54.6598 91.1644 54.2946C87.3318 53.9294 84.2422 52.2656 84.2422 50.6424Z" fill="#FF87C0"></path>
            <path d="M67.3867 49.3029C67.3867 47.8826 70.2807 46.9087 73.8787 47.1116C77.4767 47.3145 80.3707 48.7754 80.3707 50.3174C80.3707 51.8595 77.4767 52.8334 73.8787 52.5087C70.2807 52.1841 67.3867 50.7232 67.3867 49.3029Z" fill="#FF87C0"></path>
            <path d="M50.5273 48.0053C50.5273 46.7879 53.2258 46.0169 56.5501 46.2198C59.8743 46.4227 62.5728 47.6401 62.5728 48.9792C62.5728 50.2777 59.8743 51.0893 56.5501 50.7647C53.2258 50.4401 50.5273 49.2227 50.5273 48.0053Z" fill="#FF87C0"></path>
            <path d="M33.7109 46.6669C33.7109 45.6524 36.2139 45.0031 39.3035 45.206C42.393 45.4089 44.896 46.4234 44.896 47.519C44.896 48.6147 42.393 49.264 39.3035 48.9799C36.2139 48.6958 33.7109 47.6408 33.7109 46.6669Z" fill="#FF87C0"></path>
            <path d="M16.8555 45.3677C16.8555 44.5561 19.1629 44.0286 21.9787 44.2315C24.8336 44.4344 27.1019 45.2866 27.1019 46.1793C27.1019 47.0721 24.7945 47.559 21.9787 47.3155C19.1238 47.0721 16.8555 46.1793 16.8555 45.3677Z" fill="#FF87C0"></path>
            <path d="M0 44.0282C0 43.3789 2.11186 43.0137 4.69302 43.176C7.27419 43.3383 9.38605 44.0688 9.38605 44.7586C9.38605 45.4891 7.27419 45.8543 4.69302 45.6108C2.11186 45.4079 0 44.6775 0 44.0282Z" fill="#FF87C0"></path>
            <path d="M219.008 43.7454C219.008 39.5251 223.701 36.0758 229.528 36.0758C235.355 36.0758 240.048 39.728 240.048 44.2729C240.048 48.8179 235.355 52.2266 229.528 51.9425C223.701 51.6179 219.008 47.9657 219.008 43.7454Z" fill="#FF87C0"></path>
            <path d="M202.152 43.2987C202.152 39.4436 206.65 36.3595 212.203 36.3595C217.757 36.3595 222.254 39.6871 222.254 43.8262C222.254 47.9653 217.757 51.0494 212.203 50.7653C206.65 50.4813 202.152 47.1132 202.152 43.2987Z" fill="#FF87C0"></path>
            <path d="M185.332 42.8535C185.332 39.3636 189.634 36.5636 194.953 36.5636C200.271 36.5636 204.573 39.6071 204.573 43.3404C204.573 47.0738 200.271 49.8738 194.953 49.6303C189.634 49.3462 185.332 46.3433 185.332 42.8535Z" fill="#FF87C0"></path>
            <path d="M168.48 42.4064C168.48 39.2817 172.587 36.7658 177.671 36.7658C182.755 36.7658 186.861 39.5252 186.861 42.8933C186.861 46.2614 182.755 48.7774 177.671 48.5339C172.587 48.2904 168.48 45.531 168.48 42.4064Z" fill="#FF87C0"></path>
            <path d="M151.621 41.9598C151.621 39.1598 155.532 36.9279 160.342 36.9279C165.153 36.9279 169.063 39.4032 169.063 42.4061C169.063 45.409 165.153 47.6815 160.342 47.438C155.532 47.1945 151.621 44.7598 151.621 41.9598Z" fill="#FF87C0"></path>
            <path d="M134.77 41.5147C134.77 39.0393 138.485 37.0509 143.061 37.0509C147.636 37.0509 151.352 39.2422 151.352 41.9611C151.352 44.6393 147.636 46.6277 143.061 46.4248C138.485 46.2219 134.77 44.0306 134.77 41.5147Z" fill="#FF87C0"></path>
            <path d="M117.953 41.1083C117.953 38.917 121.473 37.172 125.775 37.172C130.116 37.172 133.597 39.1199 133.597 41.5141C133.597 43.8677 130.077 45.6532 125.775 45.4503C121.434 45.2474 117.953 43.2996 117.953 41.1083Z" fill="#FF87C0"></path>
            <path d="M101.094 40.6626C101.094 38.7553 104.379 37.2133 108.485 37.2539C112.553 37.2539 115.877 38.9988 115.877 41.0684C115.877 43.1379 112.592 44.68 108.485 44.4771C104.418 44.2742 101.094 42.6104 101.094 40.6626Z" fill="#FF87C0"></path>
            <path d="M84.2422 40.2154C84.2422 38.5516 87.3318 37.2531 91.1644 37.2531C94.997 37.2531 98.0866 38.7545 98.0866 40.5806C98.0866 42.3661 94.997 43.7053 91.1644 43.5429C87.3318 43.3806 84.2422 41.8792 84.2422 40.2154Z" fill="#FF87C0"></path>
            <path d="M67.3867 39.7681C67.3867 38.3478 70.2807 37.2116 73.8787 37.2522C77.4767 37.2522 80.3707 38.5507 80.3707 40.0928C80.3707 41.6348 77.4767 42.771 73.8787 42.6087C70.2807 42.4464 67.3867 41.1884 67.3867 39.7681Z" fill="#FF87C0"></path>
            <path d="M50.5273 39.3225C50.5273 38.1051 53.2258 37.1718 56.5501 37.2124C59.8743 37.2124 62.5728 38.3486 62.5728 39.6471C62.5728 40.9457 59.8743 41.879 56.5501 41.7573C53.2258 41.6356 50.5273 40.5399 50.5273 39.3225Z" fill="#FF87C0"></path>
            <path d="M33.7109 38.8765C33.7109 37.862 36.2139 37.091 39.3035 37.1316C42.393 37.1316 44.896 38.0649 44.896 39.1606C44.896 40.2562 42.393 41.0272 39.3035 40.9055C36.2139 40.7837 33.7109 39.8504 33.7109 38.8765Z" fill="#FF87C0"></path>
            <path d="M16.8555 38.4711C16.8555 37.6595 19.1629 37.0102 21.9787 37.0508C24.8336 37.0508 27.1019 37.8218 27.1019 38.7146C27.1019 39.6073 24.7945 40.216 21.9787 40.1348C19.1238 40.0131 16.8555 39.2827 16.8555 38.4711Z" fill="#FF87C0"></path>
            <path d="M0 38.0239C0 37.3747 2.11186 36.8877 4.69302 36.9283C7.27419 36.9283 9.38605 37.5776 9.38605 38.2674C9.38605 38.9979 7.27419 39.4848 4.69302 39.3631C2.11186 39.2819 0 38.6732 0 38.0239Z" fill="#FF87C0"></path>
            <path d="M219.008 26.2951C219.008 22.0748 223.701 18.382 229.528 18.098C235.355 17.7733 240.048 21.2226 240.048 25.7675C240.048 30.3125 235.355 33.9646 229.528 33.9646C223.701 33.9646 219.008 30.5154 219.008 26.2951Z" fill="#FF87C0"></path>
            <path d="M202.152 26.7006C202.152 22.8455 206.65 19.518 212.203 19.2339C217.757 18.9498 222.254 22.0745 222.254 26.173C222.254 30.3122 217.757 33.6397 212.203 33.6397C206.65 33.6397 202.152 30.5151 202.152 26.7006Z" fill="#FF87C0"></path>
            <path d="M185.332 27.1481C185.332 23.6583 189.634 20.6554 194.953 20.3713C200.271 20.0872 204.573 22.9278 204.573 26.6612C204.573 30.3945 200.271 33.438 194.953 33.438C189.634 33.438 185.332 30.638 185.332 27.1481Z" fill="#FF87C0"></path>
            <path d="M168.48 27.5932C168.48 24.4686 172.587 21.7497 177.671 21.4657C182.755 21.2222 186.861 23.7381 186.861 27.1062C186.861 30.4743 182.755 33.1932 177.671 33.2338C172.587 33.2338 168.48 30.7178 168.48 27.5932Z" fill="#FF87C0"></path>
            <path d="M151.621 28.0388C151.621 25.2388 155.532 22.804 160.342 22.5605C165.153 22.317 169.063 24.5895 169.063 27.5924C169.063 30.5953 165.153 33.0707 160.342 33.0707C155.532 33.0707 151.621 30.8388 151.621 28.0388Z" fill="#FF87C0"></path>
            <path d="M134.77 28.4856C134.77 26.0102 138.485 23.8189 143.061 23.5754C147.636 23.3725 151.352 25.3609 151.352 28.0392C151.352 30.7175 147.636 32.9088 143.061 32.9493C138.485 32.9493 134.77 30.9609 134.77 28.4856Z" fill="#FF87C0"></path>
            <path d="M117.953 28.932C117.953 26.7406 121.473 24.7928 125.775 24.5899C130.116 24.387 133.597 26.132 133.597 28.5262C133.597 30.8798 130.077 32.8276 125.775 32.8682C121.434 32.8682 117.953 31.1233 117.953 28.932Z" fill="#FF87C0"></path>
            <path d="M101.094 29.3375C101.094 27.4302 104.379 25.7259 108.485 25.523C112.553 25.3201 115.877 26.8621 115.877 28.9317C115.877 31.0012 112.592 32.7056 108.485 32.7462C104.418 32.7462 101.094 31.2447 101.094 29.3375Z" fill="#FF87C0"></path>
            <path d="M84.2422 29.7857C84.2422 28.1219 87.3318 26.6611 91.1644 26.4582C94.997 26.2959 98.0866 27.5944 98.0866 29.4205C98.0866 31.206 94.997 32.7075 91.1644 32.748C87.3318 32.748 84.2422 31.4495 84.2422 29.7857Z" fill="#FF87C0"></path>
            <path d="M67.3867 30.2317C67.3867 28.8114 70.2807 27.5534 73.8787 27.3911C77.4767 27.2288 80.3707 28.365 80.3707 29.907C80.3707 31.4491 77.4767 32.707 73.8787 32.7476C70.2807 32.7476 67.3867 31.652 67.3867 30.2317Z" fill="#FF87C0"></path>
            <path d="M50.5273 30.6771C50.5273 29.4597 53.2258 28.4046 56.5501 28.2423C59.8743 28.1205 62.5728 29.0539 62.5728 30.3524C62.5728 31.651 59.8743 32.7466 56.5501 32.7872C53.2258 32.7872 50.5273 31.8944 50.5273 30.6771Z" fill="#FF87C0"></path>
            <path d="M33.7109 31.1233C33.7109 30.1088 36.2139 29.2161 39.3035 29.0943C42.393 28.9726 44.896 29.7436 44.896 30.8393C44.896 31.9349 42.393 32.8277 39.3035 32.8682C36.2139 32.8682 33.7109 32.1378 33.7109 31.1233Z" fill="#FF87C0"></path>
            <path d="M16.8555 31.5702C16.8555 30.7586 19.1629 29.9876 21.9787 29.9064C24.8336 29.7847 27.1019 30.434 27.1019 31.3267C27.1019 32.2195 24.7945 32.9499 21.9787 32.9905C19.1238 32.9905 16.8555 32.3818 16.8555 31.5702Z" fill="#FF87C0"></path>
            <path d="M0 31.9771C0 31.3278 2.11186 30.7191 4.69302 30.6379C7.27419 30.5568 9.38605 31.0437 9.38605 31.7336C9.38605 32.464 7.27419 33.0321 4.69302 33.0727C2.11186 33.1539 0 32.6263 0 31.9771Z" fill="#FF87C0"></path>
            <path d="M219.008 8.84601C219.008 4.62573 223.701 0.689494 229.528 0.0807984C235.355 -0.527897 240.048 2.63732 240.048 7.18225C240.048 11.7272 235.355 15.6228 229.528 15.9475C223.701 16.2315 219.008 13.0663 219.008 8.84601Z" fill="#FF87C0"></path>
            <path d="M202.152 10.1443C202.152 6.28922 206.65 2.71821 212.203 2.15009C217.757 1.58198 222.254 4.46313 222.254 8.56169C222.254 12.7008 217.757 16.2718 212.203 16.5559C206.65 16.8399 202.152 13.9588 202.152 10.1443Z" fill="#FF87C0"></path>
            <path d="M185.332 11.4829C185.332 7.99304 189.634 4.74666 194.953 4.21912C200.271 3.65101 204.573 6.24811 204.573 9.98144C204.573 13.7148 200.271 16.9612 194.953 17.2452C189.634 17.5293 185.332 14.9322 185.332 11.4829Z" fill="#FF87C0"></path>
            <path d="M168.48 12.7817C168.48 9.65706 172.587 6.69474 177.671 6.20779C182.755 5.68025 186.861 7.99329 186.861 11.3614C186.861 14.7295 182.755 17.6918 177.671 17.9353C172.587 18.2194 168.48 15.9063 168.48 12.7817Z" fill="#FF87C0"></path>
            <path d="M151.621 14.1208C151.621 11.3208 155.532 8.68309 160.342 8.19613C165.153 7.70918 169.063 9.73816 169.063 12.7816C169.063 15.7845 165.153 18.4628 160.342 18.7063C155.532 18.9903 151.621 16.9208 151.621 14.1208Z" fill="#FF87C0"></path>
            <path d="M134.77 15.4199C134.77 12.9446 138.485 10.5504 143.061 10.104C147.636 9.65763 151.352 11.4431 151.352 14.1214C151.352 16.7997 147.636 19.1939 143.061 19.4373C138.485 19.6808 134.77 17.8953 134.77 15.4199Z" fill="#FF87C0"></path>
            <path d="M117.953 16.7592C117.953 14.5679 121.473 12.4578 125.775 12.0114C130.116 11.565 133.597 13.1476 133.597 15.5418C133.597 17.8955 130.077 20.0462 125.775 20.2897C121.434 20.5331 117.953 18.9505 117.953 16.7592Z" fill="#FF87C0"></path>
            <path d="M101.094 18.0572C101.094 16.15 104.379 14.2833 108.485 13.8775C112.553 13.4717 115.877 14.8514 115.877 16.921C115.877 18.9906 112.592 20.8572 108.485 21.1007C104.418 21.3442 101.094 19.9645 101.094 18.0572Z" fill="#FF87C0"></path>
            <path d="M84.2422 19.3971C84.2422 17.7333 87.3318 16.1101 91.1644 15.7449C94.997 15.3797 98.0866 16.5159 98.0866 18.342C98.0866 20.1275 94.997 21.7913 91.1644 21.9942C87.3318 22.2377 84.2422 21.0609 84.2422 19.3971Z" fill="#FF87C0"></path>
            <path d="M67.3867 20.6949C67.3867 19.2746 70.2807 17.8544 73.8787 17.4891C77.4767 17.1645 80.3707 18.1384 80.3707 19.6804C80.3707 21.2225 77.4767 22.6428 73.8787 22.8862C70.2807 23.0891 67.3867 22.1152 67.3867 20.6949Z" fill="#FF87C0"></path>
            <path d="M50.5273 22.0351C50.5273 20.8177 53.2258 19.6003 56.5501 19.2757C59.8743 18.951 62.5728 19.7626 62.5728 21.0612C62.5728 22.3597 59.8743 23.5771 56.5501 23.8206C53.2258 24.0235 50.5273 23.2119 50.5273 22.0351Z" fill="#FF87C0"></path>
            <path d="M33.7109 23.3333C33.7109 22.3188 36.2139 21.3043 39.3035 21.0203C42.393 20.7362 44.896 21.3855 44.896 22.4811C44.896 23.5768 42.393 24.5913 39.3035 24.7942C36.2139 24.9971 33.7109 24.3478 33.7109 23.3333Z" fill="#FF87C0"></path>
            <path d="M16.8555 24.6719C16.8555 23.8603 19.1629 23.0081 21.9787 22.7241C24.8336 22.4806 27.1019 22.9676 27.1019 23.8603C27.1019 24.7531 24.7945 25.6052 21.9787 25.8081C19.1238 26.011 16.8555 25.4835 16.8555 24.6719Z" fill="#FF87C0"></path>
            <path d="M0 25.9698C0 25.3205 2.11186 24.5901 4.69302 24.3872C7.27419 24.1437 9.38605 24.5495 9.38605 25.2394C9.38605 25.9698 7.27419 26.6597 4.69302 26.822C2.11186 27.0249 0 26.6191 0 25.9698Z" fill="#FF87C0"></path>
        </g>
        <animate attributeName="x" from="5000" to="0" dur="50s" repeatCount="indefinite"></animate>
    </pattern><pattern class="ribbon__svg__pattern" id="ribbon-pink-pattern" x="0" y="0" width="240" height="71" patternUnits="userSpaceOnUse">
        <path d="m0 0h2631v75h-2631z" fill="#00ADFF"></path>
        <g class="tape__circles" fill="#FD800C">
            <path d="M219.008 61.1943C219.008 56.974 223.701 53.8088 229.528 54.0928C235.355 54.3769 240.048 58.3131 240.048 62.8581C240.048 67.403 235.355 70.5682 229.528 69.9595C223.701 69.3508 219.008 65.4146 219.008 61.1943Z" fill="#FF87C0"></path>
            <path d="M202.152 59.8544C202.152 55.9994 206.65 53.1588 212.203 53.4428C217.757 53.7269 222.254 57.2979 222.254 61.4371C222.254 65.5762 217.757 68.4573 212.203 67.8486C206.65 67.2805 202.152 63.6689 202.152 59.8544Z" fill="#FF87C0"></path>
            <path d="M185.332 58.5553C185.332 55.0654 189.634 52.5089 194.953 52.793C200.271 53.077 204.573 56.3234 204.573 60.0567C204.573 63.7901 200.271 66.3872 194.953 65.8191C189.634 65.2509 185.332 62.0046 185.332 58.5553Z" fill="#FF87C0"></path>
            <path d="M168.48 57.2172C168.48 54.0926 172.587 51.7795 177.671 52.0636C182.755 52.3476 186.861 55.31 186.861 58.6375C186.861 62.0056 182.755 64.3187 177.671 63.7911C172.587 63.2636 168.48 60.3418 168.48 57.2172Z" fill="#FF87C0"></path>
            <path d="M151.621 55.9187C151.621 53.1187 155.532 51.0897 160.342 51.3332C165.153 51.6173 169.063 54.255 169.063 57.2579C169.063 60.2608 165.153 62.3303 160.342 61.8434C155.532 61.3564 151.621 58.6781 151.621 55.9187Z" fill="#FF87C0"></path>
            <path d="M134.77 54.5792C134.77 52.1038 138.485 50.2777 143.061 50.5618C147.636 50.8053 151.352 53.1995 151.352 55.8777C151.352 58.556 147.636 60.3415 143.061 59.8951C138.485 59.4488 134.77 57.0545 134.77 54.5792Z" fill="#FF87C0"></path>
            <path d="M117.953 53.2812C117.953 51.0899 121.473 49.5073 125.775 49.7507C130.116 49.9942 133.597 52.1044 133.597 54.4986C133.597 56.8522 130.077 58.4348 125.775 58.029C121.434 57.5826 117.953 55.4725 117.953 53.2812Z" fill="#FF87C0"></path>
            <path d="M101.094 51.9414C101.094 50.0342 104.379 48.6544 108.485 48.8979C112.553 49.1414 115.877 51.0081 115.877 53.0776C115.877 55.1472 112.592 56.5269 108.485 56.1211C104.418 55.7153 101.094 53.8487 101.094 51.9414Z" fill="#FF87C0"></path>
            <path d="M84.2422 50.6424C84.2422 48.9787 87.3318 47.8424 91.1644 48.0453C94.997 48.2888 98.0866 49.912 98.0866 51.6975C98.0866 53.483 94.997 54.6598 91.1644 54.2946C87.3318 53.9294 84.2422 52.2656 84.2422 50.6424Z" fill="#FF87C0"></path>
            <path d="M67.3867 49.3029C67.3867 47.8826 70.2807 46.9087 73.8787 47.1116C77.4767 47.3145 80.3707 48.7754 80.3707 50.3174C80.3707 51.8595 77.4767 52.8334 73.8787 52.5087C70.2807 52.1841 67.3867 50.7232 67.3867 49.3029Z" fill="#FF87C0"></path>
            <path d="M50.5273 48.0053C50.5273 46.7879 53.2258 46.0169 56.5501 46.2198C59.8743 46.4227 62.5728 47.6401 62.5728 48.9792C62.5728 50.2777 59.8743 51.0893 56.5501 50.7647C53.2258 50.4401 50.5273 49.2227 50.5273 48.0053Z" fill="#FF87C0"></path>
            <path d="M33.7109 46.6669C33.7109 45.6524 36.2139 45.0031 39.3035 45.206C42.393 45.4089 44.896 46.4234 44.896 47.519C44.896 48.6147 42.393 49.264 39.3035 48.9799C36.2139 48.6958 33.7109 47.6408 33.7109 46.6669Z" fill="#FF87C0"></path>
            <path d="M16.8555 45.3677C16.8555 44.5561 19.1629 44.0286 21.9787 44.2315C24.8336 44.4344 27.1019 45.2866 27.1019 46.1793C27.1019 47.0721 24.7945 47.559 21.9787 47.3155C19.1238 47.0721 16.8555 46.1793 16.8555 45.3677Z" fill="#FF87C0"></path>
            <path d="M0 44.0282C0 43.3789 2.11186 43.0137 4.69302 43.176C7.27419 43.3383 9.38605 44.0688 9.38605 44.7586C9.38605 45.4891 7.27419 45.8543 4.69302 45.6108C2.11186 45.4079 0 44.6775 0 44.0282Z" fill="#FF87C0"></path>
            <path d="M219.008 43.7454C219.008 39.5251 223.701 36.0758 229.528 36.0758C235.355 36.0758 240.048 39.728 240.048 44.2729C240.048 48.8179 235.355 52.2266 229.528 51.9425C223.701 51.6179 219.008 47.9657 219.008 43.7454Z" fill="#FF87C0"></path>
            <path d="M202.152 43.2987C202.152 39.4436 206.65 36.3595 212.203 36.3595C217.757 36.3595 222.254 39.6871 222.254 43.8262C222.254 47.9653 217.757 51.0494 212.203 50.7653C206.65 50.4813 202.152 47.1132 202.152 43.2987Z" fill="#FF87C0"></path>
            <path d="M185.332 42.8535C185.332 39.3636 189.634 36.5636 194.953 36.5636C200.271 36.5636 204.573 39.6071 204.573 43.3404C204.573 47.0738 200.271 49.8738 194.953 49.6303C189.634 49.3462 185.332 46.3433 185.332 42.8535Z" fill="#FF87C0"></path>
            <path d="M168.48 42.4064C168.48 39.2817 172.587 36.7658 177.671 36.7658C182.755 36.7658 186.861 39.5252 186.861 42.8933C186.861 46.2614 182.755 48.7774 177.671 48.5339C172.587 48.2904 168.48 45.531 168.48 42.4064Z" fill="#FF87C0"></path>
            <path d="M151.621 41.9598C151.621 39.1598 155.532 36.9279 160.342 36.9279C165.153 36.9279 169.063 39.4032 169.063 42.4061C169.063 45.409 165.153 47.6815 160.342 47.438C155.532 47.1945 151.621 44.7598 151.621 41.9598Z" fill="#FF87C0"></path>
            <path d="M134.77 41.5147C134.77 39.0393 138.485 37.0509 143.061 37.0509C147.636 37.0509 151.352 39.2422 151.352 41.9611C151.352 44.6393 147.636 46.6277 143.061 46.4248C138.485 46.2219 134.77 44.0306 134.77 41.5147Z" fill="#FF87C0"></path>
            <path d="M117.953 41.1083C117.953 38.917 121.473 37.172 125.775 37.172C130.116 37.172 133.597 39.1199 133.597 41.5141C133.597 43.8677 130.077 45.6532 125.775 45.4503C121.434 45.2474 117.953 43.2996 117.953 41.1083Z" fill="#FF87C0"></path>
            <path d="M101.094 40.6626C101.094 38.7553 104.379 37.2133 108.485 37.2539C112.553 37.2539 115.877 38.9988 115.877 41.0684C115.877 43.1379 112.592 44.68 108.485 44.4771C104.418 44.2742 101.094 42.6104 101.094 40.6626Z" fill="#FF87C0"></path>
            <path d="M84.2422 40.2154C84.2422 38.5516 87.3318 37.2531 91.1644 37.2531C94.997 37.2531 98.0866 38.7545 98.0866 40.5806C98.0866 42.3661 94.997 43.7053 91.1644 43.5429C87.3318 43.3806 84.2422 41.8792 84.2422 40.2154Z" fill="#FF87C0"></path>
            <path d="M67.3867 39.7681C67.3867 38.3478 70.2807 37.2116 73.8787 37.2522C77.4767 37.2522 80.3707 38.5507 80.3707 40.0928C80.3707 41.6348 77.4767 42.771 73.8787 42.6087C70.2807 42.4464 67.3867 41.1884 67.3867 39.7681Z" fill="#FF87C0"></path>
            <path d="M50.5273 39.3225C50.5273 38.1051 53.2258 37.1718 56.5501 37.2124C59.8743 37.2124 62.5728 38.3486 62.5728 39.6471C62.5728 40.9457 59.8743 41.879 56.5501 41.7573C53.2258 41.6356 50.5273 40.5399 50.5273 39.3225Z" fill="#FF87C0"></path>
            <path d="M33.7109 38.8765C33.7109 37.862 36.2139 37.091 39.3035 37.1316C42.393 37.1316 44.896 38.0649 44.896 39.1606C44.896 40.2562 42.393 41.0272 39.3035 40.9055C36.2139 40.7837 33.7109 39.8504 33.7109 38.8765Z" fill="#FF87C0"></path>
            <path d="M16.8555 38.4711C16.8555 37.6595 19.1629 37.0102 21.9787 37.0508C24.8336 37.0508 27.1019 37.8218 27.1019 38.7146C27.1019 39.6073 24.7945 40.216 21.9787 40.1348C19.1238 40.0131 16.8555 39.2827 16.8555 38.4711Z" fill="#FF87C0"></path>
            <path d="M0 38.0239C0 37.3747 2.11186 36.8877 4.69302 36.9283C7.27419 36.9283 9.38605 37.5776 9.38605 38.2674C9.38605 38.9979 7.27419 39.4848 4.69302 39.3631C2.11186 39.2819 0 38.6732 0 38.0239Z" fill="#FF87C0"></path>
            <path d="M219.008 26.2951C219.008 22.0748 223.701 18.382 229.528 18.098C235.355 17.7733 240.048 21.2226 240.048 25.7675C240.048 30.3125 235.355 33.9646 229.528 33.9646C223.701 33.9646 219.008 30.5154 219.008 26.2951Z" fill="#FF87C0"></path>
            <path d="M202.152 26.7006C202.152 22.8455 206.65 19.518 212.203 19.2339C217.757 18.9498 222.254 22.0745 222.254 26.173C222.254 30.3122 217.757 33.6397 212.203 33.6397C206.65 33.6397 202.152 30.5151 202.152 26.7006Z" fill="#FF87C0"></path>
            <path d="M185.332 27.1481C185.332 23.6583 189.634 20.6554 194.953 20.3713C200.271 20.0872 204.573 22.9278 204.573 26.6612C204.573 30.3945 200.271 33.438 194.953 33.438C189.634 33.438 185.332 30.638 185.332 27.1481Z" fill="#FF87C0"></path>
            <path d="M168.48 27.5932C168.48 24.4686 172.587 21.7497 177.671 21.4657C182.755 21.2222 186.861 23.7381 186.861 27.1062C186.861 30.4743 182.755 33.1932 177.671 33.2338C172.587 33.2338 168.48 30.7178 168.48 27.5932Z" fill="#FF87C0"></path>
            <path d="M151.621 28.0388C151.621 25.2388 155.532 22.804 160.342 22.5605C165.153 22.317 169.063 24.5895 169.063 27.5924C169.063 30.5953 165.153 33.0707 160.342 33.0707C155.532 33.0707 151.621 30.8388 151.621 28.0388Z" fill="#FF87C0"></path>
            <path d="M134.77 28.4856C134.77 26.0102 138.485 23.8189 143.061 23.5754C147.636 23.3725 151.352 25.3609 151.352 28.0392C151.352 30.7175 147.636 32.9088 143.061 32.9493C138.485 32.9493 134.77 30.9609 134.77 28.4856Z" fill="#FF87C0"></path>
            <path d="M117.953 28.932C117.953 26.7406 121.473 24.7928 125.775 24.5899C130.116 24.387 133.597 26.132 133.597 28.5262C133.597 30.8798 130.077 32.8276 125.775 32.8682C121.434 32.8682 117.953 31.1233 117.953 28.932Z" fill="#FF87C0"></path>
            <path d="M101.094 29.3375C101.094 27.4302 104.379 25.7259 108.485 25.523C112.553 25.3201 115.877 26.8621 115.877 28.9317C115.877 31.0012 112.592 32.7056 108.485 32.7462C104.418 32.7462 101.094 31.2447 101.094 29.3375Z" fill="#FF87C0"></path>
            <path d="M84.2422 29.7857C84.2422 28.1219 87.3318 26.6611 91.1644 26.4582C94.997 26.2959 98.0866 27.5944 98.0866 29.4205C98.0866 31.206 94.997 32.7075 91.1644 32.748C87.3318 32.748 84.2422 31.4495 84.2422 29.7857Z" fill="#FF87C0"></path>
            <path d="M67.3867 30.2317C67.3867 28.8114 70.2807 27.5534 73.8787 27.3911C77.4767 27.2288 80.3707 28.365 80.3707 29.907C80.3707 31.4491 77.4767 32.707 73.8787 32.7476C70.2807 32.7476 67.3867 31.652 67.3867 30.2317Z" fill="#FF87C0"></path>
            <path d="M50.5273 30.6771C50.5273 29.4597 53.2258 28.4046 56.5501 28.2423C59.8743 28.1205 62.5728 29.0539 62.5728 30.3524C62.5728 31.651 59.8743 32.7466 56.5501 32.7872C53.2258 32.7872 50.5273 31.8944 50.5273 30.6771Z" fill="#FF87C0"></path>
            <path d="M33.7109 31.1233C33.7109 30.1088 36.2139 29.2161 39.3035 29.0943C42.393 28.9726 44.896 29.7436 44.896 30.8393C44.896 31.9349 42.393 32.8277 39.3035 32.8682C36.2139 32.8682 33.7109 32.1378 33.7109 31.1233Z" fill="#FF87C0"></path>
            <path d="M16.8555 31.5702C16.8555 30.7586 19.1629 29.9876 21.9787 29.9064C24.8336 29.7847 27.1019 30.434 27.1019 31.3267C27.1019 32.2195 24.7945 32.9499 21.9787 32.9905C19.1238 32.9905 16.8555 32.3818 16.8555 31.5702Z" fill="#FF87C0"></path>
            <path d="M0 31.9771C0 31.3278 2.11186 30.7191 4.69302 30.6379C7.27419 30.5568 9.38605 31.0437 9.38605 31.7336C9.38605 32.464 7.27419 33.0321 4.69302 33.0727C2.11186 33.1539 0 32.6263 0 31.9771Z" fill="#FF87C0"></path>
            <path d="M219.008 8.84601C219.008 4.62573 223.701 0.689494 229.528 0.0807984C235.355 -0.527897 240.048 2.63732 240.048 7.18225C240.048 11.7272 235.355 15.6228 229.528 15.9475C223.701 16.2315 219.008 13.0663 219.008 8.84601Z" fill="#FF87C0"></path>
            <path d="M202.152 10.1443C202.152 6.28922 206.65 2.71821 212.203 2.15009C217.757 1.58198 222.254 4.46313 222.254 8.56169C222.254 12.7008 217.757 16.2718 212.203 16.5559C206.65 16.8399 202.152 13.9588 202.152 10.1443Z" fill="#FF87C0"></path>
            <path d="M185.332 11.4829C185.332 7.99304 189.634 4.74666 194.953 4.21912C200.271 3.65101 204.573 6.24811 204.573 9.98144C204.573 13.7148 200.271 16.9612 194.953 17.2452C189.634 17.5293 185.332 14.9322 185.332 11.4829Z" fill="#FF87C0"></path>
            <path d="M168.48 12.7817C168.48 9.65706 172.587 6.69474 177.671 6.20779C182.755 5.68025 186.861 7.99329 186.861 11.3614C186.861 14.7295 182.755 17.6918 177.671 17.9353C172.587 18.2194 168.48 15.9063 168.48 12.7817Z" fill="#FF87C0"></path>
            <path d="M151.621 14.1208C151.621 11.3208 155.532 8.68309 160.342 8.19613C165.153 7.70918 169.063 9.73816 169.063 12.7816C169.063 15.7845 165.153 18.4628 160.342 18.7063C155.532 18.9903 151.621 16.9208 151.621 14.1208Z" fill="#FF87C0"></path>
            <path d="M134.77 15.4199C134.77 12.9446 138.485 10.5504 143.061 10.104C147.636 9.65763 151.352 11.4431 151.352 14.1214C151.352 16.7997 147.636 19.1939 143.061 19.4373C138.485 19.6808 134.77 17.8953 134.77 15.4199Z" fill="#FF87C0"></path>
            <path d="M117.953 16.7592C117.953 14.5679 121.473 12.4578 125.775 12.0114C130.116 11.565 133.597 13.1476 133.597 15.5418C133.597 17.8955 130.077 20.0462 125.775 20.2897C121.434 20.5331 117.953 18.9505 117.953 16.7592Z" fill="#FF87C0"></path>
            <path d="M101.094 18.0572C101.094 16.15 104.379 14.2833 108.485 13.8775C112.553 13.4717 115.877 14.8514 115.877 16.921C115.877 18.9906 112.592 20.8572 108.485 21.1007C104.418 21.3442 101.094 19.9645 101.094 18.0572Z" fill="#FF87C0"></path>
            <path d="M84.2422 19.3971C84.2422 17.7333 87.3318 16.1101 91.1644 15.7449C94.997 15.3797 98.0866 16.5159 98.0866 18.342C98.0866 20.1275 94.997 21.7913 91.1644 21.9942C87.3318 22.2377 84.2422 21.0609 84.2422 19.3971Z" fill="#FF87C0"></path>
            <path d="M67.3867 20.6949C67.3867 19.2746 70.2807 17.8544 73.8787 17.4891C77.4767 17.1645 80.3707 18.1384 80.3707 19.6804C80.3707 21.2225 77.4767 22.6428 73.8787 22.8862C70.2807 23.0891 67.3867 22.1152 67.3867 20.6949Z" fill="#FF87C0"></path>
            <path d="M50.5273 22.0351C50.5273 20.8177 53.2258 19.6003 56.5501 19.2757C59.8743 18.951 62.5728 19.7626 62.5728 21.0612C62.5728 22.3597 59.8743 23.5771 56.5501 23.8206C53.2258 24.0235 50.5273 23.2119 50.5273 22.0351Z" fill="#FF87C0"></path>
            <path d="M33.7109 23.3333C33.7109 22.3188 36.2139 21.3043 39.3035 21.0203C42.393 20.7362 44.896 21.3855 44.896 22.4811C44.896 23.5768 42.393 24.5913 39.3035 24.7942C36.2139 24.9971 33.7109 24.3478 33.7109 23.3333Z" fill="#FF87C0"></path>
            <path d="M16.8555 24.6719C16.8555 23.8603 19.1629 23.0081 21.9787 22.7241C24.8336 22.4806 27.1019 22.9676 27.1019 23.8603C27.1019 24.7531 24.7945 25.6052 21.9787 25.8081C19.1238 26.011 16.8555 25.4835 16.8555 24.6719Z" fill="#FF87C0"></path>
            <path d="M0 25.9698C0 25.3205 2.11186 24.5901 4.69302 24.3872C7.27419 24.1437 9.38605 24.5495 9.38605 25.2394C9.38605 25.9698 7.27419 26.6597 4.69302 26.822C2.11186 27.0249 0 26.6191 0 25.9698Z" fill="#FF87C0"></path>
        </g>
        <animate attributeName="x" from="5000" to="0" dur="50s" repeatCount="indefinite"></animate>
    </pattern></defs>
    <pattern class="ribbon__svg__pattern" id="ribbon-pink-pattern" x="0" y="0" width="240" height="71" patternUnits="userSpaceOnUse">
        <path d="m0 0h2631v75h-2631z" fill="#00ADFF"></path>
        <g class="tape__circles" fill="#FD800C">
            <path d="M219.008 61.1943C219.008 56.974 223.701 53.8088 229.528 54.0928C235.355 54.3769 240.048 58.3131 240.048 62.8581C240.048 67.403 235.355 70.5682 229.528 69.9595C223.701 69.3508 219.008 65.4146 219.008 61.1943Z" fill="#FF87C0"></path>
            <path d="M202.152 59.8544C202.152 55.9994 206.65 53.1588 212.203 53.4428C217.757 53.7269 222.254 57.2979 222.254 61.4371C222.254 65.5762 217.757 68.4573 212.203 67.8486C206.65 67.2805 202.152 63.6689 202.152 59.8544Z" fill="#FF87C0"></path>
            <path d="M185.332 58.5553C185.332 55.0654 189.634 52.5089 194.953 52.793C200.271 53.077 204.573 56.3234 204.573 60.0567C204.573 63.7901 200.271 66.3872 194.953 65.8191C189.634 65.2509 185.332 62.0046 185.332 58.5553Z" fill="#FF87C0"></path>
            <path d="M168.48 57.2172C168.48 54.0926 172.587 51.7795 177.671 52.0636C182.755 52.3476 186.861 55.31 186.861 58.6375C186.861 62.0056 182.755 64.3187 177.671 63.7911C172.587 63.2636 168.48 60.3418 168.48 57.2172Z" fill="#FF87C0"></path>
            <path d="M151.621 55.9187C151.621 53.1187 155.532 51.0897 160.342 51.3332C165.153 51.6173 169.063 54.255 169.063 57.2579C169.063 60.2608 165.153 62.3303 160.342 61.8434C155.532 61.3564 151.621 58.6781 151.621 55.9187Z" fill="#FF87C0"></path>
            <path d="M134.77 54.5792C134.77 52.1038 138.485 50.2777 143.061 50.5618C147.636 50.8053 151.352 53.1995 151.352 55.8777C151.352 58.556 147.636 60.3415 143.061 59.8951C138.485 59.4488 134.77 57.0545 134.77 54.5792Z" fill="#FF87C0"></path>
            <path d="M117.953 53.2812C117.953 51.0899 121.473 49.5073 125.775 49.7507C130.116 49.9942 133.597 52.1044 133.597 54.4986C133.597 56.8522 130.077 58.4348 125.775 58.029C121.434 57.5826 117.953 55.4725 117.953 53.2812Z" fill="#FF87C0"></path>
            <path d="M101.094 51.9414C101.094 50.0342 104.379 48.6544 108.485 48.8979C112.553 49.1414 115.877 51.0081 115.877 53.0776C115.877 55.1472 112.592 56.5269 108.485 56.1211C104.418 55.7153 101.094 53.8487 101.094 51.9414Z" fill="#FF87C0"></path>
            <path d="M84.2422 50.6424C84.2422 48.9787 87.3318 47.8424 91.1644 48.0453C94.997 48.2888 98.0866 49.912 98.0866 51.6975C98.0866 53.483 94.997 54.6598 91.1644 54.2946C87.3318 53.9294 84.2422 52.2656 84.2422 50.6424Z" fill="#FF87C0"></path>
            <path d="M67.3867 49.3029C67.3867 47.8826 70.2807 46.9087 73.8787 47.1116C77.4767 47.3145 80.3707 48.7754 80.3707 50.3174C80.3707 51.8595 77.4767 52.8334 73.8787 52.5087C70.2807 52.1841 67.3867 50.7232 67.3867 49.3029Z" fill="#FF87C0"></path>
            <path d="M50.5273 48.0053C50.5273 46.7879 53.2258 46.0169 56.5501 46.2198C59.8743 46.4227 62.5728 47.6401 62.5728 48.9792C62.5728 50.2777 59.8743 51.0893 56.5501 50.7647C53.2258 50.4401 50.5273 49.2227 50.5273 48.0053Z" fill="#FF87C0"></path>
            <path d="M33.7109 46.6669C33.7109 45.6524 36.2139 45.0031 39.3035 45.206C42.393 45.4089 44.896 46.4234 44.896 47.519C44.896 48.6147 42.393 49.264 39.3035 48.9799C36.2139 48.6958 33.7109 47.6408 33.7109 46.6669Z" fill="#FF87C0"></path>
            <path d="M16.8555 45.3677C16.8555 44.5561 19.1629 44.0286 21.9787 44.2315C24.8336 44.4344 27.1019 45.2866 27.1019 46.1793C27.1019 47.0721 24.7945 47.559 21.9787 47.3155C19.1238 47.0721 16.8555 46.1793 16.8555 45.3677Z" fill="#FF87C0"></path>
            <path d="M0 44.0282C0 43.3789 2.11186 43.0137 4.69302 43.176C7.27419 43.3383 9.38605 44.0688 9.38605 44.7586C9.38605 45.4891 7.27419 45.8543 4.69302 45.6108C2.11186 45.4079 0 44.6775 0 44.0282Z" fill="#FF87C0"></path>
            <path d="M219.008 43.7454C219.008 39.5251 223.701 36.0758 229.528 36.0758C235.355 36.0758 240.048 39.728 240.048 44.2729C240.048 48.8179 235.355 52.2266 229.528 51.9425C223.701 51.6179 219.008 47.9657 219.008 43.7454Z" fill="#FF87C0"></path>
            <path d="M202.152 43.2987C202.152 39.4436 206.65 36.3595 212.203 36.3595C217.757 36.3595 222.254 39.6871 222.254 43.8262C222.254 47.9653 217.757 51.0494 212.203 50.7653C206.65 50.4813 202.152 47.1132 202.152 43.2987Z" fill="#FF87C0"></path>
            <path d="M185.332 42.8535C185.332 39.3636 189.634 36.5636 194.953 36.5636C200.271 36.5636 204.573 39.6071 204.573 43.3404C204.573 47.0738 200.271 49.8738 194.953 49.6303C189.634 49.3462 185.332 46.3433 185.332 42.8535Z" fill="#FF87C0"></path>
            <path d="M168.48 42.4064C168.48 39.2817 172.587 36.7658 177.671 36.7658C182.755 36.7658 186.861 39.5252 186.861 42.8933C186.861 46.2614 182.755 48.7774 177.671 48.5339C172.587 48.2904 168.48 45.531 168.48 42.4064Z" fill="#FF87C0"></path>
            <path d="M151.621 41.9598C151.621 39.1598 155.532 36.9279 160.342 36.9279C165.153 36.9279 169.063 39.4032 169.063 42.4061C169.063 45.409 165.153 47.6815 160.342 47.438C155.532 47.1945 151.621 44.7598 151.621 41.9598Z" fill="#FF87C0"></path>
            <path d="M134.77 41.5147C134.77 39.0393 138.485 37.0509 143.061 37.0509C147.636 37.0509 151.352 39.2422 151.352 41.9611C151.352 44.6393 147.636 46.6277 143.061 46.4248C138.485 46.2219 134.77 44.0306 134.77 41.5147Z" fill="#FF87C0"></path>
            <path d="M117.953 41.1083C117.953 38.917 121.473 37.172 125.775 37.172C130.116 37.172 133.597 39.1199 133.597 41.5141C133.597 43.8677 130.077 45.6532 125.775 45.4503C121.434 45.2474 117.953 43.2996 117.953 41.1083Z" fill="#FF87C0"></path>
            <path d="M101.094 40.6626C101.094 38.7553 104.379 37.2133 108.485 37.2539C112.553 37.2539 115.877 38.9988 115.877 41.0684C115.877 43.1379 112.592 44.68 108.485 44.4771C104.418 44.2742 101.094 42.6104 101.094 40.6626Z" fill="#FF87C0"></path>
            <path d="M84.2422 40.2154C84.2422 38.5516 87.3318 37.2531 91.1644 37.2531C94.997 37.2531 98.0866 38.7545 98.0866 40.5806C98.0866 42.3661 94.997 43.7053 91.1644 43.5429C87.3318 43.3806 84.2422 41.8792 84.2422 40.2154Z" fill="#FF87C0"></path>
            <path d="M67.3867 39.7681C67.3867 38.3478 70.2807 37.2116 73.8787 37.2522C77.4767 37.2522 80.3707 38.5507 80.3707 40.0928C80.3707 41.6348 77.4767 42.771 73.8787 42.6087C70.2807 42.4464 67.3867 41.1884 67.3867 39.7681Z" fill="#FF87C0"></path>
            <path d="M50.5273 39.3225C50.5273 38.1051 53.2258 37.1718 56.5501 37.2124C59.8743 37.2124 62.5728 38.3486 62.5728 39.6471C62.5728 40.9457 59.8743 41.879 56.5501 41.7573C53.2258 41.6356 50.5273 40.5399 50.5273 39.3225Z" fill="#FF87C0"></path>
            <path d="M33.7109 38.8765C33.7109 37.862 36.2139 37.091 39.3035 37.1316C42.393 37.1316 44.896 38.0649 44.896 39.1606C44.896 40.2562 42.393 41.0272 39.3035 40.9055C36.2139 40.7837 33.7109 39.8504 33.7109 38.8765Z" fill="#FF87C0"></path>
            <path d="M16.8555 38.4711C16.8555 37.6595 19.1629 37.0102 21.9787 37.0508C24.8336 37.0508 27.1019 37.8218 27.1019 38.7146C27.1019 39.6073 24.7945 40.216 21.9787 40.1348C19.1238 40.0131 16.8555 39.2827 16.8555 38.4711Z" fill="#FF87C0"></path>
            <path d="M0 38.0239C0 37.3747 2.11186 36.8877 4.69302 36.9283C7.27419 36.9283 9.38605 37.5776 9.38605 38.2674C9.38605 38.9979 7.27419 39.4848 4.69302 39.3631C2.11186 39.2819 0 38.6732 0 38.0239Z" fill="#FF87C0"></path>
            <path d="M219.008 26.2951C219.008 22.0748 223.701 18.382 229.528 18.098C235.355 17.7733 240.048 21.2226 240.048 25.7675C240.048 30.3125 235.355 33.9646 229.528 33.9646C223.701 33.9646 219.008 30.5154 219.008 26.2951Z" fill="#FF87C0"></path>
            <path d="M202.152 26.7006C202.152 22.8455 206.65 19.518 212.203 19.2339C217.757 18.9498 222.254 22.0745 222.254 26.173C222.254 30.3122 217.757 33.6397 212.203 33.6397C206.65 33.6397 202.152 30.5151 202.152 26.7006Z" fill="#FF87C0"></path>
            <path d="M185.332 27.1481C185.332 23.6583 189.634 20.6554 194.953 20.3713C200.271 20.0872 204.573 22.9278 204.573 26.6612C204.573 30.3945 200.271 33.438 194.953 33.438C189.634 33.438 185.332 30.638 185.332 27.1481Z" fill="#FF87C0"></path>
            <path d="M168.48 27.5932C168.48 24.4686 172.587 21.7497 177.671 21.4657C182.755 21.2222 186.861 23.7381 186.861 27.1062C186.861 30.4743 182.755 33.1932 177.671 33.2338C172.587 33.2338 168.48 30.7178 168.48 27.5932Z" fill="#FF87C0"></path>
            <path d="M151.621 28.0388C151.621 25.2388 155.532 22.804 160.342 22.5605C165.153 22.317 169.063 24.5895 169.063 27.5924C169.063 30.5953 165.153 33.0707 160.342 33.0707C155.532 33.0707 151.621 30.8388 151.621 28.0388Z" fill="#FF87C0"></path>
            <path d="M134.77 28.4856C134.77 26.0102 138.485 23.8189 143.061 23.5754C147.636 23.3725 151.352 25.3609 151.352 28.0392C151.352 30.7175 147.636 32.9088 143.061 32.9493C138.485 32.9493 134.77 30.9609 134.77 28.4856Z" fill="#FF87C0"></path>
            <path d="M117.953 28.932C117.953 26.7406 121.473 24.7928 125.775 24.5899C130.116 24.387 133.597 26.132 133.597 28.5262C133.597 30.8798 130.077 32.8276 125.775 32.8682C121.434 32.8682 117.953 31.1233 117.953 28.932Z" fill="#FF87C0"></path>
            <path d="M101.094 29.3375C101.094 27.4302 104.379 25.7259 108.485 25.523C112.553 25.3201 115.877 26.8621 115.877 28.9317C115.877 31.0012 112.592 32.7056 108.485 32.7462C104.418 32.7462 101.094 31.2447 101.094 29.3375Z" fill="#FF87C0"></path>
            <path d="M84.2422 29.7857C84.2422 28.1219 87.3318 26.6611 91.1644 26.4582C94.997 26.2959 98.0866 27.5944 98.0866 29.4205C98.0866 31.206 94.997 32.7075 91.1644 32.748C87.3318 32.748 84.2422 31.4495 84.2422 29.7857Z" fill="#FF87C0"></path>
            <path d="M67.3867 30.2317C67.3867 28.8114 70.2807 27.5534 73.8787 27.3911C77.4767 27.2288 80.3707 28.365 80.3707 29.907C80.3707 31.4491 77.4767 32.707 73.8787 32.7476C70.2807 32.7476 67.3867 31.652 67.3867 30.2317Z" fill="#FF87C0"></path>
            <path d="M50.5273 30.6771C50.5273 29.4597 53.2258 28.4046 56.5501 28.2423C59.8743 28.1205 62.5728 29.0539 62.5728 30.3524C62.5728 31.651 59.8743 32.7466 56.5501 32.7872C53.2258 32.7872 50.5273 31.8944 50.5273 30.6771Z" fill="#FF87C0"></path>
            <path d="M33.7109 31.1233C33.7109 30.1088 36.2139 29.2161 39.3035 29.0943C42.393 28.9726 44.896 29.7436 44.896 30.8393C44.896 31.9349 42.393 32.8277 39.3035 32.8682C36.2139 32.8682 33.7109 32.1378 33.7109 31.1233Z" fill="#FF87C0"></path>
            <path d="M16.8555 31.5702C16.8555 30.7586 19.1629 29.9876 21.9787 29.9064C24.8336 29.7847 27.1019 30.434 27.1019 31.3267C27.1019 32.2195 24.7945 32.9499 21.9787 32.9905C19.1238 32.9905 16.8555 32.3818 16.8555 31.5702Z" fill="#FF87C0"></path>
            <path d="M0 31.9771C0 31.3278 2.11186 30.7191 4.69302 30.6379C7.27419 30.5568 9.38605 31.0437 9.38605 31.7336C9.38605 32.464 7.27419 33.0321 4.69302 33.0727C2.11186 33.1539 0 32.6263 0 31.9771Z" fill="#FF87C0"></path>
            <path d="M219.008 8.84601C219.008 4.62573 223.701 0.689494 229.528 0.0807984C235.355 -0.527897 240.048 2.63732 240.048 7.18225C240.048 11.7272 235.355 15.6228 229.528 15.9475C223.701 16.2315 219.008 13.0663 219.008 8.84601Z" fill="#FF87C0"></path>
            <path d="M202.152 10.1443C202.152 6.28922 206.65 2.71821 212.203 2.15009C217.757 1.58198 222.254 4.46313 222.254 8.56169C222.254 12.7008 217.757 16.2718 212.203 16.5559C206.65 16.8399 202.152 13.9588 202.152 10.1443Z" fill="#FF87C0"></path>
            <path d="M185.332 11.4829C185.332 7.99304 189.634 4.74666 194.953 4.21912C200.271 3.65101 204.573 6.24811 204.573 9.98144C204.573 13.7148 200.271 16.9612 194.953 17.2452C189.634 17.5293 185.332 14.9322 185.332 11.4829Z" fill="#FF87C0"></path>
            <path d="M168.48 12.7817C168.48 9.65706 172.587 6.69474 177.671 6.20779C182.755 5.68025 186.861 7.99329 186.861 11.3614C186.861 14.7295 182.755 17.6918 177.671 17.9353C172.587 18.2194 168.48 15.9063 168.48 12.7817Z" fill="#FF87C0"></path>
            <path d="M151.621 14.1208C151.621 11.3208 155.532 8.68309 160.342 8.19613C165.153 7.70918 169.063 9.73816 169.063 12.7816C169.063 15.7845 165.153 18.4628 160.342 18.7063C155.532 18.9903 151.621 16.9208 151.621 14.1208Z" fill="#FF87C0"></path>
            <path d="M134.77 15.4199C134.77 12.9446 138.485 10.5504 143.061 10.104C147.636 9.65763 151.352 11.4431 151.352 14.1214C151.352 16.7997 147.636 19.1939 143.061 19.4373C138.485 19.6808 134.77 17.8953 134.77 15.4199Z" fill="#FF87C0"></path>
            <path d="M117.953 16.7592C117.953 14.5679 121.473 12.4578 125.775 12.0114C130.116 11.565 133.597 13.1476 133.597 15.5418C133.597 17.8955 130.077 20.0462 125.775 20.2897C121.434 20.5331 117.953 18.9505 117.953 16.7592Z" fill="#FF87C0"></path>
            <path d="M101.094 18.0572C101.094 16.15 104.379 14.2833 108.485 13.8775C112.553 13.4717 115.877 14.8514 115.877 16.921C115.877 18.9906 112.592 20.8572 108.485 21.1007C104.418 21.3442 101.094 19.9645 101.094 18.0572Z" fill="#FF87C0"></path>
            <path d="M84.2422 19.3971C84.2422 17.7333 87.3318 16.1101 91.1644 15.7449C94.997 15.3797 98.0866 16.5159 98.0866 18.342C98.0866 20.1275 94.997 21.7913 91.1644 21.9942C87.3318 22.2377 84.2422 21.0609 84.2422 19.3971Z" fill="#FF87C0"></path>
            <path d="M67.3867 20.6949C67.3867 19.2746 70.2807 17.8544 73.8787 17.4891C77.4767 17.1645 80.3707 18.1384 80.3707 19.6804C80.3707 21.2225 77.4767 22.6428 73.8787 22.8862C70.2807 23.0891 67.3867 22.1152 67.3867 20.6949Z" fill="#FF87C0"></path>
            <path d="M50.5273 22.0351C50.5273 20.8177 53.2258 19.6003 56.5501 19.2757C59.8743 18.951 62.5728 19.7626 62.5728 21.0612C62.5728 22.3597 59.8743 23.5771 56.5501 23.8206C53.2258 24.0235 50.5273 23.2119 50.5273 22.0351Z" fill="#FF87C0"></path>
            <path d="M33.7109 23.3333C33.7109 22.3188 36.2139 21.3043 39.3035 21.0203C42.393 20.7362 44.896 21.3855 44.896 22.4811C44.896 23.5768 42.393 24.5913 39.3035 24.7942C36.2139 24.9971 33.7109 24.3478 33.7109 23.3333Z" fill="#FF87C0"></path>
            <path d="M16.8555 24.6719C16.8555 23.8603 19.1629 23.0081 21.9787 22.7241C24.8336 22.4806 27.1019 22.9676 27.1019 23.8603C27.1019 24.7531 24.7945 25.6052 21.9787 25.8081C19.1238 26.011 16.8555 25.4835 16.8555 24.6719Z" fill="#FF87C0"></path>
            <path d="M0 25.9698C0 25.3205 2.11186 24.5901 4.69302 24.3872C7.27419 24.1437 9.38605 24.5495 9.38605 25.2394C9.38605 25.9698 7.27419 26.6597 4.69302 26.822C2.11186 27.0249 0 26.6191 0 25.9698Z" fill="#FF87C0"></path>
        </g>
        <animate attributeName="x" from="5000" to="0" dur="50s" repeatCount="indefinite"></animate>
    </pattern>
    <rect class="ribbon__svg__rect" width="5000" height="71" fill="url(&quot;#ribbon-pink-pattern&quot;)"></rect>
</svg>