<svg xmlns:xlink="http://www.w3.org/1999/xlink" xmlns="http://www.w3.org/2000/svg" role="img" class="svg-icon -pickx" width="65"  height="25" ><defs><symbol id="pickx" viewBox="0 0 65 25"><g><path d="m22.1057 16.0365c-1.2085-.8073-2.5914-1.1362-3.9543-1.5149-.4061-.1121-.7475-.2018-.8073-.7076-.0972-.8298-.1096-1.6545 0-2.4842.0523-.3813.2492-.618.6204-.6753.765-.1171 1.4776-.3912 2.1827-.68768 1.8389-.77241 3.3688-1.92107 4.3679-3.68019 1.6146-2.8405-.7026-5.626166-3.294-5.920182-1.5099-.171925-2.6959.540686-3.71 1.552302-1.4602 1.46261-2.27 3.28402-2.7309 5.26988-.1221.52823-.3364.87457-.9444.85464-.7475-.02243-1.495-.00748-2.2424-.01994-.4112-.00748-.6105-.21927-.7002-.63787-.4037-1.86376-1.1412-3.58052-2.37956-5.05061-1.45264-1.724228-3.29647-2.3496371-5.31223-1.527388-1.30563.530728-2.611257 2.200138-2.593815 3.720058.019933 1.65197.809795 2.86043 1.980875 3.83966 1.41527 1.18603 3.13201 1.81392 4.91106 2.23752.53322.1271.8098.3463.79734.9119-.01744.7052-.01246 1.4128-.0025 2.118.00748.5282-.25663.7649-.75746.887-1.63951.4036-3.17937 1.0415-4.52237 2.0905-1.31311 1.0266-2.142821 2.3322-2.289829 3.9642.039866.4037.009957.755.114607 1.059.949322 2.7408 3.949292 4.1885 6.580492 2.2525 2.05064-1.5075 2.99499-3.6927 3.57799-6.0648.1221-.4983.3265-.735.8148-.74.7475-.005 1.495.0075 2.2425-.0025.4535-.0075.7226.2293.7849.6404.0772.5182.2467 1.0091.4286 1.4875.7051 1.8463 1.5249 3.6005 3.3288 4.6968 1.6993 1.034 3.5108.9917 5.0108-.2716 1.2508-1.054 2.0381-2.823 1.2832-4.4451-.6105-1.3156-1.5723-2.3522-2.7882-3.1619zm-3.9493-9.18176c.4385-1.1661.9618-2.29234 2.0058-3.05728.3114-.22923.6727-.42109 1.0839-.14949.3264.21677.5705.4759.593.89699-.0499.25664-.1246.50581-.294.73005-.7725 1.0191-1.8887 1.50249-3.02 1.96096-.3463.13953-.4858-.06978-.3662-.38373zm-10.96833.39618c-1.14616-.42358-2.26242-.92691-3.09214-1.86128-.25914-.29153-.49834-.67274-.20682-1.12872.22924-.3588.53322-.56312.80979-.60797.53571.0324.88455.16694 1.17608.45846.7774.78238 1.21841 1.76161 1.62455 2.75828.11213.27408.01745.50331-.30896.38371zm.44852 10.96578c-.46345 1.1786-.97175 2.3372-2.02323 3.1271-.62043.4659-1.30564.2641-1.63952-.4261-.08721-.1794-.10714-.3414-.04236-.5332.29402-.8796 2.51159-2.5041 3.436-2.5166.29402-.0249.35133.142.26911.3488zm5.20511-4.3355c-.8821 0-1.3239-.4451-1.3256-1.3355 0-.8588.4361-1.2882 1.3081-1.2882.8721 0 1.3123.4452 1.3206 1.3355 0 .8588-.4344 1.2882-1.3031 1.2882zm7.7989 7.5074c-.9842-.4859-1.5773-1.348-2.0357-2.3098-.1321-.2765-.2492-.5656-.3364-.8621-.0772-.2666.0548-.4211.3314-.3314 1.1586.3788 2.2998.7924 3.0648 1.8364.1794.2442.2441.5158.3164.7375-.0274.6802-.7799 1.2035-1.3405.9269z"></path><path d="m64.6438 15.0069c-.7425-.9967-1.4302-2.0307-2.1628-3.0323-.2043-.2766-.2342-.4784-.0274-.7724.6503-.9294 1.1885-1.93358 1.9211-2.80567.1146-.13704.2541-.30647.1769-.50829-.0897-.23671-.3189-.14453-.4909-.14951-.3737-.01495-.7525.02492-1.1212-.01245-.7176-.07226-1.191.19186-1.5972.81228-.7076 1.07391-.75 1.04899-1.49-.0299-.2741-.39866-.5457-.84467-1.1038-.75995-.598.0897-1.196.10464-1.7965.1171-.3438.00747-.3787.19934-.2242.45598.0972.15946.2018.31644.3314.44849.6852.69518 1.2408 1.49502 1.8413 2.25742.304.3862.294.7126-.005 1.1063-.6877.907-1.348 1.8364-2.0033 2.7658-.2865.4061-.5257.4584-.8372.0199-.6977-.9767-1.3953-1.9559-2.1378-2.8978-.3588-.456-.3688-.7973-.015-1.2633.598-.78734 1.3106-1.48749 1.7741-2.37951.132-.25166.1844-.48588-.1321-.50332-.7873-.03987-1.5896-.07973-2.3621.03489-.4734.06976-.6603.64783-.9543 1.0166-.284.35631-.5755.70763-.8646 1.05896-.137.16698-.2342.46848-.4958.36378-.2168-.0847-.1146-.37126-.1196-.5681-.0474-1.65696-.0972-3.31392-.1221-4.97087-.0075-.48588-.1894-.67275-.6728-.63787-.4559.03239-.9169.03987-1.3704 0-.5432-.04983-.6677.20432-.6951.6902-.0499.87457.137 1.7317.1345 2.5988-.0025 1.18354 0 2.36958 0 3.55314 0 1.3505.0075 2.7009-.005 4.0514-.0025.3837.1071.5806.5307.5606.5607-.0249 1.1238-.0224 1.6844 0 .3812.015.5208-.137.5133-.5083-.015-.7674-.005-1.5373 0-2.3072 0-.157-.0623-.3788.1395-.4336.1794-.0498.2841.152.3763.2766.5855.7774 1.1711 1.5548 1.7292 2.3546.294.4211.6129.6977 1.1711.6204.7848-.1096 1.5722-.0049 2.382-.1594.6777-.1296 1.4775-.0125 2.2201.0324.4111.0249.6777-.1196.9244-.4809 1.0191-1.4776 1.0415-1.4701 2.093.0099.1943.2716.3737.4784.7375.4685.6229-.015 1.2483 0 1.8712-.0075.3788-.005.5632-.0698.2517-.4884z"></path><path d="m31.717 8.08225c-.4211.15449-.8696.58056-1.2807-.04983-.0424-.06728-.2342-.04734-.3563-.04734-.4784-.00499-.9568.01744-1.4327-.00747-.5183-.02741-.6902.19435-.6828.70016.0225 1.57723.0075 3.15443.0075 4.73163 0 1.5573.0224 3.1121-.0124 4.6694-.0125.5631.1769.7351.7151.6902.4958-.0399.9966-.0249 1.4925-.005.4011.015.5606-.1395.5506-.5457-.0199-.725-.0099-1.4526-.0024-2.1777.0074-.6478.0996-.6802.6752-.4435 1.4576.5955 3.3488.3214 4.2807-1.1835.6453-1.044.6179-2.1678.573-3.3065-.1046-2.53648-2.2873-3.84958-4.5273-3.02235zm-.5083 5.40195c-.1769-.0822-.3214-.1869-.4161-.3538-.2342-.4136-.0972-2.1503.1943-2.5241.4436-.5706 1.0615-.5208 1.652-.4086.5581.1071.7525.603.8746 1.0988.0448.1769.0299.3713.0349.4485-.015 1.5199-1.1312 2.2973-2.3372 1.7392z"></path><path d="m46.5658 13.393c-.1346-.0149-.2841.0524-.4211.0997-.3439.1171-.6977.1246-1.049.0897-.8222-.0847-1.4825-.6528-1.5897-1.3455-.1619-1.039.1495-1.794.9045-2.093.5158-.20429 1.0664-.1271 1.6046-.0947.8323.0524.9045.005 1.0216-.8247.1794-1.25331.0897-1.36544-1.1935-1.47259-.2691-.02242-.5382-.03238-.8073-.04982-.8721-.0598-1.6993.13454-2.4742.50331-1.363.65282-1.8264 1.8712-1.8613 3.2716-.0349 1.4327.2043 2.7981 1.5648 3.6303 1.4451.8846 3.0423.8198 4.5797.4286.6453-.1645.1769-.9469.1868-1.4452.0075-.299-.0598-.6528-.4684-.7001z"></path><path d="m39.2604 7.98061c-.476.01245-.9568.02242-1.4303-.00499-.5083-.0299-.7126.16444-.7026.68271.0224 1.07889.0075 2.15777.0075 3.23417 0 1.0789.0199 2.1578-.0075 3.2342-.0125.5033.1844.6678.6603.6254.5108-.0448 1.0141-.1943 1.5348-.1321.3987.0499.5507-.1245.5482-.5307-.0124-2.1777-.0099-4.3554 0-6.53312 0-.43853-.2043-.58804-.6104-.57807z"></path><path d="m38.4113 4.14075c-.7973.00996-1.4775.70015-1.4526 1.47755.0249.76245.7998 1.50995 1.5548 1.49749.8023-.01245 1.4726-.72257 1.4626-1.5523-.0075-.82474-.6777-1.43271-1.5673-1.42274z"></path></g></symbol></defs>
    <use xlink:href="#pickx" fill="#FFFFFF"></use>
</svg>