<svg xmlns:xlink="http://www.w3.org/1999/xlink" xmlns="http://www.w3.org/2000/svg" role="img" class="svg-icon -proximus" width="79"  height="25" ><defs><symbol id="proximus" viewBox="0 0 79 25"><g><path d="m19.8895 15.3185c-.7916-.2991-1.6361-.4581-2.4619-.6638-.4021-.0997-.5361-.3459-.5299-.7354.0094-.6763.0343-1.3526-.0124-2.0257-.0468-.6763.2244-.9537.8882-1.0845 2.5274-.5018 4.5437-1.8294 5.9773-3.97662 1.0097-1.51148.91-3.30032-.1839-4.63727-1.0471-1.283973-3.213-1.929072-4.656-1.262154-2.5243 1.168664-3.8612 3.281614-4.3287 5.949284-.1994 1.13439-.4207 1.45538-1.5738 1.47096-.4924.00623-.9941-.04674-1.4803.00624-.6202.06856-.8913-.19946-.9941-.776-.2556-1.43356-1.04403-2.63963-1.73277-3.87685-.44253-.7947-1.06894-1.46784-1.79507-2.03192-1.46473-1.1375-3.24732-1.287088-4.66218-.49551-2.4058949 1.34318-2.571075 4.64038-.78847 6.57569 1.37123 1.48966 3.08839 2.33105 4.98006 2.89825.98688.2971 1.47927.9672 1.47719 2.0101-.00623 1.7982-.01246 1.7702-1.71404 2.3031-2.17527.6825-4.13863 1.6985-5.375858 3.7335-.9536308 1.5707-.732373 3.4624.536018 4.818 1.30891 1.3993 3.09778 1.767 4.74949.9349 2.07243-1.0409 3.08838-2.9138 3.87683-4.9707.2836-.7386.1839-1.8262.8352-2.1628.6607-.3428 1.6268-.0654 2.4558-.1247.6108-.0436.8788.1901 1.0128.7729.3054 1.3214.7853 2.5867 1.4865 3.7491 1.044 1.7359 2.4963 2.8702 4.014 2.9793 3.1757-.0156 5.2637-2.5336 4.5843-4.9614-.6513-2.3217-2.4339-3.6088-4.5843-4.4222zm-2.2999-8.15256c.4487-1.19672.9755-2.35603 2.0506-3.14761.3397-.24931.7262-.32411 1.097-.11843.3241.18076.5578.46748.5641.87573 0 .36151-.1777.65134-.4052.90377-.8009.89753-1.8636 1.3837-2.9481 1.82312-.3397.13712-.4644-.04675-.3553-.33658zm-10.75794.33034c-1.18113-.46747-2.34046-.97856-3.13204-2.04438-.26801-.36151-.33035-.76041-.08727-1.1562.15582-.25243.28671-.57966.62017-.50798.75418.04363 1.21543.52356 1.61745.94428.62641.65133 1.00659 1.49278 1.29642 2.35915.09349.28048.1278.58277-.31473.40825zm.35836 10.79532c-.455 1.3152-1.01283 2.5649-2.25006 3.3533-.12466.081-.29293.0904-.37708.1122-.75729.0249-1.25906-.6731-1.0378-1.3432.2462-.7386 2.62716-2.3965 3.42809-2.3934.20568 0 .30541.0748.23997.2711zm5.26988-4.1854c-.8767 0-1.3151-.4425-1.3151-1.3275 0-.8851.4342-1.3277 1.3027-1.3277.8684 0 1.313.4405 1.3338 1.3214s-.4197 1.3255-1.3214 1.3338zm8.6918 7.1834c-.5454.561-1.097.3553-1.5769-.0841-.9319-.8508-1.6175-1.8636-1.926-3.2504 1.3494.3396 2.5274.7417 3.3876 1.7514.4176.4924.6607 1.0222.1153 1.5831z"></path><path d="m66.3585 10.7217c-.0063-2.23445-2.0195-3.45298-4.0015-2.38092-.4426.23996-.7199.26178-1.1749.01559-2.0132-1.09388-4.0265.134-4.0389 2.42143v1.3245c0 .5984.0249 1.1967-.0063 1.792-.0374.7199.4768.5142.8508.536.3865.0218.7823.0935.7573-.5485-.0436-1.0627-.0187-2.1285-.0093-3.1912.0062-.86328.3023-1.18427 1.0658-1.19986.8103-.01558 1.1656.32723 1.1749 1.19046.0156 1.0627.0405 2.1317-.0093 3.1913-.0312.6419.3521.5672.7448.5609.3958-.0062.8539.134.8196-.5672-.0436-.9598-.0156-1.9197-.0093-2.8796.0062-1.15927.2493-1.48027 1.1063-1.49586.8726-.01246 1.1281.31166 1.1344 1.44916.0031.9848 0 1.9727 0 2.9606 0 .3335-.0125.6794.5048.4145.1278-.0654.3086-.053.4582-.0312.5516.0811.6482-.2025.6357-.6762-.0249-.9599-.0062-1.9198-.0093-2.8796z"></path><path d="m34.2903 8.23185c-1.3401-.3023-2.6428.16517-3.3003 1.18736-.2431.37397-.4893.80409-.4207 1.22789.1714 1.0845-.0031 2.169.0779 3.0634 0 1.0409.028 1.898-.0094 2.7519-.0249.5266.187.617.6701.6544.7448.0592.9754-.2213.885-.9162-.0374-.2805.0187-.5734-.0124-.8539-.081-.7168.1184-.9256.8913-.7386 1.5769.3833 3.1071-.4893 3.4-1.926.1309-.6388.0779-1.3369 0-1.9945-.1433-1.24658-1.0253-2.19397-2.1784-2.45575zm-.4083 4.96135c-.9162.1122-1.4584-.3054-1.633-1.2559-.0405-.2275-.053-.4644-.0904-.695-.1308-.804.2556-1.42418.9911-1.58001.8009-.16828 1.4959.22127 1.6953.98171.0842.3241.0966.6638.1403.9972.0124 1.0098-.293 1.4523-1.1033 1.5489z"></path><path d="m44.7157 8.02589c-2.007-.03116-3.4592 1.38993-3.4187 3.40631.0405 2.0288.9598 2.9637 3.266 3.1008 1.7016.0998 2.8858-1.3307 2.8921-3.2598.0031-1.86673-1.1407-3.22238-2.7394-3.24731zm-.3459 5.02371c-.9599-.0062-1.5022-.6202-1.4866-1.6829.0156-1.0783.6856-1.89166 1.5427-1.88231.9286.01246 1.4958.70431 1.4865 1.81381-.0094 1.1188-.5734 1.7607-1.5426 1.7514z"></path><path d="m72.3483 7.93643c-.4208.00935-.8446-.07479-.8197.59524.0343 1.00973.0219 2.02253 0 3.03543-.0249.9349-.4176 1.3214-1.2621 1.3182-.8352-.0031-1.2248-.402-1.2404-1.3369-.0187-1.0378-.0156-2.07556-.0062-3.11334.0062-.58589-.4082-.50174-.7604-.48928-.3553.01247-.8446-.16517-.8383.48616.0093 1.1936-.0281 2.39036.0405 3.57766.0561.9911.4799 1.845 1.4959 2.1628 1.178.3709 2.3591.3865 3.3907-.4519.3303-.268.5048-.6451.6201-1.0564.2306-.8165.1496-1.6486.1683-2.4745 0-.54536-.0343-1.09074.0062-1.633.0499-.64822-.349-.62952-.7946-.62017z"></path><path d="m77.8616 10.7751c-.5859-.2742-1.2061-.4768-1.8013-.7292-.1808-.07795-.4145-.14962-.3927-.41764.0249-.30853.2836-.35215.5111-.36774.5734-.03739 1.1406.0374 1.6985.15583.2306.04986.4425.13712.5952-.15895.3615-.69808.1995-1.10009-.5641-1.24968-.43-.08415-.8726-.12155-1.3058-.17764 0 .01558.0001.03428-.003.04986-.2587 0-.5205-.0187-.7792.00311-1.0066.08415-1.5831.57967-1.7358 1.4772-.1527.89445.1651 1.45225 1.125 1.87925.5423.243 1.1188.4144 1.6611.6575.268.1185.6544.2369.5547.6389-.0842.3397-.4332.4238-.7479.4581-.6109.0655-1.1843-.1153-1.7484-.3085-.3615-.1216-.6638-.1932-.7448.3241-.0623.3958-.4363.857.2805 1.0534.9567.2617 1.9134.4518 2.9169.2493.7698-.1527 1.3962-.4768 1.5489-1.3089.2182-1.1843-.0592-1.7515-1.0689-2.2221z"></path><path d="m51.6369 11.2826c-.0561-.7698.8633-1.40241 1.2965-2.13166.1901-.31787.7261-.65757.4737-.95675-.2431-.28983-.8321-.09037-1.2684-.08102-.2649.00623-.3771.24309-.5142.43007-.3459.47682-.5984 1.02531-1.0721 1.47096-.2493-.3615-.5329-.67939-.7043-1.04713-.349-.74794-.9162-.99414-1.6922-.8726-.1465.02182-.3397-.06233-.4301.09037-.1153.19634.0748.33347.1745.47371.4301.61705.8228 1.26839 1.3152 1.83245.4924.5641.4176.9973-.0156 1.5458-.5703.723-1.0658 1.5052-1.6081 2.2812 1.2715.4176 1.9571-.1122 2.5025-1.1188.4301-.7978.5579-.7978.9911.0031.5422 1.0066 1.2309 1.5333 2.4214 1.1344-.0748-.3989-.3864-.6607-.589-.9786-.4426-.698-1.2341-1.3587-1.284-2.0786z"></path><path d="m40.3458 8.17933c-1.8262-.0374-2.7861 1.0814-2.7892 3.28787-.0779.8165.2712 1.6704.159 2.5555-.0904.7012.4238.5484.8165.564.4238.0156.8227.0748.7884-.5983-.0467-.9007-.2306-1.7857-.1807-2.6989.0623-1.1811.1495-1.33692 1.3213-1.62364.6701-.16205.3834-.76976.4862-1.15931.1247-.46124-.3584-.32411-.5952-.32722z"></path><path d="m55.9749 8.65934c.0093-.68561-.4519-.54537-.8508-.56719-.4207-.02182-.7667-.0187-.7386.58277.0405.85391.0094 1.71098.0094 2.56798 0 .8819.0342 1.7639-.0125 2.6458-.0343.6483.377.5485.7573.5423.3895-.0094.8476.1465.8352-.5579-.0312-1.7358-.025-3.4748-.0031-5.21065z"></path></g></symbol></defs>
    <use xlink:href="#proximus" fill="#FFFFFF"></use>
</svg>