<svg xmlns:xlink="http://www.w3.org/1999/xlink" xmlns="http://www.w3.org/2000/svg" role="img" class="svg-icon -redbull" width="391.98"  height="237.08" ><defs><symbol id="redbull" viewBox="0 0 391.98 237.08"><path d="m57.87 173.87c-.06-6.86-2.85-13.42-7.76-18.24-4.89-4.81-11.51-7.48-18.38-7.41h-31.73v86.84h18.44v-71.94h9.55c6.48-.22 11.88 4.9 11.99 11.39-.29 6.48-5.74 11.56-12.23 11.35h-4.28v20.79l18.35 28.42h21.61l-25.49-36.27c11.61-2.7 19.85-13.01 19.92-24.93z"></path><path d="m90.13 178.97c-15.73.42-28.26 13.3-28.26 29.02s12.53 28.61 28.26 29.04c12.09 0 21.52-5.47 26.39-14.03l-14.09-6.51c-2.04 4.12-6.28 6.69-10.87 6.59-6.28.27-11.57-4.61-11.81-10.89v-.6h38.21c.12-1.16.17-2.31.16-3.48.27-18.84-12.15-29.14-27.99-29.14zm-10.44 22.74c-.27-6.03 4.56-11.07 10.6-11.07s10.85 5.03 10.59 11.07z"></path><path d="m169.69 187.12c-4.61-4.65-10.89-7.28-17.44-7.32-14.27 0-25.93 12.71-25.93 28.37s11.63 28.49 25.93 28.49c6.62-.05 12.93-2.77 17.52-7.52v6.12l17.27-.19v-91.03h-17.35zm-12.52 34.64c-7.01 0-12.72-6.23-12.72-13.92s5.71-14.01 12.72-14.01 12.74 6.25 12.74 13.94-5.7 13.99-12.74 13.99z"></path><path d="m374.65 144.04h17.33v91.03h-17.33z"></path><path d="m345.22 144.04h17.33v91.03h-17.33z"></path><path d="m260.33 187.72c4.8-4.31 7.57-10.44 7.65-16.88-.01-5.81-2.25-11.39-6.26-15.6-4.08-4.55-11.46-7.1-21.35-7.1h-29.65v86.93h38.3c14.66-.23 26.51-11.31 26.51-24.9-.02-9.89-3.5-16.95-15.2-22.45zm-14.52 32.28v-.07h-16.58v-56.8h11.56c5.19.24 9.27 4.55 9.21 9.75 0 5.09-4.13 9.21-9.21 9.2h-6.01v15.62h11.04c14.88 0 14.88 22.31 0 22.31z"></path><path d="m318.59 212.5c-.8 12.4-19.02 12.4-19.82 0v-31.28h-17.24v34.67c0 11.71 12.14 21.2 27.08 21.2s27.08-9.49 27.08-21.2v-34.67h-17.11v31.28z"></path><path d="m44.82 98.85s2.24-2.17 2.93-3.46c0 0 1.03-1.47-.67-1.83-.75-.18-1.6.1-2.18.58 0 0-2.09 1.81-3.21 2.26 0 0-1.92.7-.45 2.16 0 0 1.58 1.78 3.58.29z"></path><path d="m39.41 108.19c-.08-1.45 1.51-5.79 1.51-5.79.33-.9-.29-1.36-.29-1.36-.39-.47-.81-.9-1.35-1.2-2.69-1.1-2.64 3.06-2.64 3.06-.16 1.65-.75 2.55-.75 2.55-.57.97-.48 1.64-.48 1.64.49 1.73 3.99 1.1 3.99 1.1z"></path><path d="m353.88 102.4s1.58 4.34 1.51 5.79c0 0 3.51.63 3.99-1.1 0 0 .1-.67-.48-1.64 0 0-.59-.9-.75-2.55 0 0 .05-4.16-2.64-3.06-.53.3-.96.73-1.35 1.2 0 0-.62.46-.29 1.36z"></path><path d="m347.71 93.56c-1.7.37-.67 1.83-.67 1.83.69 1.29 2.93 3.46 2.93 3.46 2 1.49 3.58-.29 3.58-.29 1.48-1.46-.45-2.16-.45-2.16-1.12-.45-3.21-2.26-3.21-2.26-.58-.48-1.43-.76-2.18-.58z"></path><path d="m349.13 108.55c1.37-.49 3.46-.22 3.46-.22.02-1.36-.42-3.13-.42-3.13-.81-2.73-2.04-3.12-2.04-3.12-1.64-.07-2.47-1.62-2.47-1.62-.77-2.21-3.32-2.79-3.32-2.79-3.2-1.42-5.13-5.86-5.13-5.86-.95-1.83-1.71-4.05-1.71-4.05-.87-1.15-3.49-.51-3.49-.51-1.89.14-2.47-.28-2.47-.28l-4.25-2.47c-2.13-1.87-.08-4.78-.08-4.78 2.77-5.42 2.14-11.57 2.14-11.57 4.22.73 8.96 1.15 13.08-.26 10.67-4.26 6.3-15.29 6.3-15.29-1.95-6.3-6.29-8.2-6.29-8.2-2.46-.92-4.29-3.46-4.29-3.46-1.31-2.97 2.43-3.52 2.43-3.52 14.35.22 10.69-12.66 10.69-12.66-3.27 4.09-11.37 5.65-11.37 5.65-6.45.12-7.5 4.68-7.5 4.68-1.97 4.72 2.33 7.75 2.33 7.75 5.31 3.92 8.42 7.68 8.42 7.68 4.91 7.35.62 11.42.62 11.42-8.28 7.85-22.17-4.26-22.17-4.26-5.5-6.48-13.95-5.62-13.95-5.62-5.18-.62-7.8-3.18-7.8-3.18-5.63-7.53-13.29-6.6-13.29-6.6-3.49-.42-3.8-1.53-3.8-1.53-3.68-6-12.33-7.01-12.33-7.01-4.21-1.06-9.25-4.49-9.25-4.49-3.47-2.77-7.57-2.58-10.92-1.62-11.44-16.69-30.63-27.63-52.39-27.63s-41.13 11.05-52.55 27.87c-3.48-1.16-7.97-1.63-11.72 1.37 0 0-5.04 3.43-9.24 4.49 0 0-8.64 1.01-12.33 7.01 0 0-.32 1.11-3.8 1.53 0 0-7.65-.92-13.29 6.6 0 0-2.62 2.56-7.8 3.18 0 0-8.45-.87-13.96 5.62 0 0-13.89 12.11-22.17 4.26 0 0-4.29-4.06.62-11.42 0 0 3.11-3.75 8.42-7.68 0 0 4.31-3.03 2.33-7.75 0 0-1.04-4.56-7.5-4.68 0 0-8.1-1.56-11.37-5.65 0 0-3.66 12.88 10.69 12.66 0 0 3.74.55 2.43 3.52 0 0-1.83 2.54-4.29 3.46 0 0-4.33 1.89-6.28 8.2 0 0-4.37 11.03 6.29 15.29 4.11 1.41 8.85.99 13.08.26 0 0-.63 6.15 2.14 11.57 0 0 2.05 2.91-.08 4.78l-4.25 2.47s-.57.42-2.46.28c0 0-2.62-.65-3.49.51 0 0-.76 2.22-1.71 4.05 0 0-1.93 4.44-5.13 5.86 0 0-2.55.58-3.32 2.79 0 0-.82 1.55-2.47 1.62 0 0-1.23.39-2.04 3.12 0 0-.44 1.77-.42 3.13 0 0 2.09-.27 3.46.22 0 0 3.36 1.13 4.86-1.64 0 0 2.9-4.96 5.05-4.22 0 0 4.32 1.45 7.37-1.71 0 0 4.19-4.58 10.11-3.64 0 0 6.66 1.35 8.74-.19 0 0 4.2-2.2 5.78-2.74 0 0 1.93-.57 2.13-2.68 0 0 1.17-2.97 2.03-3.96l-3.18-.04s-2.88 4.84-7.77 6.3c0 0-2.68 1.07-8.04.2 0 0-7.71-1.75-14.48 5.57 0 0-.93 1.34-2.25.8 0 0 3.74-6.38 11.96-7.89 0 0 2.69-.57 4.93-.21 0 0 11.06.32 16.19-10.57 0 0-.55-9.29 1.89-11.49 0 0 .95-.29.76 1.51 0 0-1.68 9.73 1.48 11.61 0 0 1.84 1.44 5.23.91 0 0 5.15-1.23 9.33-.51 0 0 6.44 1.53 11.97.82 0 0-1.44-2.2-1.15-4.83 0 0 .79-1.88 1.7-.67 0 0 2.13 7.03 7.94 9.14 0 0 5.19 1.89 5.11 8.48 0 0-.79.9-7.68 3.35 0 0-2.57.81-3.4-1.11 0 0-3.32-7.11-6.21-6.89l-5.43.44s-1.85.47-.49 1.96c0 0 1.86 2.47 2.62 3.95 0 0 .22 1.26 1.97.99 0 0 2.42-1.2 3.79 3.31 0 0 1.25 2.25 3.37 2.97 0 0 1.98.66 3.84-.38 0 0 8.96-3.29 10.52-4.46 0 0 1.94-1.08 3.47-.56 0 0 2.69.64 3.8-1.48l.85-1.31c11.29 17.63 31.04 29.32 53.53 29.32s41.7-11.37 53.05-28.59l.38.58c1.11 2.12 3.79 1.48 3.79 1.48 1.54-.52 3.48.56 3.48.56 1.56 1.17 10.52 4.46 10.52 4.46 1.86 1.04 3.84.38 3.84.38 2.12-.72 3.36-2.97 3.36-2.97 1.37-4.5 3.79-3.31 3.79-3.31 1.75.27 1.97-.99 1.97-.99.76-1.47 2.62-3.95 2.62-3.95 1.36-1.48-.49-1.96-.49-1.96l-5.43-.44c-2.89-.22-6.21 6.89-6.21 6.89-.83 1.92-3.4 1.11-3.4 1.11-6.89-2.45-7.68-3.35-7.68-3.35-.08-6.59 5.11-8.48 5.11-8.48 5.81-2.11 7.94-9.14 7.94-9.14.91-1.21 1.7.67 1.7.67.28 2.63-1.15 4.83-1.15 4.83 5.53.71 11.97-.82 11.97-.82 4.18-.72 9.33.51 9.33.51 3.39.53 5.23-.91 5.23-.91 3.16-1.88 1.48-11.61 1.48-11.61-.18-1.8.76-1.51.76-1.51 2.45 2.2 1.89 11.49 1.89 11.49 5.13 10.89 16.2 10.57 16.2 10.57 2.24-.36 4.93.21 4.93.21 8.22 1.51 11.95 7.89 11.95 7.89-1.32.53-2.24-.8-2.24-.8-6.77-7.31-14.48-5.57-14.48-5.57-5.37.87-8.04-.2-8.04-.2-4.89-1.46-7.77-6.3-7.77-6.3l-3.18.04c.85.99 2.03 3.96 2.03 3.96.2 2.11 2.13 2.68 2.13 2.68 1.58.55 5.78 2.74 5.78 2.74 2.08 1.54 8.74.19 8.74.19 5.92-.94 10.11 3.64 10.11 3.64 3.05 3.15 7.37 1.71 7.37 1.71 2.15-.75 5.05 4.22 5.05 4.22 1.5 2.76 4.85 1.64 4.85 1.64zm-99.25-64.18s.94-1.68 1.94-.14c.45.78.63 1.59.19 2.39 0 0-2.69 3.17-3.04 9.85 0 0-2.57-7.25.91-12.1zm-106.91-.14c1.01-1.54 1.95.14 1.95.14 3.47 4.84.91 12.1.91 12.1-.36-6.67-3.04-9.85-3.04-9.85-.44-.8-.26-1.61.18-2.39zm117.22 38.05c-.48.31-1.38 2.13-1.38 2.13-.41 1.36-3.3 5.91-3.3 5.91-1.23 1.02-.94 2.75-.94 2.75-.09 1.67 1.38 4.79 1.38 4.79.37.88-.12.74-.12.74-.27-.03-1.4-.69-1.4-.69-.65-.39-1.45-2.12-1.45-2.12-.25-.47-.86-1.45-.86-1.45-.48-.51-.6-1.74-.6-1.74-.09-1.75 1.71-4.51 1.71-4.51 1.33-1.89 3.15-6.54 3.15-6.54l-2.65-.19c-.88.51-1.68 1.75-1.68 1.75l-1.98 4.65c-.16.8-1.21 1.91-1.21 1.91-1.11 1.34-.86 2.66-.86 2.66-.09 1.33.53 2.39.53 2.39l.6.93c-10.72 17.03-29.69 28.38-51.25 28.38s-41.09-11.68-51.71-29.14l.11-.17s.61-1.06.53-2.39c0 0 .25-1.32-.86-2.66 0 0-1.05-1.11-1.22-1.91l-1.98-4.65s-.8-1.24-1.68-1.75l-2.65.19s1.82 4.65 3.15 6.54c0 0 1.8 2.76 1.71 4.51 0 0-.12 1.23-.6 1.74 0 0-.61.98-.86 1.45 0 0-.8 1.74-1.45 2.12 0 0-1.12.67-1.4.69 0 0-.49.14-.13-.74 0 0 1.48-3.12 1.38-4.79 0 0 .29-1.74-.94-2.75 0 0-2.88-4.55-3.29-5.91 0 0-.9-1.82-1.39-2.13 0 0-1.01-1.32.62-1.94 0 0 4.05-.91 4.77-1.41 0 0 1.94-.59 3.21-4.64 0 0 1.74-4.73 1.72-7.64 0 0 3.41 6.58-2.03 13.26 0 0 4.3 1.27 6.08 0 0 0 5.36-.78 6.4-1.07 0 0 1.35-.33.58.63 0 0-1.62 2.3-1.75 3.81 0 0-.1 1.2-1.09 1.9 0 0-3.05 2.13-3.32 4.18 0 0-.65 1.97.69 1.5 0 0 1.83-.85 2.47 0 0 0 .19.09-.51.88 0 0-1.83 1.59-1.97 3.73 0 0 .34 2.47.99 3.26 0 0 .82 1.14 2.13.78 0 0 .35-.28.97-.09 0 0 .64 0 2.33-.58 0 0 2.55-.7 3.41-1 0 0 3.25-1.16 4.85-1.08 0 0 1.04-.12 2.37.15 0 0 4.06.46 6.77-2.53 0 0 2.06-1.63 2.76-.05 0 0 4.94 6.63 12.94 4.88 0 0-6.37-2.62-8.02-6.18 0 0-.22-3.03-3.56-7.23 0 0-1.02-1.4-.04-1.76 0 0 .57-.43 1.81.82 0 0 3.17 3.04 4.31 5.82 0 0 3.93 5.94 9.6 3.95 0 0-4.45-1.72-6.54-4.92 0 0-1.29-4.33-5.64-7.56 0 0-.17-4.87-2.2-7.61 0 0-1.03-4.57-1.31-5.64 0 0-1.09-4.02-1.09-5.13 0 0 .36-5.25-3.02-9.33 0 0-2.27-4.37-5.8-7.41 0 0-2.68-3.31-4.68-5.34 0 0-2.62-3.08-8.35-7.09 0 0-2.59-1.88-4.49-3.91 0 0-1.09-.78-2.81-1.63 10.93-15.73 29.13-26.05 49.69-26.05s38.5 10.17 49.47 25.7c-2.13.96-3.54 1.97-3.54 1.97-1.9 2.02-4.49 3.91-4.49 3.91-5.73 4.02-8.35 7.09-8.35 7.09-1.99 2.03-4.68 5.34-4.68 5.34-3.53 3.04-5.8 7.41-5.8 7.41-3.38 4.08-3.02 9.33-3.02 9.33 0 1.11-1.08 5.13-1.08 5.13-.28 1.07-1.31 5.64-1.31 5.64-2.03 2.74-2.2 7.61-2.2 7.61-4.35 3.22-5.64 7.56-5.64 7.56-2.09 3.2-6.54 4.92-6.54 4.92 5.67 2 9.61-3.95 9.61-3.95 1.14-2.78 4.31-5.82 4.31-5.82 1.24-1.25 1.81-.82 1.81-.82.98.36-.04 1.76-.04 1.76-3.33 4.2-3.55 7.23-3.55 7.23-1.65 3.57-8.02 6.18-8.02 6.18 8 1.75 12.95-4.88 12.95-4.88.7-1.59 2.76.05 2.76.05 2.71 2.99 6.77 2.53 6.77 2.53 1.33-.27 2.37-.15 2.37-.15 1.6-.08 4.85 1.08 4.85 1.08.85.3 3.4 1 3.4 1 1.68.58 2.33.58 2.33.58.63-.19.97.09.97.09 1.3.36 2.13-.78 2.13-.78.65-.79.99-3.26.99-3.26-.14-2.14-1.97-3.73-1.97-3.73-.71-.79-.52-.88-.52-.88.64-.85 2.47 0 2.47 0 1.35.47.69-1.5.69-1.5-.27-2.05-3.32-4.18-3.32-4.18-.98-.7-1.09-1.9-1.09-1.9-.14-1.51-1.75-3.81-1.75-3.81-.77-.96.58-.63.58-.63 1.04.29 6.4 1.07 6.4 1.07 1.78 1.27 6.09 0 6.09 0-5.44-6.69-2.03-13.26-2.03-13.26-.03 2.92 1.71 7.64 1.71 7.64 1.26 4.05 3.21 4.64 3.21 4.64.72.5 4.77 1.41 4.77 1.41 1.62.62.62 1.94.62 1.94zm-88.72-9.29c-.53-.42-2.64-2.73-2.64-2.73-.32-.56-.57-.59-.57-.59-.43-.04-1 .97-1 .97-1.5 2.9-3 2.55-3 2.55-.01-.53.34-1.12.34-1.12.41-.77 2.16-4.24 2.16-4.24.22-.5.42-1.17.42-1.17 1.45-2.25 2.82-.54 2.82-.54.61 1.19 3.86 5.07 3.86 5.07.72.86.79 1.78.79 1.78.75 5.31-1.9 5.74-1.9 5.74.05-1.42.17-4.59-1.27-5.71zm-6.07 15.63c2.84-1.7 3.19 0 3.19 0 .52 3.03-1.88 3.41-1.88 3.41-.48.16-2.54.21-2.54.21-.62-.02-.77-.24-.7-.92.41-1.89 1.93-2.7 1.93-2.7zm56.66-9.91s-2.66-.43-1.91-5.74c0 0 .07-.92.79-1.78 0 0 3.25-3.88 3.86-5.07 0 0 1.37-1.71 2.82.54 0 0 .2.67.42 1.17 0 0 1.74 3.46 2.15 4.24 0 0 .36.59.34 1.12 0 0-1.5.35-3-2.55 0 0-.57-1.01-1-.97 0 0-.25.03-.57.59 0 0-2.11 2.31-2.64 2.73-1.45 1.13-1.33 4.29-1.27 5.71zm4.15 9.92s.35-1.7 3.19 0c0 0 1.51.82 1.93 2.7.08.68-.08.91-.7.92 0 0-2.06-.04-2.54-.21 0 0-2.4-.38-1.88-3.41z"></path></symbol></defs>
    <use xlink:href="#redbull" fill="#FFFFFF"></use>
</svg>