<svg xmlns:xlink="http://www.w3.org/1999/xlink" xmlns="http://www.w3.org/2000/svg" role="img" class="svg-icon -spotify" width="25"  height="25" ><defs><symbol id="spotify" viewBox="0 0 25 25"><path d="m12.5.390625c-6.68457 0-12.109375 5.424805-12.109375 12.109375 0 6.6846 5.424805 12.1094 12.109375 12.1094 6.6846 0 12.1094-5.4248 12.1094-12.1094 0-6.68457-5.4248-12.109375-12.1094-12.109375zm4.917 17.817375c-.2051 0-.332-.0635-.5225-.1758-3.0468-1.8359-6.5918-1.914-10.09274-1.1963-.19043.0489-.43946.127-.58106.127-.47363 0-.77148-.376-.77148-.7715 0-.5029.29785-.7422.66406-.8203 3.99902-.8838 8.08592-.8057 11.57222 1.2793.2979.1904.4737.3613.4737.8057 0 .4443-.3467.7519-.7422.7519zm1.3135-3.2031c-.2539 0-.4248-.1123-.6006-.2051-3.0518-1.8066-7.6026-2.5342-11.65041-1.4355-.23437.0634-.36133.1269-.58105.1269-.52246 0-.94727-.4248-.94727-.9473 0-.5224.25391-.8691.75684-1.0107 1.35742-.3809 2.74414-.6641 4.77539-.6641 3.1689 0 6.2305.7862 8.6426 2.2217.3955.2344.5517.5371.5517.9619-.0048.5274-.415.9522-.9472.9522zm1.5136-3.7207c-.2539 0-.4101-.0635-.6298-.1904-3.4766-2.07525-9.69242-2.57329-13.71586-1.45025-.17578.04883-.39551.12696-.62989.12696-.64453 0-1.13769-.50293-1.13769-1.15235 0-.66406.41016-1.04003.84961-1.16699 1.71875-.50293 3.64258-.74219 5.73733-.74219 3.5644 0 7.2998.74219 10.0293 2.33399.3808.21973.6299.52246.6299 1.10353 0 .664-.5372 1.1377-1.1329 1.1377z"></path></symbol></defs>
    <use xlink:href="#spotify" fill="#FFFFFF"></use>
</svg>