<svg xmlns:xlink="http://www.w3.org/1999/xlink" xmlns="http://www.w3.org/2000/svg" role="img" class="svg-icon -stubru" width="55"  height="36" ><defs><symbol id="stubru" height="34" viewBox="0 0 36 34"><g><path d="m11.8604 25.8594c-.2531-.0827-.5631-.0233-.7646-.2738.0878-.1989.2764-.1964.4288-.2454 1.7825-.5761 2.4231-1.4932 2.312-3.3118-.1265-2.0511-1.5138-3.5985-3.5752-3.8879-2.59107-.3616-5.20535-.0955-7.80671-.1627-.40041-.0103-.53216.2144-.55799.6122-.0465.7337.14466 1.4441.14207 2.17-.00516 4.172.00001 8.344-.00516 12.5186 0 .341-.02584.6303.4779.6226 2.47479-.0414 4.95474.0645 7.42953-.0646 1.05136-.0543 2.03566-.3746 2.87776-1.023 1.3511-1.0411 1.8652-2.4619 1.6197-4.1074-.2195-1.4777-1.1728-2.3922-2.5807-2.852zm-6.57444-3.2911c-.0155-.4934.00517-.9868-.00516-1.4802-.00775-.2739.093-.3824.37458-.3798 1.03073.0155 2.06662-.0361 3.09218.0336 1.22706.0827 2.05634.9119 2.02784 1.9039-.0232.8447-.4598 1.3924-1.28126 1.6404-.75949.2273-1.53706.1214-2.35596.1576-.56315-.0698-1.35364.2634-1.74371-.137-.35908-.3694-.08526-1.1444-.10593-1.7411zm4.0971 8.5248c-1.23998.1576-2.49288.0465-3.74061.0698-.28933.0052-.36165-.1473-.36165-.403.00517-1.1186.01291-2.2346-.00259-3.3531-.00516-.3436.13175-.4495.45466-.4418.58124.0155 1.16248.0052 1.74372.0052v.0388c.60191 0 1.20898-.0414 1.80571.0077 1.1935.0982 1.8884.8602 1.9116 2.0253.0233 1.1134-.6432 1.9039-1.81084 2.0511z"></path><path d="m14.7878 9.83524c-.8654-1.52155-2.3121-2.10538-3.9215-2.42829-1.18053-.23767-2.39727-.28675-3.54683-.66649-.91448-.29967-1.23997-.73882-1.23738-1.58097 0-.8344.45724-1.40789 1.32264-1.68946.67165-.217 1.3588-.21959 2.04595-.15501 1.25552.11883 1.96332.72074 2.24742 1.94005.0775.33066.1912.47016.5477.45724.7517-.02583 1.5086-.031 2.2604 0 .4727.02067.5554-.18341.4701-.58124-.3151-1.48797-1.0333-2.70987-2.3378-3.54427-1.4363-.917063-3.04057-.955799-4.67321-.906717-1.35364.041333-2.48511.560557-3.49001 1.425957-2.67111 2.30171-1.99945 6.13015 1.28648 7.37271 1.34589.5089 2.77703.56055 4.16684.83435.5528.1085 1.1366.1602 1.6404.7828-.4418 0-.7543.0077-1.0643 0-.3462-.0129-.4444.0465-.3049.4391.3695 1.0282.1189 1.8626-.70519 2.2966-1.20381.6355-2.48512.6406-3.76385.2454-1.10306-.341-1.55513-1.2168-1.75405-2.2707-.02841-.1524-.05424-.3436-.25574-.2894-.88865.2351-1.7928.0517-2.68661.1086-.188583.0129-.307416.0258-.348748.266-.175664 1.0333.909318 3.2756 1.849628 3.8181 1.87547 1.0773 3.90077 1.4286 6.02681 1.209 1.50605-.155 2.91395-.5993 3.97825-1.7644.9584-1.0488 1.1831-2.3043.9894-3.6657-.0362-.2557.0723-.3539.3229-.3436.1938.0078.3875 0 .5812 0 .8706 0 .9042-.049.5813-.8421-.0646-.1576-.1447-.31257-.2273-.46241z"></path><path d="m24.837 9.39891c.0233 1.56289-.062 2.81319.1111 4.05579.1963 1.4233.775 2.6452 2.2242 3.1386 1.5319.5219 2.9708.3126 4.1772-.8886.2144-.2118.3539-.7026.6665-.5761.2867.1163.1265.5839.1136.8913-.0155.4391.1189.6303.5864.6019.5787-.0336 1.1651-.0362 1.7437 0 .4728.0284.5709-.1654.5684-.5968-.0155-3.4125.0155-6.82501-.1266-10.23495-.0181-.4159-.1628-.51406-.5348-.49598-.5166.02325-1.0333.00517-1.5499.00517-.9248 0-.9352-.00001-.9223.89381.0233 1.77988.2196 3.5546.1137 5.33705-.031.5141-.0542 1.0308-.248 1.519-.3823.961-1.1521 1.4156-2.201 1.2942-.9816-.1137-1.475-.6148-1.6326-1.6869-.0336-.2325-.0413-.4727-.0413-.7078-.0129-2.0382.0361-4.07642-.1188-6.11205-.031-.42624-.1576-.56315-.571-.54507-.6225.02584-1.2503.03617-1.8728 0-.5038-.031-.6898.18599-.5942.64065.2583 1.25806.0413 2.52645.1163 3.46935z"></path><path d="m35.0196 22.9736c0-.0439-.0051-.0853 0-.1292.0259-.279-.1059-.3797-.3797-.3772-.7311.0104-1.4647.0052-2.1958 0-.2506 0-.4237.0698-.4211.3565.0078 1.2245-.0542 2.4567.0491 3.6735.093 1.0979.1395 2.1906-.0568 3.2678-.2299 1.2658-1.0695 1.8471-2.3095 1.7463-1.0746-.0878-1.6223-.7491-1.692-2.0459-.0104-.2145-.0181-.4314-.0078-.6459.093-1.9529-.2041-3.8956-.1266-5.8485.0155-.4082-.1498-.5193-.5321-.5063-.6458.0232-1.2942.031-1.9375 0-.4701-.0259-.5709.1705-.5786.6019-.0336 1.5448.2764 3.0767.1446 4.296-.0129 1.3149-.0439 2.3094.1008 3.2885.2118 1.4156.7672 2.6685 2.2474 3.1051 1.4828.4366 2.9424.3616 4.1307-.8628.2144-.2196.3875-.7053.6613-.5942.3204.1318.1499.6148.1369.9352-.0155.4391.1602.5605.571.5399.5579-.0259 1.1211-.0362 1.6791 0 .496.0336.6458-.1163.6561-.6355.0698-3.3919-.1911-6.7785-.1446-10.1678z"></path><path d="m23.4546 14.0084c-1.6378-.1033-1.6378-.111-1.6378-1.7308 0-.0645 0-.1291 0-.1937-.0052-1.1392.0723-.9997-.9481-.9791-.4521.0104-.6174-.1498-.5993-.5967.0258-.62257.0051-1.24772.0051-1.87029 0-.92999.0001-.92223.9429-.93256 1.3227-.01292 1.1289.18599 1.1419-1.18057.0103-1.09789 0-1.09789-1.116-1.09789-.732 0-1.0979-.36426-1.0979-1.09274 0-.06459 0-.12917 0-.19375 0-1.55514 0-1.56805-1.5397-1.54738-.483.00516-1.1883-.24541-1.4001.12142-.2764.47791-.1111 1.16763-.0542 1.76696.0129.14466.0749.28675.0904.43142.0413.33324-.0646.49856-.4521.51922-1.2322.062-1.2296.07751-1.2296 1.3459 0 .17308.0077.34358 0 .51666-.013.30741.1472.39265.4365.4159 1.2503.09558 1.2503.10334 1.2503 1.38207v.32291c0 .36682.031.73362-.0077 1.09532-.0517.5089.1369.713.6458.6329.1059-.0181.217.0103.3229-.0052.4547-.0646.5993.1318.5813.5787-.0285.7078-.0388 1.4208.018 2.1286.0982 1.2374.5735 2.2423 1.8652 2.6711.4572.1524.93.0646 1.3924.0853 1.8444.0775 1.847.0594 1.8444-1.7541 0-.1291-.0103-.2583 0-.3875.0336-.3436-.1317-.4314-.4546-.4521z"></path><path d="m23.7877 22.6515c-.0129-.31-.1188-.3953-.4211-.4056-1.3278-.0439-2.5006.744-2.9243 1.9788-.0645.186-.1059.4081-.2893.5192-.1756-.0568-.1421-.1808-.1524-.2764-.0698-.5916.0697-1.3717-.2557-1.7256-.3772-.4108-1.178-.124-1.7954-.1369-.9662-.0233-.9636-.0052-.8628.9196.0155.1498.0051.2997.0051.4521v5.6135c0 1.2529 0 1.2658-1.2761 1.2942-.3514.0077-.5012.0904-.4883.4676.0259.7078.0181 1.4208.0026 2.1286-.0052.2971.0878.4314.403.4185.4288-.0207.8628.0155 1.2916-.0078 1.3589-.0775 1.3589-.0852 1.3589-1.4569v-.323c0-1.2528 0-1.2684 1.2684-1.2994.359-.0103.4856-.1084.4779-.4779-.0207-.8369-.0285-1.6791.0051-2.5161.0569-1.3872.8396-2.3663 2.077-2.6013.4185-.0801.8576-.0672 1.2865-.0904.2014-.0104.452-.0259.3797-.2971-.1963-.7233-.0568-1.4518-.0878-2.1752z"></path></g></symbol></defs>
    <use xlink:href="#stubru" fill="#FFFFFF"></use>
</svg>