<svg xmlns:xlink="http://www.w3.org/1999/xlink" xmlns="http://www.w3.org/2000/svg" role="img" class="svg-icon -twitter" width="25"  height="21" ><defs><symbol id="twitter" viewBox="0 0 25 21"><path d="m22.4302 5.40791c.0158.22207.0158.44419.0158.66626 0 6.77343-5.1554 14.57803-14.57798 14.57803-2.90293 0-5.59961-.8408-7.86802-2.3001.412451.0476.808984.0634 1.2373.0634 2.39527 0 4.60025-.809 6.36104-2.189-2.25254-.0476-4.14023-1.5229-4.79063-3.5534.31729.0476.63453.0793.96768.0793.46001 0 .92007-.0634 1.34834-.1744-2.3477-.476-4.10854-2.5381-4.10854-5.02859v-.06342c.68208.38071 1.47529.61865 2.31596.65034-1.38008-.92007-2.28423-2.49048-2.28423-4.26714 0-.95176.25376-1.82422.69795-2.58565 2.52222 3.10914 6.31348 5.13956 10.56473 5.36168-.0793-.38072-.1269-.77725-.1269-1.17383 0-2.82364 2.2842-5.123734 5.1237-5.123734 1.4752 0 2.8077.618653 3.7436 1.618014 1.158-.22207 2.2684-.65039 3.252-1.237301-.3808 1.189751-1.1898 2.189111-2.2526 2.823581 1.0311-.11098 2.0305-.39658 2.9505-.79311-.6979 1.01518-1.5704 1.91933-2.5697 2.64907z"></path></symbol></defs>
    <use xlink:href="#twitter" fill="#FFFFFF"></use>
</svg>