<svg xmlns:xlink="http://www.w3.org/1999/xlink" xmlns="http://www.w3.org/2000/svg" role="img" class="svg-icon -website" width="25"  height="25" ><defs><symbol id="website" viewBox="0 0 25 25"><path d="m16.4307 7.42188c-.708-4.36036-2.378-7.42188-4.3213-7.42188-1.9434 0-3.61331 3.06152-4.32131 7.42188zm-9.00882 4.68752c0 1.084.05859 2.124.16113 3.125h9.04789c.1025-1.001.1611-2.041.1611-3.125s-.0586-2.12405-.1611-3.12502h-9.04789c-.10254 1.00097-.16113 2.04102-.16113 3.12502zm15.85452-4.68752c-1.3965-3.31543-4.2237-5.87891-7.7149-6.914068 1.1914 1.650388 2.0117 4.135738 2.4414 6.914068zm-14.62406-6.914068c-3.48632 1.035158-6.31836 3.598638-7.709957 6.914068h5.273437c.42481-2.77833 1.24512-5.26368 2.43652-6.914068zm15.14646 8.476568h-5.6006c.1026 1.02542.1612 2.07522.1612 3.12502s-.0586 2.0996-.1612 3.125h5.5957c.2686-1.001.42-2.041.42-3.125s-.1514-2.12405-.4151-3.12502zm-17.93942 3.12502c0-1.0498.05859-2.0996.16113-3.12502h-5.600588c-.263672 1.00097-.419922 2.04102-.419922 3.12502s.15625 2.124.419922 3.125h5.595698c-.09765-1.0254-.15624-2.0752-.15624-3.125zm1.92871 4.6875c.708 4.3603 2.37791 7.4219 4.32131 7.4219 1.9433 0 3.6133-3.0616 4.3213-7.4219zm7.77831 6.914c3.4863-1.0351 6.3184-3.5986 7.7148-6.914h-5.2734c-.4297 2.7783-1.25 5.2636-2.4414 6.914zm-14.624017-6.914c1.396487 3.3154 4.223637 5.8789 7.714847 6.914-1.19141-1.6504-2.01172-4.1357-2.44141-6.914z"></path></symbol></defs>
    <use xlink:href="#website"></use>
</svg>