<svg xmlns:xlink="http://www.w3.org/1999/xlink" xmlns="http://www.w3.org/2000/svg" role="img" class="svg-icon -winforlife" width="76"  height="28" ><defs><symbol id="winforlife" viewBox="0 0 76 28"><g><path d="m75.0936 11.4168c-.2827-1.56929-.7587-3.04918-1.604-4.43387-3.1588-5.18104-8.7408-7.610018-14.669-6.300332-1.7597.389442-3.4127 1.087562-4.7887 2.247232-1.5203 1.28084-2.9656 2.65976-3.7358 4.57236-.1587.39233-.3231.40099-.5452-.00577-1.1568-2.11453-2.804-3.80501-4.8609-5.00796-3.8886-2.27608-7.9215-2.835725-12.165-.81927-2.7954 1.32988-4.9849 3.23383-6.4619 5.94551-.2654.48464-.401.34617-.5885-.01442-.0664-.12693-.1443-.25098-.2135-.37502-2.328-4.1685-7.835-7.607142-14.0863-6.271494-6.8975 1.474114-11.250635 8.097554-10.653487 13.552634.510607 4.6733 2.310707 8.3947 6.461897 10.8294 3.02609 1.7771 6.27149 2.3454 9.66109 1.6069 3.9723-.8655 7.0792-2.9973 8.888-6.7677.1327-.2741.2596-.3721.4846-.026.7039 1.0818 1.4972 2.0915 2.429 2.9973 3.479 3.3752 7.6216 4.5868 12.3353 3.6348 3.9348-.7962 6.7705-3.1559 8.6802-6.658.0981-.1789.1097-.4962.3491-.4991.274 0 .2971.3317.4154.525 2.6309 4.4022 6.5167 6.6552 11.3746 6.8052 3.0204-.0808 5.559-.7183 7.7976-2.4492 4.3214-3.3434 6.4936-7.5436 5.4955-13.0939zm-61.9332-.2827c-.4471 1.5924-.9202 3.179-1.3875 4.7685-.0606.2077-.1875.4241-.1645.6232.101.8452-.4125.8452-1.0154.8279-.326-.0116-.424-.1471-.5539-.4212-.53076-1.1279-.88847-2.3193-1.29811-3.4906-.05193-.1471-.05773-.3375-.31735-.4413-.37502.8567-.68944 1.7337-.83656 2.6366-.08654.5251-.27982 1.0039-.39232 1.5117-.10386.476-.52215.3144-.83659.3346-.28848.0173-.53369.0317-.65485-.3664-.62023-2.0107-1.38471-3.9723-1.93282-6.0089-.0952-.3491-.04326-.4587.33753-.4789 1.09621-.0548 1.09911-.0721 1.38182 1.0154.22212.8597.43271 1.7222.64907 2.5848.05193.2048.06058.4298.32021.6144.40675-1.2318.85099-2.4116 1.17986-3.6261.16154-.5972.51062-.5683.96065-.5885.45291-.0202.67791.1154.81637.5827.3606 1.2145.78759 2.4088 1.23759 3.7502.476-1.2953.6952-2.5213 1.0212-3.7156.1788-.6519.8452-1.0125 1.4424-.7269.3519.1673.0952.4327.0432.6173zm1.7396 6.2023c-.3462-.0462-.8539.2308-.8453-.5049.026-1.9414.026-3.8829 0-5.8214-.0086-.7241.4875-.4731.8395-.5135.401-.0462.6779 0 .652.5481-.0462.9808-.0145 1.9645-.0145 2.9453 0 .9347-.0346 1.8694.0145 2.804.0288.5481-.2453.5972-.6462.5453zm8.585-.6116c.0058.4558-.1154.5885-.5942.6375-.9664.0952-1.6011-.1615-2.0598-1.0904-.5423-1.0933-1.2577-2.103-1.9039-3.1444-.0808-.1327-.1327-.3577-.3375-.3087-.2192.0519-.1414.277-.1442.4299-.0087 1.1769-.0376 2.3568.0086 3.5338.0231.6173-.326.577-.727.5596-.3635-.0144-.7644.1356-.75-.525.0375-1.9241.026-3.8483.0029-5.7695-.0058-.4558.1615-.5164.5798-.5712 1.0703-.1442 1.7107.225 2.2011 1.2145.5827 1.177 1.3587 2.2616 2.054 3.3838l.1788-.0404c0-1.2895.0375-2.579-.0173-3.8627-.0259-.626.2366-.6923.7529-.6894.5135 0 .776.0663.7616.6923-.0433 1.852-.0288 3.704-.0058 5.5532zm9.2313-5.0108c-.6866-.0087-1.3732-.0664-2.0713.0865-.8164.1789-.3894.75-.4356 1.1366-.0606.4991.3664.1817.5626.2192.2538.0491.525.0116.7904.0116.2164 0 .4356.0288.6491-.0058.7125-.1154.9289.1904.8596.8741-.0375.3721-.15.5019-.5192.4875-.6232-.0231-1.2491.0116-1.8723-.0115-.3721-.0144-.5134.1125-.4961.4933.0259.574.0173 1.151 0 1.728-.0231.851-.7731.3663-1.151.5654-.3376.1759-.3376-.2625-.3376-.5164 0-1.9184 0-3.8396 0-5.758 0-.2712-.0201-.5568.3866-.525 1.2203.0952 2.4261-.176 3.6463-.1645.6174.0058.5453.3404.5626.7328.0173.4211-.0462.6548-.5683.649zm5.0109 5.6599c-2.1492-.0144-3.6695-1.5059-3.6752-3.5973-.0029-2.129 1.5289-3.606 3.7357-3.5945 2.178.0116 3.655 1.4597 3.655 3.5858 0 2.1492-1.5173 3.6233-3.7155 3.6089zm8.787-.1789c-.3203.0116-.3895-.2308-.4991-.4385-.3375-.6346-.675-1.2693-.9981-1.9126-.15-.2971-.3577-.4356-.6895-.3836-.3952.0634-.3.375-.3087.6202-.0115.4067-.0029.8164-.0029 1.2231 0 .828-.4644 1.1424-1.2519.8799-.2683-.0894-.2164-.2856-.2164-.4645-.0058-1.9674 0-3.9377-.0058-5.9051 0-.3173.0779-.4875.4443-.476.9116.026 1.8289-.0317 2.7376.0375 1.627.1212 2.4752 1.4828 1.8578 2.8963-.1384.3174-.3231.6347-.6462.7385-.6577.2164-.5683.5279-.2538.9953.4384.6548.8221 1.3501 1.3212 2.1809-.5827 0-1.0327-.0116-1.4828.0029zm9.8457-.1413c-1.1049-.026-2.2126-.0231-3.3175 0-.427.0086-.5279-.1674-.5221-.5568.0202-.9837.0057-1.9703.0057-2.954 0-.9116.0404-1.8289-.0144-2.7376-.0404-.6462.3202-.6174.7558-.6087.4125.0086.7933-.0779.7674.5913-.052 1.3905.0144 2.7867-.0289 4.1772-.0202.6202.1904.7962.776.7471.525-.0461 1.0558.0058 1.5866-.0115.5453-.0202.4616.3577.4674.6866.0057.3375.0634.6779-.476.6664zm2.8184-.502c.0087.6029-.3635.5106-.7096.4904-.3376-.0202-.8107.1875-.7933-.4846.0288-1.0068.0086-2.0136.0086-3.0204 0-.9346.0317-1.8722-.0115-2.804-.0289-.649.3894-.525.7558-.525.3635 0 .7615-.1298.75.5222-.0346 1.9414-.0317 3.8829 0 5.8243zm5.533-4.9906c-.6693-.0404-1.3472.0173-2.0165-.0173-.5279-.0289-.5942.248-.5769.6635.0173.4096-.075.851.5827.8192.6-.0288 1.2029.0202 1.803-.0115.5077-.026.5337.2654.5106.6375-.0231.3404.1096.7558-.4962.727-.5741-.0289-1.1568.0288-1.728-.0144-.5596-.0433-.7241.1846-.675.7038.0346.3808.0086.7674.0058 1.1511 0 .7673-.5049 1.0904-1.2405.8164-.3-.1125-.2019-.3491-.2019-.5424-.0116-.9837-.0058-1.9674-.0058-2.954 0-.9375.0173-1.8722-.0057-2.8097-.0087-.4068.124-.5453.5336-.5366 1.177.0231 2.3569.0346 3.531-.0029.5827-.0173.5135.3289.5221.6952.0116.3924.0144.7097-.5423.6751zm6.534 4.7685c-.0144.3577.0692.7356-.5135.7241-1.2722-.0231-2.5472-.0202-3.8223 0-.3894.0057-.4904-.1327-.4847-.502.0202-.9837.0058-1.9703.0058-2.954s.0173-1.9212-.0086-2.8819c-.0116-.4154.1326-.5308.5365-.5221 1.128.0231 2.2588.0317 3.3896 0 .9433-.026.5049.6866.577 1.076.1038.5596-.3923.2423-.577.2596-.5712.0548-1.1568.0606-1.728.0087-.5942-.0548-.7067.1875-.7269.7327-.0231.6318.3115.6318.7558.6174.5769-.0174 1.1539.023 1.7309-.0116.5106-.0288.5365.2596.5163.6318-.0173.349.0924.7529-.5019.7241-.5741-.0289-1.1568.0317-1.728-.0173-.6058-.052-.7645.1673-.7731.7615-.0116.6462.2481.7645.8077.7299.6693-.0404 1.3472.0144 2.0194-.0173.499-.0231.5423.2509.525.6317z"></path><path d="m37.7327 11.5229c-1.2376.0116-2.1434.952-2.1492 2.2386-.0057 1.3184.9231 2.2703 2.1982 2.2559 1.2607-.0144 2.129-.926 2.1348-2.2328.0057-1.3356-.9001-2.2703-2.1838-2.2588z"></path><path d="m45.4409 11.6405c-.3317-.0346-.6664-.0461-.9981-.0548-.1673-.0029-.3231.0144-.4125.2077-.3405.7443.0605 1.4251.9779 1.4136.0577-.0029.251.0086.4385-.026.4269-.0808.776-.2568.7673-.7789-.0086-.5106-.3173-.7183-.7731-.7645z"></path></g></symbol></defs>
    <use xlink:href="#winforlife" fill="#FFFFFF"></use>
</svg>