<svg xmlns:xlink="http://www.w3.org/1999/xlink" xmlns="http://www.w3.org/2000/svg" role="img" class="svg-icon -youtube" width="25"  height="17" ><defs><symbol id="youtube" viewBox="0 0 25 17"><path d="m23.8569 2.77427c-.2727-1.02647-1.0759-1.834893-2.0957-2.109242-1.8485-.498524-9.2609-.498524-9.2609-.498524s-7.41232 0-9.26089.498524c-1.01984.274393-1.82305 1.082772-2.09566 2.109242-.495312 1.86055-.495312 5.74241-.495312 5.74241s0 3.88182.495312 5.74242c.27261 1.0265 1.07582 1.8012 2.09566 2.0755 1.84857.4986 9.26089.4986 9.26089.4986s7.4123 0 9.2609-.4986c1.0198-.2743 1.823-1.049 2.0957-2.0755.4953-1.8606.4953-5.74242.4953-5.74242s0-3.88186-.4953-5.74241zm-13.7809 9.26683v-7.04886l6.1953 3.52452z"></path></symbol></defs>
    <use xlink:href="#youtube"></use>
</svg>